%TF.GenerationSoftware,KiCad,Pcbnew,9.0.0*%
%TF.CreationDate,2025-03-16T07:02:03-06:00*%
%TF.ProjectId,travyboard,74726176-7962-46f6-9172-642e6b696361,rev?*%
%TF.SameCoordinates,Original*%
%TF.FileFunction,Soldermask,Top*%
%TF.FilePolarity,Negative*%
%FSLAX46Y46*%
G04 Gerber Fmt 4.6, Leading zero omitted, Abs format (unit mm)*
G04 Created by KiCad (PCBNEW 9.0.0) date 2025-03-16 07:02:03*
%MOMM*%
%LPD*%
G01*
G04 APERTURE LIST*
%ADD10C,1.900000*%
%ADD11C,3.000000*%
%ADD12C,4.100000*%
%ADD13O,1.200000X2.000000*%
%ADD14O,2.000000X1.200000*%
%ADD15O,2.504000X1.354000*%
G04 APERTURE END LIST*
D10*
%TO.C,SW32*%
X313913111Y-54738799D03*
D11*
X315183111Y-52198799D03*
D12*
X318993111Y-54738799D03*
D11*
X321533111Y-49658799D03*
D10*
X324073111Y-54738799D03*
%TD*%
%TO.C,SW28*%
X237713047Y-52357799D03*
D11*
X238983047Y-49817799D03*
D12*
X242793047Y-52357799D03*
D11*
X245333047Y-47277799D03*
D10*
X247873047Y-52357799D03*
%TD*%
%TO.C,SW17*%
X113823766Y-69029601D03*
D11*
X115093766Y-66489601D03*
D12*
X118903766Y-69029601D03*
D11*
X121443766Y-63949601D03*
D10*
X123983766Y-69029601D03*
%TD*%
%TO.C,SW26*%
X313913111Y-35688783D03*
D11*
X315183111Y-33148783D03*
D12*
X318993111Y-35688783D03*
D11*
X321533111Y-30608783D03*
D10*
X324073111Y-35688783D03*
%TD*%
%TO.C,SW20*%
X125193573Y-91605930D03*
D11*
X126961551Y-89383602D03*
D12*
X130163684Y-92656833D03*
D11*
X133699640Y-88212172D03*
D10*
X135133795Y-93707736D03*
%TD*%
%TO.C,SW40*%
X266288095Y-90457815D03*
D11*
X267558095Y-87917815D03*
D12*
X271368095Y-90457815D03*
D11*
X273908095Y-85377815D03*
D10*
X276448095Y-90457815D03*
%TD*%
%TO.C,SW1*%
X37623734Y-35692073D03*
D11*
X38893734Y-33152073D03*
D12*
X42703734Y-35692073D03*
D11*
X45243734Y-30612073D03*
D10*
X47783734Y-35692073D03*
%TD*%
%TO.C,SW38*%
X313913111Y-73788815D03*
D11*
X315183111Y-71248815D03*
D12*
X318993111Y-73788815D03*
D11*
X321533111Y-68708815D03*
D10*
X324073111Y-73788815D03*
%TD*%
%TO.C,SW2*%
X56673750Y-35692073D03*
D11*
X57943750Y-33152073D03*
D12*
X61753750Y-35692073D03*
D11*
X64293750Y-30612073D03*
D10*
X66833750Y-35692073D03*
%TD*%
%TO.C,SW29*%
X256763079Y-49975799D03*
D11*
X258033079Y-47435799D03*
D12*
X261843079Y-49975799D03*
D11*
X264383079Y-44895799D03*
D10*
X266923079Y-49975799D03*
%TD*%
%TO.C,SW30*%
X275813079Y-47594799D03*
D11*
X277083079Y-45054799D03*
D12*
X280893079Y-47594799D03*
D11*
X283433079Y-42514799D03*
D10*
X285973079Y-47594799D03*
%TD*%
%TO.C,SW13*%
X37623734Y-73792105D03*
D11*
X38893734Y-71252105D03*
D12*
X42703734Y-73792105D03*
D11*
X45243734Y-68712105D03*
D10*
X47783734Y-73792105D03*
%TD*%
%TO.C,SW39*%
X332963127Y-73788815D03*
D11*
X334233127Y-71248815D03*
D12*
X338043127Y-73788815D03*
D11*
X340583127Y-68708815D03*
D10*
X343123127Y-73788815D03*
%TD*%
%TO.C,SW42*%
X226057181Y-101158861D03*
D11*
X226190214Y-98322172D03*
D12*
X230702309Y-99102363D03*
D11*
X230968375Y-93428986D03*
D10*
X235347437Y-97045865D03*
%TD*%
%TO.C,SW15*%
X75723766Y-69029601D03*
D11*
X76993766Y-66489601D03*
D12*
X80803766Y-69029601D03*
D11*
X83343766Y-63949601D03*
D10*
X85883766Y-69029601D03*
%TD*%
%TO.C,SW46*%
X151923766Y-52360585D03*
D11*
X153193766Y-49820585D03*
D12*
X157003766Y-52360585D03*
D11*
X159543766Y-47280585D03*
D10*
X162083766Y-52360585D03*
%TD*%
%TO.C,SW37*%
X294863095Y-69025815D03*
D11*
X296133095Y-66485815D03*
D12*
X299943095Y-69025815D03*
D11*
X302483095Y-63945815D03*
D10*
X305023095Y-69025815D03*
%TD*%
%TO.C,SW19*%
X104298790Y-90460869D03*
D11*
X105568790Y-87920869D03*
D12*
X109378790Y-90460869D03*
D11*
X111918790Y-85380869D03*
D10*
X114458790Y-90460869D03*
%TD*%
%TO.C,SW4*%
X94773750Y-28548073D03*
D11*
X96043750Y-26008073D03*
D12*
X99853750Y-28548073D03*
D11*
X102393750Y-23468073D03*
D10*
X104933750Y-28548073D03*
%TD*%
%TO.C,SW31*%
X294863095Y-49975799D03*
D11*
X296133095Y-47435799D03*
D12*
X299943095Y-49975799D03*
D11*
X302483095Y-44895799D03*
D10*
X305023095Y-49975799D03*
%TD*%
D13*
%TO.C,U2*%
X210794950Y-64337798D03*
X213334950Y-64337798D03*
X215874950Y-64337798D03*
X218414950Y-64337798D03*
X215874950Y-79577798D03*
X220954950Y-64337798D03*
X223494950Y-64337798D03*
X210794950Y-79577798D03*
X226034950Y-64337798D03*
X228574950Y-64337798D03*
X231114950Y-64337798D03*
D14*
X231114950Y-66877798D03*
X231114950Y-69417798D03*
X231114950Y-71957798D03*
X231114950Y-74497798D03*
X231114950Y-77037798D03*
D13*
X231114950Y-79577798D03*
X228574950Y-79577798D03*
X226034950Y-79577798D03*
X223494950Y-79577798D03*
X220954950Y-79577798D03*
X218414950Y-79577798D03*
X213334950Y-79577798D03*
%TD*%
D10*
%TO.C,SW6*%
X132873750Y-33310073D03*
D11*
X134143750Y-30770073D03*
D12*
X137953750Y-33310073D03*
D11*
X140493750Y-28230073D03*
D10*
X143033750Y-33310073D03*
%TD*%
%TO.C,SW5*%
X113823750Y-30929073D03*
D11*
X115093750Y-28389073D03*
D12*
X118903750Y-30929073D03*
D11*
X121443750Y-25849073D03*
D10*
X123983750Y-30929073D03*
%TD*%
%TO.C,SW9*%
X75723766Y-49979585D03*
D11*
X76993766Y-47439585D03*
D12*
X80803766Y-49979585D03*
D11*
X83343766Y-44899585D03*
D10*
X85883766Y-49979585D03*
%TD*%
%TO.C,SW16*%
X94773766Y-66648601D03*
D11*
X96043766Y-64108601D03*
D12*
X99853766Y-66648601D03*
D11*
X102393766Y-61568601D03*
D10*
X104933766Y-66648601D03*
%TD*%
%TO.C,SW35*%
X256763063Y-69025815D03*
D11*
X258033063Y-66485815D03*
D12*
X261843063Y-69025815D03*
D11*
X264383063Y-63945815D03*
D10*
X266923063Y-69025815D03*
%TD*%
%TO.C,SW7*%
X37623734Y-54742089D03*
D11*
X38893734Y-52202089D03*
D12*
X42703734Y-54742089D03*
D11*
X45243734Y-49662089D03*
D10*
X47783734Y-54742089D03*
%TD*%
%TO.C,SW12*%
X132873766Y-52360585D03*
D11*
X134143766Y-49820585D03*
D12*
X137953766Y-52360585D03*
D11*
X140493766Y-47280585D03*
D10*
X143033766Y-52360585D03*
%TD*%
%TO.C,SW34*%
X237713047Y-71407815D03*
D11*
X238983047Y-68867815D03*
D12*
X242793047Y-71407815D03*
D11*
X245333047Y-66327815D03*
D10*
X247873047Y-71407815D03*
%TD*%
%TO.C,SW25*%
X294863095Y-30925783D03*
D11*
X296133095Y-28385783D03*
D12*
X299943095Y-30925783D03*
D11*
X302483095Y-25845783D03*
D10*
X305023095Y-30925783D03*
%TD*%
%TO.C,SW41*%
X245613108Y-93704766D03*
D11*
X246330138Y-90956973D03*
D12*
X250583201Y-92653779D03*
D11*
X252017260Y-87158192D03*
D10*
X255553294Y-91602792D03*
%TD*%
%TO.C,SW49*%
X218663047Y-33307783D03*
D11*
X219933047Y-30767783D03*
D12*
X223743047Y-33307783D03*
D11*
X226283047Y-28227783D03*
D10*
X228823047Y-33307783D03*
%TD*%
D13*
%TO.C,U1*%
X169966490Y-79548026D03*
X167426490Y-79548026D03*
X164886490Y-79548026D03*
X162346490Y-79548026D03*
X164886490Y-64308026D03*
X159806490Y-79548026D03*
X157266490Y-79548026D03*
X169966490Y-64308026D03*
X154726490Y-79548026D03*
X152186490Y-79548026D03*
X149646490Y-79548026D03*
D14*
X149646490Y-77008026D03*
X149646490Y-74468026D03*
X149646490Y-71928026D03*
X149646490Y-69388026D03*
X149646490Y-66848026D03*
D13*
X149646490Y-64308026D03*
X152186490Y-64308026D03*
X154726490Y-64308026D03*
X157266490Y-64308026D03*
X159806490Y-64308026D03*
X162346490Y-64308026D03*
X167426490Y-64308026D03*
%TD*%
D10*
%TO.C,SW33*%
X332963127Y-54738799D03*
D11*
X334233127Y-52198799D03*
D12*
X338043127Y-54738799D03*
D11*
X340583127Y-49658799D03*
D10*
X343123127Y-54738799D03*
%TD*%
%TO.C,SW21*%
X145380237Y-97019022D03*
D11*
X147569736Y-95210544D03*
D12*
X150025401Y-99075439D03*
D11*
X154404400Y-95458483D03*
D10*
X154670565Y-101131856D03*
%TD*%
%TO.C,SW50*%
X218663047Y-52357799D03*
D11*
X219933047Y-49817799D03*
D12*
X223743047Y-52357799D03*
D11*
X226283047Y-47277799D03*
D10*
X228823047Y-52357799D03*
%TD*%
%TO.C,SW14*%
X56673750Y-73792105D03*
D11*
X57943750Y-71252105D03*
D12*
X61753750Y-73792105D03*
D11*
X64293750Y-68712105D03*
D10*
X66833750Y-73792105D03*
%TD*%
%TO.C,SW24*%
X275813079Y-28544783D03*
D11*
X277083079Y-26004783D03*
D12*
X280893079Y-28544783D03*
D11*
X283433079Y-23464783D03*
D10*
X285973079Y-28544783D03*
%TD*%
%TO.C,SW11*%
X113823766Y-49979585D03*
D11*
X115093766Y-47439585D03*
D12*
X118903766Y-49979585D03*
D11*
X121443766Y-44899585D03*
D10*
X123983766Y-49979585D03*
%TD*%
%TO.C,SW18*%
X132873766Y-71410601D03*
D11*
X134143766Y-68870601D03*
D12*
X137953766Y-71410601D03*
D11*
X140493766Y-66330601D03*
D10*
X143033766Y-71410601D03*
%TD*%
%TO.C,SW23*%
X256763063Y-30925783D03*
D11*
X258033063Y-28385783D03*
D12*
X261843063Y-30925783D03*
D11*
X264383063Y-25845783D03*
D10*
X266923063Y-30925783D03*
%TD*%
%TO.C,SW10*%
X94773766Y-47598585D03*
D11*
X96043766Y-45058585D03*
D12*
X99853766Y-47598585D03*
D11*
X102393766Y-42518585D03*
D10*
X104933766Y-47598585D03*
%TD*%
%TO.C,SW45*%
X151923750Y-33310073D03*
D11*
X153193750Y-30770073D03*
D12*
X157003750Y-33310073D03*
D11*
X159543750Y-28230073D03*
D10*
X162083750Y-33310073D03*
%TD*%
%TO.C,SW3*%
X75723750Y-30929073D03*
D11*
X76993750Y-28389073D03*
D12*
X80803750Y-30929073D03*
D11*
X83343750Y-25849073D03*
D10*
X85883750Y-30929073D03*
%TD*%
%TO.C,SW36*%
X275813079Y-66644815D03*
D11*
X277083079Y-64104815D03*
D12*
X280893079Y-66644815D03*
D11*
X283433079Y-61564815D03*
D10*
X285973079Y-66644815D03*
%TD*%
%TO.C,SW22*%
X237713047Y-33307783D03*
D11*
X238983047Y-30767783D03*
D12*
X242793047Y-33307783D03*
D11*
X245333047Y-28227783D03*
D10*
X247873047Y-33307783D03*
%TD*%
%TO.C,SW8*%
X56673750Y-54742089D03*
D11*
X57943750Y-52202089D03*
D12*
X61753750Y-54742089D03*
D11*
X64293750Y-49662089D03*
D10*
X66833750Y-54742089D03*
%TD*%
%TO.C,SW27*%
X332963127Y-35688783D03*
D11*
X334233127Y-33148783D03*
D12*
X338043127Y-35688783D03*
D11*
X340583127Y-30608783D03*
D10*
X343123127Y-35688783D03*
%TD*%
D15*
%TO.C,J1*%
X169588734Y-75921823D03*
X166338734Y-68321823D03*
X169588734Y-68321823D03*
%TD*%
%TO.C,J2*%
X211093734Y-68322298D03*
X214343734Y-75922298D03*
X211093734Y-75922298D03*
%TD*%
M02*
