M48
; DRILL file {KiCad 9.0.0} date 2025-03-23T14:50:25-0600
; FORMAT={-:-/ absolute / metric / decimal}
; #@! TF.CreationDate,2025-03-23T14:50:25-06:00
; #@! TF.GenerationSoftware,Kicad,Pcbnew,9.0.0
; #@! TF.FileFunction,Plated,1,2,PTH
FMAT,2
METRIC
; #@! TA.AperFunction,Plated,PTH,ViaDrill
T1C0.300
; #@! TA.AperFunction,Plated,PTH,ComponentDrill
T2C0.500
; #@! TA.AperFunction,Plated,PTH,ComponentDrill
T3C0.800
%
G90
G05
T1
X35.56Y-82.126
X42.704Y-59.505
X42.704Y-78.555
X43.299Y-41.05
X46.276Y-75.578
X47.466Y-77.959
X49.252Y-33.906
X49.252Y-47.003
X49.252Y-52.956
X49.252Y-61.886
X52.229Y-57.719
X52.229Y-61.171
X54.61Y-82.126
X56.396Y-42.836
X56.396Y-80.341
X56.991Y-77.364
X65.921Y-41.05
X65.921Y-58.909
X66.516Y-39.859
X66.516Y-78.555
X68.302Y-33.906
X68.302Y-47.003
X68.302Y-52.956
X68.302Y-60.695
X70.088Y-54.742
X71.874Y-56.528
X73.66Y-77.364
X75.446Y-38.669
X75.446Y-76.173
X76.637Y-73.792
X82.59Y-52.956
X84.971Y-36.287
X84.971Y-73.792
X86.162Y-35.097
X87.352Y-29.144
X87.352Y-42.241
X87.352Y-48.194
X87.352Y-55.337
X90.329Y-51.17
X90.329Y-53.551
X92.71Y-74.983
X94.496Y-35.692
X101.64Y-50.575
X104.021Y-33.311
X104.021Y-72.006
X104.616Y-35.692
X106.402Y-26.762
X106.402Y-39.859
X106.402Y-45.812
X106.402Y-55.933
X106.402Y-64.862
X106.402Y-73.792
X109.379Y-94.033
X109.379Y-54.147
X109.379Y-55.933
X109.974Y-95.819
X111.165Y-93.437
X111.76Y-77.364
X113.546Y-38.669
X114.141Y-98.795
X120.094Y-97.605
X120.69Y-52.956
X123.071Y-35.692
X123.666Y-74.387
X124.262Y-38.669
X124.857Y-79.15
X125.452Y-29.144
X125.452Y-42.241
X125.452Y-48.194
X125.452Y-58.314
X125.452Y-67.244
X125.452Y-75.578
X128.429Y-101.176
X128.429Y-56.528
X128.429Y-58.314
X130.81Y-80.341
X131.405Y-95.819
X132.596Y-40.455
X134.382Y-74.387
X135.572Y-98.795
X135.572Y-101.176
X139.144Y-97.605
X139.74Y-55.337
X139.74Y-74.387
X142.121Y-38.073
X142.716Y-40.455
X144.502Y-31.525
X144.502Y-44.622
X144.502Y-50.575
X144.502Y-60.1
X145.097Y-83.317
X146.589Y-86.889
X147.479Y-56.528
X147.479Y-58.314
X149.86Y-102.367
X151.051Y-83.317
X157.004Y-38.073
X157.004Y-94.033
X158.79Y-55.337
X159.722Y-36.546
X161.766Y-59.505
X187.128Y-41.645
X189.509Y-41.645
X189.509Y-60.1
X190.699Y-38.669
X197.843Y-36.883
X199.034Y-57.719
X199.034Y-105.344
X201.415Y-30.93
X201.415Y-44.622
X201.415Y-55.937
X203.201Y-37.478
X204.392Y-102.962
X204.987Y-39.264
X204.987Y-58.909
X207.963Y-80.341
X213.917Y-101.177
X216.893Y-36.883
X216.893Y-74.983
X218.084Y-57.719
X219.274Y-55.933
X220.465Y-30.93
X220.465Y-44.622
X220.465Y-50.575
X220.465Y-56.528
X220.465Y-69.625
X220.465Y-80.341
X222.251Y-35.097
X222.846Y-73.792
X223.442Y-97.009
X224.037Y-36.883
X224.037Y-74.983
X227.609Y-57.123
X232.371Y-96.414
X235.943Y-34.501
X235.943Y-72.602
X237.134Y-55.337
X238.324Y-54.147
X238.324Y-82.127
X239.515Y-29.144
X239.515Y-42.241
X239.515Y-48.194
X239.515Y-55.337
X239.515Y-67.244
X239.515Y-76.769
X240.706Y-71.411
X241.896Y-32.716
X241.896Y-72.602
X243.087Y-95.223
X243.682Y-34.501
X246.659Y-54.742
X250.826Y-77.364
X254.993Y-32.12
X254.993Y-70.22
X256.184Y-52.956
X257.374Y-54.742
X258.565Y-26.762
X258.565Y-39.859
X258.565Y-45.812
X258.565Y-55.933
X258.565Y-64.862
X262.137Y-34.501
X262.137Y-37.478
X262.137Y-73.197
X262.137Y-74.983
X265.709Y-57.123
X271.067Y-73.792
X271.067Y-76.769
X274.043Y-34.501
X274.043Y-72.602
X275.234Y-55.337
X276.424Y-57.123
X277.615Y-29.144
X277.615Y-42.241
X277.615Y-48.789
X277.615Y-58.314
X280.592Y-39.264
X280.592Y-41.645
X281.187Y-75.578
X284.759Y-61.886
X285.949Y-80.341
X290.117Y-78.555
X290.117Y-81.531
X293.093Y-39.264
X293.093Y-77.364
X294.284Y-60.1
X295.474Y-61.886
X296.665Y-33.906
X296.665Y-47.003
X296.665Y-52.956
X296.665Y-62.481
X298.451Y-39.859
X299.642Y-42.241
X312.143Y-39.264
X312.143Y-77.364
X313.334Y-60.1
X315.715Y-33.906
X315.715Y-47.003
X315.715Y-52.956
X315.715Y-59.505
T3
X149.646Y-64.308
X149.646Y-66.848
X149.646Y-69.388
X149.646Y-71.928
X149.646Y-74.468
X149.646Y-77.008
X149.646Y-79.548
X152.186Y-64.308
X152.186Y-79.548
X154.726Y-64.308
X154.726Y-79.548
X157.266Y-64.308
X157.266Y-79.548
X159.806Y-64.308
X159.806Y-79.548
X162.346Y-64.308
X162.346Y-79.548
X164.886Y-64.308
X164.886Y-79.548
X167.426Y-64.308
X167.426Y-79.548
X169.966Y-64.308
X169.966Y-79.548
X181.983Y-64.338
X181.983Y-79.578
X184.523Y-64.338
X184.523Y-79.578
X187.063Y-64.338
X187.063Y-79.578
X189.603Y-64.338
X189.603Y-79.578
X192.143Y-64.338
X192.143Y-79.578
X194.683Y-64.338
X194.683Y-79.578
X197.223Y-64.338
X197.223Y-79.578
X199.763Y-64.338
X199.763Y-79.578
X202.303Y-64.338
X202.303Y-66.878
X202.303Y-69.418
X202.303Y-71.958
X202.303Y-74.498
X202.303Y-77.038
X202.303Y-79.578
T2
X166.989Y-68.322G85X165.689Y-68.322
G05
X170.239Y-68.322G85X168.939Y-68.322
G05
X170.239Y-75.922G85X168.939Y-75.922
G05
X181.869Y-68.322G85X183.169Y-68.322
G05
X181.869Y-75.922G85X183.169Y-75.922
G05
X185.119Y-75.922G85X186.419Y-75.922
G05
M30
