M48
; DRILL file {KiCad 9.0.0} date 2025-03-23T14:50:25-0600
; FORMAT={-:-/ absolute / metric / decimal}
; #@! TF.CreationDate,2025-03-23T14:50:25-06:00
; #@! TF.GenerationSoftware,Kicad,Pcbnew,9.0.0
; #@! TF.FileFunction,NonPlated,1,2,NPTH
FMAT,2
METRIC
; #@! TA.AperFunction,NonPlated,NPTH,ComponentDrill
T1C0.500
; #@! TA.AperFunction,NonPlated,NPTH,ComponentDrill
T2C1.900
; #@! TA.AperFunction,NonPlated,NPTH,ComponentDrill
T3C3.000
; #@! TA.AperFunction,NonPlated,NPTH,ComponentDrill
T4C4.100
%
G90
G05
T1
X50.122Y-83.527
X50.872Y-83.527
X51.612Y-83.517
X52.372Y-83.527
X53.132Y-83.527
X53.872Y-83.527
X54.622Y-83.517
X55.372Y-83.527
X56.122Y-83.527
X77.864Y-21.195
X78.614Y-21.195
X79.364Y-21.195
X80.104Y-21.195
X80.864Y-21.195
X81.614Y-21.195
X82.374Y-21.195
X83.104Y-21.195
X83.864Y-21.195
X157.041Y-23.576
X157.791Y-23.576
X158.541Y-23.576
X159.281Y-23.576
X160.041Y-23.576
X160.791Y-23.576
X161.551Y-23.576
X162.281Y-23.576
X163.041Y-23.576
X188.89Y-23.576
X189.64Y-23.576
X190.39Y-23.576
X191.13Y-23.576
X191.89Y-23.576
X192.64Y-23.576
X193.4Y-23.576
X194.13Y-23.576
X194.89Y-23.576
X268.066Y-21.195
X268.816Y-21.195
X269.566Y-21.195
X270.306Y-21.195
X271.066Y-21.195
X271.816Y-21.195
X272.576Y-21.195
X273.306Y-21.195
X274.066Y-21.195
X295.748Y-83.527
X296.498Y-83.527
X297.238Y-83.517
X297.998Y-83.527
X298.758Y-83.527
X299.498Y-83.527
X300.248Y-83.517
X300.998Y-83.527
X301.748Y-83.527
T2
X37.624Y-35.692
X37.624Y-54.742
X37.624Y-73.792
X47.784Y-35.692
X47.784Y-54.742
X47.784Y-73.792
X56.674Y-35.692
X56.674Y-54.742
X56.674Y-73.792
X66.834Y-35.692
X66.834Y-54.742
X66.834Y-73.792
X75.724Y-30.929
X75.724Y-49.98
X75.724Y-69.03
X85.884Y-30.929
X85.884Y-49.98
X85.884Y-69.03
X94.774Y-28.548
X94.774Y-47.599
X94.774Y-66.649
X104.299Y-90.461
X104.934Y-28.548
X104.934Y-47.599
X104.934Y-66.649
X113.824Y-30.929
X113.824Y-49.98
X113.824Y-69.03
X114.459Y-90.461
X123.984Y-30.929
X123.984Y-49.98
X123.984Y-69.03
X125.194Y-91.606
X132.874Y-33.31
X132.874Y-52.361
X132.874Y-71.411
X135.134Y-93.708
X143.034Y-33.31
X143.034Y-52.361
X143.034Y-71.411
X145.38Y-97.019
X151.924Y-33.31
X151.924Y-52.361
X154.671Y-101.132
X162.084Y-33.31
X162.084Y-52.361
X189.851Y-33.308
X189.851Y-52.358
X197.245Y-101.159
X200.011Y-33.308
X200.011Y-52.358
X206.535Y-97.046
X208.901Y-33.308
X208.901Y-52.358
X208.901Y-71.408
X216.801Y-93.705
X219.061Y-33.308
X219.061Y-52.358
X219.061Y-71.408
X226.741Y-91.603
X227.951Y-30.926
X227.951Y-69.026
X227.951Y-49.976
X237.476Y-90.458
X238.111Y-30.926
X238.111Y-69.026
X238.111Y-49.976
X247.001Y-28.545
X247.001Y-47.595
X247.001Y-66.645
X247.636Y-90.458
X257.161Y-28.545
X257.161Y-47.595
X257.161Y-66.645
X266.051Y-30.926
X266.051Y-49.976
X266.051Y-69.026
X276.211Y-30.926
X276.211Y-49.976
X276.211Y-69.026
X285.101Y-35.689
X285.101Y-54.739
X285.101Y-73.789
X295.261Y-35.689
X295.261Y-54.739
X295.261Y-73.789
X304.151Y-35.689
X304.151Y-54.739
X304.151Y-73.789
X314.311Y-35.689
X314.311Y-54.739
X314.311Y-73.789
T3
X38.894Y-33.152
X38.894Y-52.202
X38.894Y-71.252
X45.244Y-30.612
X45.244Y-49.662
X45.244Y-68.712
X57.944Y-33.152
X57.944Y-52.202
X57.944Y-71.252
X64.294Y-30.612
X64.294Y-49.662
X64.294Y-68.712
X76.994Y-28.389
X76.994Y-47.44
X76.994Y-66.49
X83.344Y-25.849
X83.344Y-44.9
X83.344Y-63.95
X96.044Y-26.008
X96.044Y-45.059
X96.044Y-64.109
X102.394Y-23.468
X102.394Y-42.519
X102.394Y-61.569
X105.569Y-87.921
X111.919Y-85.381
X115.094Y-28.389
X115.094Y-47.44
X115.094Y-66.49
X121.444Y-25.849
X121.444Y-44.9
X121.444Y-63.95
X126.962Y-89.384
X133.7Y-88.212
X134.144Y-30.77
X134.144Y-49.821
X134.144Y-68.871
X140.494Y-28.23
X140.494Y-47.281
X140.494Y-66.331
X147.57Y-95.211
X153.194Y-30.77
X153.194Y-49.821
X154.404Y-95.458
X159.544Y-28.23
X159.544Y-47.281
X191.121Y-30.768
X191.121Y-49.818
X197.378Y-98.322
X197.471Y-28.228
X197.471Y-47.278
X202.156Y-93.429
X210.171Y-30.768
X210.171Y-49.818
X210.171Y-68.868
X216.521Y-28.228
X216.521Y-47.278
X216.521Y-66.328
X217.518Y-90.957
X223.205Y-87.158
X229.221Y-28.386
X229.221Y-66.486
X229.221Y-47.436
X235.571Y-25.846
X235.571Y-63.946
X235.571Y-44.896
X238.746Y-87.918
X245.096Y-85.378
X248.271Y-26.005
X248.271Y-45.055
X248.271Y-64.105
X254.621Y-23.465
X254.621Y-42.515
X254.621Y-61.565
X267.321Y-28.386
X267.321Y-47.436
X267.321Y-66.486
X273.671Y-25.846
X273.671Y-44.896
X273.671Y-63.946
X286.371Y-33.149
X286.371Y-52.199
X286.371Y-71.249
X292.721Y-30.609
X292.721Y-49.659
X292.721Y-68.709
X305.421Y-33.149
X305.421Y-52.199
X305.421Y-71.249
X311.771Y-30.609
X311.771Y-49.659
X311.771Y-68.709
T4
X42.704Y-35.692
X42.704Y-54.742
X42.704Y-73.792
X61.754Y-35.692
X61.754Y-54.742
X61.754Y-73.792
X80.804Y-30.929
X80.804Y-49.98
X80.804Y-69.03
X99.854Y-28.548
X99.854Y-47.599
X99.854Y-66.649
X109.379Y-90.461
X118.904Y-30.929
X118.904Y-49.98
X118.904Y-69.03
X130.164Y-92.657
X137.954Y-33.31
X137.954Y-52.361
X137.954Y-71.411
X150.025Y-99.075
X157.004Y-33.31
X157.004Y-52.361
X194.931Y-33.308
X194.931Y-52.358
X201.89Y-99.102
X213.981Y-33.308
X213.981Y-52.358
X213.981Y-71.408
X221.771Y-92.654
X233.031Y-30.926
X233.031Y-69.026
X233.031Y-49.976
X242.556Y-90.458
X252.081Y-28.545
X252.081Y-47.595
X252.081Y-66.645
X271.131Y-30.926
X271.131Y-49.976
X271.131Y-69.026
X290.181Y-35.689
X290.181Y-54.739
X290.181Y-73.789
X309.231Y-35.689
X309.231Y-54.739
X309.231Y-73.789
M30
