%TF.GenerationSoftware,KiCad,Pcbnew,9.0.0*%
%TF.CreationDate,2025-03-23T14:50:22-06:00*%
%TF.ProjectId,travyboard,74726176-7962-46f6-9172-642e6b696361,rev?*%
%TF.SameCoordinates,Original*%
%TF.FileFunction,Soldermask,Top*%
%TF.FilePolarity,Negative*%
%FSLAX46Y46*%
G04 Gerber Fmt 4.6, Leading zero omitted, Abs format (unit mm)*
G04 Created by KiCad (PCBNEW 9.0.0) date 2025-03-23 14:50:22*
%MOMM*%
%LPD*%
G01*
G04 APERTURE LIST*
%ADD10C,1.900000*%
%ADD11C,3.000000*%
%ADD12C,4.100000*%
%ADD13C,0.500000*%
%ADD14O,1.200000X2.000000*%
%ADD15O,2.000000X1.200000*%
%ADD16O,2.504000X1.354000*%
G04 APERTURE END LIST*
D10*
%TO.C,SW32*%
X285100794Y-54738831D03*
D11*
X286370794Y-52198831D03*
D12*
X290180794Y-54738831D03*
D11*
X292720794Y-49658831D03*
D10*
X295260794Y-54738831D03*
%TD*%
%TO.C,SW28*%
X208900730Y-52357831D03*
D11*
X210170730Y-49817831D03*
D12*
X213980730Y-52357831D03*
D11*
X216520730Y-47277831D03*
D10*
X219060730Y-52357831D03*
%TD*%
%TO.C,SW26*%
X285100794Y-35688815D03*
D11*
X286370794Y-33148815D03*
D12*
X290180794Y-35688815D03*
D11*
X292720794Y-30608815D03*
D10*
X295260794Y-35688815D03*
%TD*%
%TO.C,SW40*%
X237475778Y-90457847D03*
D11*
X238745778Y-87917847D03*
D12*
X242555778Y-90457847D03*
D11*
X245095778Y-85377847D03*
D10*
X247635778Y-90457847D03*
%TD*%
%TO.C,SW38*%
X285100794Y-73788847D03*
D11*
X286370794Y-71248847D03*
D12*
X290180794Y-73788847D03*
D11*
X292720794Y-68708847D03*
D10*
X295260794Y-73788847D03*
%TD*%
%TO.C,SW29*%
X227950762Y-49975831D03*
D11*
X229220762Y-47435831D03*
D12*
X233030762Y-49975831D03*
D11*
X235570762Y-44895831D03*
D10*
X238110762Y-49975831D03*
%TD*%
%TO.C,SW30*%
X247000762Y-47594831D03*
D11*
X248270762Y-45054831D03*
D12*
X252080762Y-47594831D03*
D11*
X254620762Y-42514831D03*
D10*
X257160762Y-47594831D03*
%TD*%
%TO.C,SW39*%
X304150810Y-73788847D03*
D11*
X305420810Y-71248847D03*
D12*
X309230810Y-73788847D03*
D11*
X311770810Y-68708847D03*
D10*
X314310810Y-73788847D03*
%TD*%
%TO.C,SW42*%
X197244864Y-101158893D03*
D11*
X197377897Y-98322204D03*
D12*
X201889992Y-99102395D03*
D11*
X202156058Y-93429018D03*
D10*
X206535120Y-97045897D03*
%TD*%
%TO.C,SW37*%
X266050778Y-69025847D03*
D11*
X267320778Y-66485847D03*
D12*
X271130778Y-69025847D03*
D11*
X273670778Y-63945847D03*
D10*
X276210778Y-69025847D03*
%TD*%
%TO.C,SW31*%
X266050778Y-49975831D03*
D11*
X267320778Y-47435831D03*
D12*
X271130778Y-49975831D03*
D11*
X273670778Y-44895831D03*
D10*
X276210778Y-49975831D03*
%TD*%
%TO.C,SW35*%
X227950746Y-69025847D03*
D11*
X229220746Y-66485847D03*
D12*
X233030746Y-69025847D03*
D11*
X235570746Y-63945847D03*
D10*
X238110746Y-69025847D03*
%TD*%
%TO.C,SW34*%
X208900730Y-71407847D03*
D11*
X210170730Y-68867847D03*
D12*
X213980730Y-71407847D03*
D11*
X216520730Y-66327847D03*
D10*
X219060730Y-71407847D03*
%TD*%
%TO.C,SW25*%
X266050778Y-30925815D03*
D11*
X267320778Y-28385815D03*
D12*
X271130778Y-30925815D03*
D11*
X273670778Y-25845815D03*
D10*
X276210778Y-30925815D03*
%TD*%
%TO.C,SW41*%
X216800791Y-93704798D03*
D11*
X217517821Y-90957005D03*
D12*
X221770884Y-92653811D03*
D11*
X223204943Y-87158224D03*
D10*
X226740977Y-91602824D03*
%TD*%
%TO.C,SW49*%
X189850730Y-33307815D03*
D11*
X191120730Y-30767815D03*
D12*
X194930730Y-33307815D03*
D11*
X197470730Y-28227815D03*
D10*
X200010730Y-33307815D03*
%TD*%
%TO.C,SW33*%
X304150810Y-54738831D03*
D11*
X305420810Y-52198831D03*
D12*
X309230810Y-54738831D03*
D11*
X311770810Y-49658831D03*
D10*
X314310810Y-54738831D03*
%TD*%
%TO.C,SW50*%
X189850730Y-52357831D03*
D11*
X191120730Y-49817831D03*
D12*
X194930730Y-52357831D03*
D11*
X197470730Y-47277831D03*
D10*
X200010730Y-52357831D03*
%TD*%
%TO.C,SW24*%
X247000762Y-28544815D03*
D11*
X248270762Y-26004815D03*
D12*
X252080762Y-28544815D03*
D11*
X254620762Y-23464815D03*
D10*
X257160762Y-28544815D03*
%TD*%
%TO.C,SW23*%
X227950746Y-30925815D03*
D11*
X229220746Y-28385815D03*
D12*
X233030746Y-30925815D03*
D11*
X235570746Y-25845815D03*
D10*
X238110746Y-30925815D03*
%TD*%
%TO.C,SW36*%
X247000762Y-66644847D03*
D11*
X248270762Y-64104847D03*
D12*
X252080762Y-66644847D03*
D11*
X254620762Y-61564847D03*
D10*
X257160762Y-66644847D03*
%TD*%
%TO.C,SW22*%
X208900730Y-33307815D03*
D11*
X210170730Y-30767815D03*
D12*
X213980730Y-33307815D03*
D11*
X216520730Y-28227815D03*
D10*
X219060730Y-33307815D03*
%TD*%
%TO.C,SW27*%
X304150810Y-35688815D03*
D11*
X305420810Y-33148815D03*
D12*
X309230810Y-35688815D03*
D11*
X311770810Y-30608815D03*
D10*
X314310810Y-35688815D03*
%TD*%
%TO.C,SW17*%
X113823766Y-69029601D03*
D11*
X115093766Y-66489601D03*
D12*
X118903766Y-69029601D03*
D11*
X121443766Y-63949601D03*
D10*
X123983766Y-69029601D03*
%TD*%
%TO.C,SW1*%
X37623734Y-35692073D03*
D11*
X38893734Y-33152073D03*
D12*
X42703734Y-35692073D03*
D11*
X45243734Y-30612073D03*
D10*
X47783734Y-35692073D03*
%TD*%
%TO.C,SW2*%
X56673750Y-35692073D03*
D11*
X57943750Y-33152073D03*
D12*
X61753750Y-35692073D03*
D11*
X64293750Y-30612073D03*
D10*
X66833750Y-35692073D03*
%TD*%
%TO.C,SW13*%
X37623734Y-73792105D03*
D11*
X38893734Y-71252105D03*
D12*
X42703734Y-73792105D03*
D11*
X45243734Y-68712105D03*
D10*
X47783734Y-73792105D03*
%TD*%
%TO.C,SW15*%
X75723766Y-69029601D03*
D11*
X76993766Y-66489601D03*
D12*
X80803766Y-69029601D03*
D11*
X83343766Y-63949601D03*
D10*
X85883766Y-69029601D03*
%TD*%
%TO.C,SW46*%
X151923766Y-52360585D03*
D11*
X153193766Y-49820585D03*
D12*
X157003766Y-52360585D03*
D11*
X159543766Y-47280585D03*
D10*
X162083766Y-52360585D03*
%TD*%
%TO.C,SW19*%
X104298790Y-90460869D03*
D11*
X105568790Y-87920869D03*
D12*
X109378790Y-90460869D03*
D11*
X111918790Y-85380869D03*
D10*
X114458790Y-90460869D03*
%TD*%
%TO.C,SW4*%
X94773750Y-28548073D03*
D11*
X96043750Y-26008073D03*
D12*
X99853750Y-28548073D03*
D11*
X102393750Y-23468073D03*
D10*
X104933750Y-28548073D03*
%TD*%
%TO.C,SW6*%
X132873750Y-33310073D03*
D11*
X134143750Y-30770073D03*
D12*
X137953750Y-33310073D03*
D11*
X140493750Y-28230073D03*
D10*
X143033750Y-33310073D03*
%TD*%
%TO.C,SW5*%
X113823750Y-30929073D03*
D11*
X115093750Y-28389073D03*
D12*
X118903750Y-30929073D03*
D11*
X121443750Y-25849073D03*
D10*
X123983750Y-30929073D03*
%TD*%
%TO.C,SW9*%
X75723766Y-49979585D03*
D11*
X76993766Y-47439585D03*
D12*
X80803766Y-49979585D03*
D11*
X83343766Y-44899585D03*
D10*
X85883766Y-49979585D03*
%TD*%
%TO.C,SW16*%
X94773766Y-66648601D03*
D11*
X96043766Y-64108601D03*
D12*
X99853766Y-66648601D03*
D11*
X102393766Y-61568601D03*
D10*
X104933766Y-66648601D03*
%TD*%
%TO.C,SW7*%
X37623734Y-54742089D03*
D11*
X38893734Y-52202089D03*
D12*
X42703734Y-54742089D03*
D11*
X45243734Y-49662089D03*
D10*
X47783734Y-54742089D03*
%TD*%
%TO.C,SW12*%
X132873766Y-52360585D03*
D11*
X134143766Y-49820585D03*
D12*
X137953766Y-52360585D03*
D11*
X140493766Y-47280585D03*
D10*
X143033766Y-52360585D03*
%TD*%
%TO.C,SW21*%
X145380237Y-97019022D03*
D11*
X147569736Y-95210544D03*
D12*
X150025401Y-99075439D03*
D11*
X154404400Y-95458483D03*
D10*
X154670565Y-101131856D03*
%TD*%
%TO.C,SW14*%
X56673750Y-73792105D03*
D11*
X57943750Y-71252105D03*
D12*
X61753750Y-73792105D03*
D11*
X64293750Y-68712105D03*
D10*
X66833750Y-73792105D03*
%TD*%
%TO.C,SW11*%
X113823766Y-49979585D03*
D11*
X115093766Y-47439585D03*
D12*
X118903766Y-49979585D03*
D11*
X121443766Y-44899585D03*
D10*
X123983766Y-49979585D03*
%TD*%
%TO.C,SW18*%
X132873766Y-71410601D03*
D11*
X134143766Y-68870601D03*
D12*
X137953766Y-71410601D03*
D11*
X140493766Y-66330601D03*
D10*
X143033766Y-71410601D03*
%TD*%
%TO.C,SW10*%
X94773766Y-47598585D03*
D11*
X96043766Y-45058585D03*
D12*
X99853766Y-47598585D03*
D11*
X102393766Y-42518585D03*
D10*
X104933766Y-47598585D03*
%TD*%
%TO.C,SW45*%
X151923750Y-33310073D03*
D11*
X153193750Y-30770073D03*
D12*
X157003750Y-33310073D03*
D11*
X159543750Y-28230073D03*
D10*
X162083750Y-33310073D03*
%TD*%
%TO.C,SW3*%
X75723750Y-30929073D03*
D11*
X76993750Y-28389073D03*
D12*
X80803750Y-30929073D03*
D11*
X83343750Y-25849073D03*
D10*
X85883750Y-30929073D03*
%TD*%
%TO.C,SW8*%
X56673750Y-54742089D03*
D11*
X57943750Y-52202089D03*
D12*
X61753750Y-54742089D03*
D11*
X64293750Y-49662089D03*
D10*
X66833750Y-54742089D03*
%TD*%
%TO.C,SW20*%
X125193573Y-91605932D03*
D11*
X126961551Y-89383602D03*
D12*
X130163684Y-92656833D03*
D11*
X133699640Y-88212172D03*
D10*
X135133795Y-93707734D03*
%TD*%
D13*
%TO.C,mouse-bite-5mm-10mm*%
X77864297Y-21194705D03*
X78614297Y-21194705D03*
X79364297Y-21194705D03*
X80104297Y-21194705D03*
X80864297Y-21194705D03*
X81614297Y-21194705D03*
X82374297Y-21194705D03*
X83104297Y-21194705D03*
X83864297Y-21194705D03*
%TD*%
%TO.C,mouse-bite-5mm-10mm*%
X157040793Y-23575953D03*
X157790793Y-23575953D03*
X158540793Y-23575953D03*
X159280793Y-23575953D03*
X160040793Y-23575953D03*
X160790793Y-23575953D03*
X161550793Y-23575953D03*
X162280793Y-23575953D03*
X163040793Y-23575953D03*
%TD*%
%TO.C,mouse-bite-5mm-10mm*%
X188889985Y-23575953D03*
X189639985Y-23575953D03*
X190389985Y-23575953D03*
X191129985Y-23575953D03*
X191889985Y-23575953D03*
X192639985Y-23575953D03*
X193399985Y-23575953D03*
X194129985Y-23575953D03*
X194889985Y-23575953D03*
%TD*%
%TO.C,mouse-bite-5mm-10mm*%
X268066481Y-21194705D03*
X268816481Y-21194705D03*
X269566481Y-21194705D03*
X270306481Y-21194705D03*
X271066481Y-21194705D03*
X271816481Y-21194705D03*
X272576481Y-21194705D03*
X273306481Y-21194705D03*
X274066481Y-21194705D03*
%TD*%
%TO.C,mouse-bite-5mm-10mm*%
X295748489Y-83527305D03*
X296498489Y-83527305D03*
X297238489Y-83517305D03*
X297998489Y-83527305D03*
X298758489Y-83527305D03*
X299498489Y-83527305D03*
X300248489Y-83517305D03*
X300998489Y-83527305D03*
X301748489Y-83527305D03*
%TD*%
%TO.C,mouse-bite-5mm-10mm*%
X50121686Y-83526929D03*
X50871686Y-83526929D03*
X51611686Y-83516929D03*
X52371686Y-83526929D03*
X53131686Y-83526929D03*
X53871686Y-83526929D03*
X54621686Y-83516929D03*
X55371686Y-83526929D03*
X56121686Y-83526929D03*
%TD*%
D14*
%TO.C,U2*%
X181982633Y-64337830D03*
X184522633Y-64337830D03*
X187062633Y-64337830D03*
X189602633Y-64337830D03*
X187062633Y-79577830D03*
X192142633Y-64337830D03*
X194682633Y-64337830D03*
X181982633Y-79577830D03*
X197222633Y-64337830D03*
X199762633Y-64337830D03*
X202302633Y-64337830D03*
D15*
X202302633Y-66877830D03*
X202302633Y-69417830D03*
X202302633Y-71957830D03*
X202302633Y-74497830D03*
X202302633Y-77037830D03*
D14*
X202302633Y-79577830D03*
X199762633Y-79577830D03*
X197222633Y-79577830D03*
X194682633Y-79577830D03*
X192142633Y-79577830D03*
X189602633Y-79577830D03*
X184522633Y-79577830D03*
%TD*%
%TO.C,U1*%
X169966490Y-79548026D03*
X167426490Y-79548026D03*
X164886490Y-79548026D03*
X162346490Y-79548026D03*
X164886490Y-64308026D03*
X159806490Y-79548026D03*
X157266490Y-79548026D03*
X169966490Y-64308026D03*
X154726490Y-79548026D03*
X152186490Y-79548026D03*
X149646490Y-79548026D03*
D15*
X149646490Y-77008026D03*
X149646490Y-74468026D03*
X149646490Y-71928026D03*
X149646490Y-69388026D03*
X149646490Y-66848026D03*
D14*
X149646490Y-64308026D03*
X152186490Y-64308026D03*
X154726490Y-64308026D03*
X157266490Y-64308026D03*
X159806490Y-64308026D03*
X162346490Y-64308026D03*
X167426490Y-64308026D03*
%TD*%
D16*
%TO.C,J1*%
X169588734Y-75921823D03*
X166338734Y-68321823D03*
X169588734Y-68321823D03*
%TD*%
%TO.C,J2*%
X182518710Y-68322298D03*
X185768710Y-75922298D03*
X182518710Y-75922298D03*
%TD*%
M02*
