%TF.GenerationSoftware,KiCad,Pcbnew,9.0.0*%
%TF.CreationDate,2025-03-23T14:50:22-06:00*%
%TF.ProjectId,travyboard,74726176-7962-46f6-9172-642e6b696361,rev?*%
%TF.SameCoordinates,Original*%
%TF.FileFunction,Profile,NP*%
%FSLAX46Y46*%
G04 Gerber Fmt 4.6, Leading zero omitted, Abs format (unit mm)*
G04 Created by KiCad (PCBNEW 9.0.0) date 2025-03-23 14:50:22*
%MOMM*%
%LPD*%
G01*
G04 APERTURE LIST*
%TA.AperFunction,Profile*%
%ADD10C,0.050000*%
%TD*%
G04 APERTURE END LIST*
D10*
X318691441Y-26167105D02*
X318691441Y-83317105D01*
X58120750Y-88316752D02*
X97235377Y-88316753D01*
X90389337Y-76173355D02*
X99914337Y-76173355D01*
X172099337Y-75271855D02*
X172099337Y-81927855D01*
X266066481Y-16404801D02*
G75*
G02*
X266066481Y-21404599I19J-2499899D01*
G01*
X90389337Y-78554605D02*
X90389337Y-76173355D01*
X252016441Y-76173355D02*
X252016441Y-99985855D01*
X155034915Y-111601583D02*
X168122588Y-81927855D01*
X196895863Y-111601583D02*
X183808190Y-81927855D01*
X303755579Y-83317057D02*
X318691441Y-83317105D01*
X33239337Y-26167105D02*
X71339337Y-26167105D01*
X261541441Y-21404605D02*
X261541441Y-19023355D01*
X232966441Y-99985855D02*
X214325845Y-103914045D01*
X179831441Y-68971855D02*
X192581441Y-68971855D01*
X99914337Y-99985855D02*
X118964337Y-99985855D01*
X33239337Y-88316753D02*
X33239337Y-118440465D01*
X71339337Y-26167105D02*
X71339337Y-21404605D01*
X179831441Y-61885855D02*
X179831441Y-68971855D01*
X318691441Y-118440465D02*
X33239337Y-118440465D01*
X276066481Y-21404609D02*
X280591441Y-21404605D01*
X166589337Y-23785855D02*
X166589337Y-61885855D01*
X99914337Y-76173355D02*
X99914337Y-99985855D01*
X293748489Y-83317057D02*
G75*
G02*
X293748489Y-88317543I11J-2500243D01*
G01*
X179831441Y-75271855D02*
X179831441Y-81927855D01*
X196889985Y-18786144D02*
X238919633Y-18786071D01*
X113011145Y-18786049D02*
X113011145Y-16404801D01*
X165040793Y-23785857D02*
G75*
G02*
X165040793Y-18786043I-3J2499907D01*
G01*
X185341441Y-23785855D02*
X186889985Y-23785950D01*
X242491441Y-19023355D02*
X242491441Y-21404605D01*
X48121690Y-83317105D02*
X33239337Y-83317105D01*
X159349337Y-68971855D02*
X159349337Y-75271855D01*
X166589337Y-23785855D02*
X165040793Y-23785856D01*
X155040790Y-18786049D02*
X113011145Y-18786049D01*
X252016441Y-99985855D02*
X232966441Y-99985855D01*
X71339337Y-78554605D02*
X90389337Y-78554605D01*
X261541441Y-78554605D02*
X261541441Y-76173355D01*
X75864297Y-16404801D02*
G75*
G02*
X75864297Y-21404599I3J-2499899D01*
G01*
X172099337Y-68971855D02*
X159349337Y-68971855D01*
X155040793Y-18786049D02*
G75*
G02*
X155040793Y-23785851I-3J-2499901D01*
G01*
X192581441Y-75271855D02*
X179831441Y-75271855D01*
X75864297Y-16404802D02*
X33239337Y-16404801D01*
X186889985Y-18786050D02*
X165046267Y-18786049D01*
X261541441Y-76173355D02*
X252016441Y-76173355D01*
X196889985Y-23785857D02*
G75*
G02*
X196889985Y-18786143I15J2499857D01*
G01*
X118964337Y-99985855D02*
X137604933Y-103914045D01*
X33239337Y-12177273D02*
X318691441Y-12474929D01*
X172099337Y-61885855D02*
X166589337Y-61885855D01*
X261541441Y-21404605D02*
X266066481Y-21404609D01*
X293748489Y-83316882D02*
X280591441Y-83317057D01*
X109439337Y-19023355D02*
X109439337Y-21404605D01*
X214325845Y-103914045D02*
X196895863Y-111601583D01*
X254695401Y-88316705D02*
X254695401Y-113082657D01*
X303748489Y-88317553D02*
G75*
G02*
X303748489Y-83317047I11J2500253D01*
G01*
X97235377Y-88316753D02*
X97235377Y-113082698D01*
X58120750Y-88316753D02*
G75*
G02*
X58122622Y-83317107I940J2499823D01*
G01*
X85864297Y-21404609D02*
G75*
G02*
X85864297Y-16404791I3J2499909D01*
G01*
X318691441Y-26167105D02*
X280591441Y-26167105D01*
X303748500Y-88317553D02*
X318691441Y-88316705D01*
X109439337Y-21404605D02*
X128489337Y-21404605D01*
X179831441Y-81927855D02*
X183808190Y-81927855D01*
X58122622Y-83317108D02*
X71339337Y-83317105D01*
X97235377Y-113082698D02*
X254695401Y-113082657D01*
X280591441Y-78554605D02*
X261541441Y-78554605D01*
X196890000Y-23785857D02*
X223441441Y-23785855D01*
X172099337Y-81927855D02*
X168122588Y-81927855D01*
X48122137Y-83317105D02*
G75*
G02*
X48122133Y-88316755I-447J-2499825D01*
G01*
X276059430Y-16404801D02*
X318691441Y-16404801D01*
X90389337Y-21404605D02*
X85864300Y-21404609D01*
X293748489Y-88317553D02*
X254695401Y-88316705D01*
X90389337Y-19023355D02*
X109439337Y-19023355D01*
X192581441Y-68971855D02*
X192581441Y-75271855D01*
X71339337Y-83317105D02*
X71339337Y-78554605D01*
X223441441Y-21404605D02*
X223441441Y-23785855D01*
X318691441Y-12474929D02*
X318691441Y-16404801D01*
X90389337Y-21404605D02*
X90389337Y-19023355D01*
X242491441Y-21404605D02*
X223441441Y-21404605D01*
X75864297Y-21404609D02*
X71339337Y-21404609D01*
X159349337Y-75271855D02*
X172099337Y-75271855D01*
X276066481Y-21404609D02*
G75*
G02*
X276066481Y-16404791I19J2499909D01*
G01*
X48121686Y-88316929D02*
X33239337Y-88316753D01*
X128489337Y-21404605D02*
X128489337Y-23785855D01*
X155040793Y-23785862D02*
X128489257Y-23785857D01*
X179831441Y-61885855D02*
X185341441Y-61885855D01*
X238919633Y-18786071D02*
X238919633Y-16404801D01*
X172099337Y-61885855D02*
X172099337Y-68971855D01*
X185341441Y-23785855D02*
X185341441Y-61885855D01*
X266066481Y-16404802D02*
X238919633Y-16404801D01*
X186889985Y-18786049D02*
G75*
G02*
X186889985Y-23785951I15J-2499951D01*
G01*
X280591441Y-83317105D02*
X280591441Y-78554605D01*
X33239337Y-26167105D02*
X33239337Y-83317105D01*
X85857230Y-16404801D02*
X113011145Y-16404801D01*
X280591441Y-26167105D02*
X280591441Y-21404605D01*
X137604933Y-103914045D02*
X155034915Y-111601583D01*
X33239337Y-16404801D02*
X33239337Y-12177273D01*
X261541441Y-19023355D02*
X242491441Y-19023355D01*
X318691441Y-88316705D02*
X318691441Y-118440465D01*
M02*
