%TF.GenerationSoftware,KiCad,Pcbnew,9.0.0*%
%TF.CreationDate,2025-03-23T14:50:22-06:00*%
%TF.ProjectId,travyboard,74726176-7962-46f6-9172-642e6b696361,rev?*%
%TF.SameCoordinates,Original*%
%TF.FileFunction,Soldermask,Bot*%
%TF.FilePolarity,Negative*%
%FSLAX46Y46*%
G04 Gerber Fmt 4.6, Leading zero omitted, Abs format (unit mm)*
G04 Created by KiCad (PCBNEW 9.0.0) date 2025-03-23 14:50:22*
%MOMM*%
%LPD*%
G01*
G04 APERTURE LIST*
G04 Aperture macros list*
%AMRoundRect*
0 Rectangle with rounded corners*
0 $1 Rounding radius*
0 $2 $3 $4 $5 $6 $7 $8 $9 X,Y pos of 4 corners*
0 Add a 4 corners polygon primitive as box body*
4,1,4,$2,$3,$4,$5,$6,$7,$8,$9,$2,$3,0*
0 Add four circle primitives for the rounded corners*
1,1,$1+$1,$2,$3*
1,1,$1+$1,$4,$5*
1,1,$1+$1,$6,$7*
1,1,$1+$1,$8,$9*
0 Add four rect primitives between the rounded corners*
20,1,$1+$1,$2,$3,$4,$5,0*
20,1,$1+$1,$4,$5,$6,$7,0*
20,1,$1+$1,$6,$7,$8,$9,0*
20,1,$1+$1,$8,$9,$2,$3,0*%
%AMRotRect*
0 Rectangle, with rotation*
0 The origin of the aperture is its center*
0 $1 length*
0 $2 width*
0 $3 Rotation angle, in degrees counterclockwise*
0 Add horizontal line*
21,1,$1,$2,0,0,$3*%
G04 Aperture macros list end*
%ADD10C,1.900000*%
%ADD11C,3.000000*%
%ADD12C,4.100000*%
%ADD13R,2.550000X2.500000*%
%ADD14RotRect,2.550000X2.500000X203.880000*%
%ADD15RotRect,2.550000X2.500000X191.940000*%
%ADD16RotRect,2.550000X2.500000X156.121000*%
%ADD17RotRect,2.550000X2.500000X168.061000*%
%ADD18C,0.500000*%
%ADD19O,1.200000X2.000000*%
%ADD20O,2.000000X1.200000*%
%ADD21RoundRect,0.225000X-0.375000X0.225000X-0.375000X-0.225000X0.375000X-0.225000X0.375000X0.225000X0*%
%ADD22RoundRect,0.225000X-0.413436X0.142549X-0.320337X-0.297715X0.413436X-0.142549X0.320337X0.297715X0*%
%ADD23R,1.500000X0.900000*%
%ADD24O,2.300000X1.150000*%
%ADD25R,1.700000X1.000000*%
%ADD26RoundRect,0.225000X-0.251813X0.357547X-0.433983X-0.053931X0.251813X-0.357547X0.433983X0.053931X0*%
%ADD27RotRect,1.500000X0.900000X156.120000*%
%ADD28RoundRect,0.225000X-0.320337X0.297715X-0.413436X-0.142549X0.320337X-0.297715X0.413436X0.142549X0*%
%ADD29RotRect,1.500000X0.900000X203.880000*%
%ADD30RotRect,1.500000X0.900000X191.940000*%
%ADD31RotRect,1.500000X0.900000X168.060000*%
%ADD32RoundRect,0.225000X-0.433983X0.053931X-0.251813X-0.357547X0.433983X-0.053931X0.251813X0.357547X0*%
G04 APERTURE END LIST*
D10*
%TO.C,SW32*%
X285100794Y-54738831D03*
D11*
X286370794Y-52198831D03*
D12*
X290180794Y-54738831D03*
D11*
X292720794Y-49658831D03*
D10*
X295260794Y-54738831D03*
D13*
X283095794Y-52198831D03*
X296022794Y-49658831D03*
%TD*%
D10*
%TO.C,SW28*%
X208900730Y-52357831D03*
D11*
X210170730Y-49817831D03*
D12*
X213980730Y-52357831D03*
D11*
X216520730Y-47277831D03*
D10*
X219060730Y-52357831D03*
D13*
X206895730Y-49817831D03*
X219822730Y-47277831D03*
%TD*%
D10*
%TO.C,SW26*%
X285100794Y-35688815D03*
D11*
X286370794Y-33148815D03*
D12*
X290180794Y-35688815D03*
D11*
X292720794Y-30608815D03*
D10*
X295260794Y-35688815D03*
D13*
X283095794Y-33148815D03*
X296022794Y-30608815D03*
%TD*%
D10*
%TO.C,SW40*%
X237475778Y-90457847D03*
D11*
X238745778Y-87917847D03*
D12*
X242555778Y-90457847D03*
D11*
X245095778Y-85377847D03*
D10*
X247635778Y-90457847D03*
D13*
X235470778Y-87917847D03*
X248397778Y-85377847D03*
%TD*%
D10*
%TO.C,SW38*%
X285100794Y-73788847D03*
D11*
X286370794Y-71248847D03*
D12*
X290180794Y-73788847D03*
D11*
X292720794Y-68708847D03*
D10*
X295260794Y-73788847D03*
D13*
X283095794Y-71248847D03*
X296022794Y-68708847D03*
%TD*%
D10*
%TO.C,SW29*%
X227950762Y-49975831D03*
D11*
X229220762Y-47435831D03*
D12*
X233030762Y-49975831D03*
D11*
X235570762Y-44895831D03*
D10*
X238110762Y-49975831D03*
D13*
X225945762Y-47435831D03*
X238872762Y-44895831D03*
%TD*%
D10*
%TO.C,SW30*%
X247000762Y-47594831D03*
D11*
X248270762Y-45054831D03*
D12*
X252080762Y-47594831D03*
D11*
X254620762Y-42514831D03*
D10*
X257160762Y-47594831D03*
D13*
X244995762Y-45054831D03*
X257922762Y-42514831D03*
%TD*%
D10*
%TO.C,SW39*%
X304150810Y-73788847D03*
D11*
X305420810Y-71248847D03*
D12*
X309230810Y-73788847D03*
D11*
X311770810Y-68708847D03*
D10*
X314310810Y-73788847D03*
D13*
X302145810Y-71248847D03*
X315072810Y-68708847D03*
%TD*%
D10*
%TO.C,SW42*%
X197244864Y-101158893D03*
D11*
X197377897Y-98322204D03*
D12*
X201889992Y-99102395D03*
D11*
X202156058Y-93429018D03*
D10*
X206535120Y-97045897D03*
D14*
X194383252Y-99647998D03*
X205175392Y-92092294D03*
%TD*%
D10*
%TO.C,SW37*%
X266050778Y-69025847D03*
D11*
X267320778Y-66485847D03*
D12*
X271130778Y-69025847D03*
D11*
X273670778Y-63945847D03*
D10*
X276210778Y-69025847D03*
D13*
X264045778Y-66485847D03*
X276972778Y-63945847D03*
%TD*%
D10*
%TO.C,SW31*%
X266050778Y-49975831D03*
D11*
X267320778Y-47435831D03*
D12*
X271130778Y-49975831D03*
D11*
X273670778Y-44895831D03*
D10*
X276210778Y-49975831D03*
D13*
X264045778Y-47435831D03*
X276972778Y-44895831D03*
%TD*%
D10*
%TO.C,SW35*%
X227950746Y-69025847D03*
D11*
X229220746Y-66485847D03*
D12*
X233030746Y-69025847D03*
D11*
X235570746Y-63945847D03*
D10*
X238110746Y-69025847D03*
D13*
X225945746Y-66485847D03*
X238872746Y-63945847D03*
%TD*%
D10*
%TO.C,SW34*%
X208900730Y-71407847D03*
D11*
X210170730Y-68867847D03*
D12*
X213980730Y-71407847D03*
D11*
X216520730Y-66327847D03*
D10*
X219060730Y-71407847D03*
D13*
X206895730Y-68867847D03*
X219822730Y-66327847D03*
%TD*%
D10*
%TO.C,SW25*%
X266050778Y-30925815D03*
D11*
X267320778Y-28385815D03*
D12*
X271130778Y-30925815D03*
D11*
X273670778Y-25845815D03*
D10*
X276210778Y-30925815D03*
D13*
X264045778Y-28385815D03*
X276972778Y-25845815D03*
%TD*%
D10*
%TO.C,SW41*%
X216800791Y-93704798D03*
D11*
X217517821Y-90957005D03*
D12*
X221770884Y-92653811D03*
D11*
X223204943Y-87158224D03*
D10*
X226740977Y-91602824D03*
D15*
X214313676Y-91634561D03*
X226435504Y-86475082D03*
%TD*%
D10*
%TO.C,SW49*%
X189850730Y-33307815D03*
D11*
X191120730Y-30767815D03*
D12*
X194930730Y-33307815D03*
D11*
X197470730Y-28227815D03*
D10*
X200010730Y-33307815D03*
D13*
X187845730Y-30767815D03*
X200772730Y-28227815D03*
%TD*%
D10*
%TO.C,SW33*%
X304150810Y-54738831D03*
D11*
X305420810Y-52198831D03*
D12*
X309230810Y-54738831D03*
D11*
X311770810Y-49658831D03*
D10*
X314310810Y-54738831D03*
D13*
X302145810Y-52198831D03*
X315072810Y-49658831D03*
%TD*%
D10*
%TO.C,SW50*%
X189850730Y-52357831D03*
D11*
X191120730Y-49817831D03*
D12*
X194930730Y-52357831D03*
D11*
X197470730Y-47277831D03*
D10*
X200010730Y-52357831D03*
D13*
X187845730Y-49817831D03*
X200772730Y-47277831D03*
%TD*%
D10*
%TO.C,SW24*%
X247000762Y-28544815D03*
D11*
X248270762Y-26004815D03*
D12*
X252080762Y-28544815D03*
D11*
X254620762Y-23464815D03*
D10*
X257160762Y-28544815D03*
D13*
X244995762Y-26004815D03*
X257922762Y-23464815D03*
%TD*%
D10*
%TO.C,SW23*%
X227950746Y-30925815D03*
D11*
X229220746Y-28385815D03*
D12*
X233030746Y-30925815D03*
D11*
X235570746Y-25845815D03*
D10*
X238110746Y-30925815D03*
D13*
X225945746Y-28385815D03*
X238872746Y-25845815D03*
%TD*%
D10*
%TO.C,SW36*%
X247000762Y-66644847D03*
D11*
X248270762Y-64104847D03*
D12*
X252080762Y-66644847D03*
D11*
X254620762Y-61564847D03*
D10*
X257160762Y-66644847D03*
D13*
X244995762Y-64104847D03*
X257922762Y-61564847D03*
%TD*%
D10*
%TO.C,SW22*%
X208900730Y-33307815D03*
D11*
X210170730Y-30767815D03*
D12*
X213980730Y-33307815D03*
D11*
X216520730Y-28227815D03*
D10*
X219060730Y-33307815D03*
D13*
X206895730Y-30767815D03*
X219822730Y-28227815D03*
%TD*%
D10*
%TO.C,SW27*%
X304150810Y-35688815D03*
D11*
X305420810Y-33148815D03*
D12*
X309230810Y-35688815D03*
D11*
X311770810Y-30608815D03*
D10*
X314310810Y-35688815D03*
D13*
X302145810Y-33148815D03*
X315072810Y-30608815D03*
%TD*%
D10*
%TO.C,SW17*%
X113823766Y-69029601D03*
D11*
X115093766Y-66489601D03*
D12*
X118903766Y-69029601D03*
D11*
X121443766Y-63949601D03*
D10*
X123983766Y-69029601D03*
D13*
X111818766Y-66489601D03*
X124745766Y-63949601D03*
%TD*%
D10*
%TO.C,SW1*%
X37623734Y-35692073D03*
D11*
X38893734Y-33152073D03*
D12*
X42703734Y-35692073D03*
D11*
X45243734Y-30612073D03*
D10*
X47783734Y-35692073D03*
D13*
X35618734Y-33152073D03*
X48545734Y-30612073D03*
%TD*%
D10*
%TO.C,SW2*%
X56673750Y-35692073D03*
D11*
X57943750Y-33152073D03*
D12*
X61753750Y-35692073D03*
D11*
X64293750Y-30612073D03*
D10*
X66833750Y-35692073D03*
D13*
X54668750Y-33152073D03*
X67595750Y-30612073D03*
%TD*%
D10*
%TO.C,SW13*%
X37623734Y-73792105D03*
D11*
X38893734Y-71252105D03*
D12*
X42703734Y-73792105D03*
D11*
X45243734Y-68712105D03*
D10*
X47783734Y-73792105D03*
D13*
X35618734Y-71252105D03*
X48545734Y-68712105D03*
%TD*%
D10*
%TO.C,SW15*%
X75723766Y-69029601D03*
D11*
X76993766Y-66489601D03*
D12*
X80803766Y-69029601D03*
D11*
X83343766Y-63949601D03*
D10*
X85883766Y-69029601D03*
D13*
X73718766Y-66489601D03*
X86645766Y-63949601D03*
%TD*%
D10*
%TO.C,SW46*%
X151923766Y-52360585D03*
D11*
X153193766Y-49820585D03*
D12*
X157003766Y-52360585D03*
D11*
X159543766Y-47280585D03*
D10*
X162083766Y-52360585D03*
D13*
X149918766Y-49820585D03*
X162845766Y-47280585D03*
%TD*%
D10*
%TO.C,SW19*%
X104298790Y-90460869D03*
D11*
X105568790Y-87920869D03*
D12*
X109378790Y-90460869D03*
D11*
X111918790Y-85380869D03*
D10*
X114458790Y-90460869D03*
D13*
X102293790Y-87920869D03*
X115220790Y-85380869D03*
%TD*%
D10*
%TO.C,SW4*%
X94773750Y-28548073D03*
D11*
X96043750Y-26008073D03*
D12*
X99853750Y-28548073D03*
D11*
X102393750Y-23468073D03*
D10*
X104933750Y-28548073D03*
D13*
X92768750Y-26008073D03*
X105695750Y-23468073D03*
%TD*%
D10*
%TO.C,SW6*%
X132873750Y-33310073D03*
D11*
X134143750Y-30770073D03*
D12*
X137953750Y-33310073D03*
D11*
X140493750Y-28230073D03*
D10*
X143033750Y-33310073D03*
D13*
X130868750Y-30770073D03*
X143795750Y-28230073D03*
%TD*%
D10*
%TO.C,SW5*%
X113823750Y-30929073D03*
D11*
X115093750Y-28389073D03*
D12*
X118903750Y-30929073D03*
D11*
X121443750Y-25849073D03*
D10*
X123983750Y-30929073D03*
D13*
X111818750Y-28389073D03*
X124745750Y-25849073D03*
%TD*%
D10*
%TO.C,SW9*%
X75723766Y-49979585D03*
D11*
X76993766Y-47439585D03*
D12*
X80803766Y-49979585D03*
D11*
X83343766Y-44899585D03*
D10*
X85883766Y-49979585D03*
D13*
X73718766Y-47439585D03*
X86645766Y-44899585D03*
%TD*%
D10*
%TO.C,SW16*%
X94773766Y-66648601D03*
D11*
X96043766Y-64108601D03*
D12*
X99853766Y-66648601D03*
D11*
X102393766Y-61568601D03*
D10*
X104933766Y-66648601D03*
D13*
X92768766Y-64108601D03*
X105695766Y-61568601D03*
%TD*%
D10*
%TO.C,SW7*%
X37623734Y-54742089D03*
D11*
X38893734Y-52202089D03*
D12*
X42703734Y-54742089D03*
D11*
X45243734Y-49662089D03*
D10*
X47783734Y-54742089D03*
D13*
X35618734Y-52202089D03*
X48545734Y-49662089D03*
%TD*%
D10*
%TO.C,SW12*%
X132873766Y-52360585D03*
D11*
X134143766Y-49820585D03*
D12*
X137953766Y-52360585D03*
D11*
X140493766Y-47280585D03*
D10*
X143033766Y-52360585D03*
D13*
X130868766Y-49820585D03*
X143795766Y-47280585D03*
%TD*%
D10*
%TO.C,SW21*%
X145380237Y-97019022D03*
D11*
X147569736Y-95210544D03*
D12*
X150025401Y-99075439D03*
D11*
X154404400Y-95458483D03*
D10*
X154670565Y-101131856D03*
D16*
X144575069Y-93884803D03*
X157423757Y-96795154D03*
%TD*%
D10*
%TO.C,SW14*%
X56673750Y-73792105D03*
D11*
X57943750Y-71252105D03*
D12*
X61753750Y-73792105D03*
D11*
X64293750Y-68712105D03*
D10*
X66833750Y-73792105D03*
D13*
X54668750Y-71252105D03*
X67595750Y-68712105D03*
%TD*%
D10*
%TO.C,SW11*%
X113823766Y-49979585D03*
D11*
X115093766Y-47439585D03*
D12*
X118903766Y-49979585D03*
D11*
X121443766Y-44899585D03*
D10*
X123983766Y-49979585D03*
D13*
X111818766Y-47439585D03*
X124745766Y-44899585D03*
%TD*%
D10*
%TO.C,SW18*%
X132873766Y-71410601D03*
D11*
X134143766Y-68870601D03*
D12*
X137953766Y-71410601D03*
D11*
X140493766Y-66330601D03*
D10*
X143033766Y-71410601D03*
D13*
X130868766Y-68870601D03*
X143795766Y-66330601D03*
%TD*%
D10*
%TO.C,SW10*%
X94773766Y-47598585D03*
D11*
X96043766Y-45058585D03*
D12*
X99853766Y-47598585D03*
D11*
X102393766Y-42518585D03*
D10*
X104933766Y-47598585D03*
D13*
X92768766Y-45058585D03*
X105695766Y-42518585D03*
%TD*%
D10*
%TO.C,SW45*%
X151923750Y-33310073D03*
D11*
X153193750Y-30770073D03*
D12*
X157003750Y-33310073D03*
D11*
X159543750Y-28230073D03*
D10*
X162083750Y-33310073D03*
D13*
X149918750Y-30770073D03*
X162845750Y-28230073D03*
%TD*%
D10*
%TO.C,SW3*%
X75723750Y-30929073D03*
D11*
X76993750Y-28389073D03*
D12*
X80803750Y-30929073D03*
D11*
X83343750Y-25849073D03*
D10*
X85883750Y-30929073D03*
D13*
X73718750Y-28389073D03*
X86645750Y-25849073D03*
%TD*%
D10*
%TO.C,SW8*%
X56673750Y-54742089D03*
D11*
X57943750Y-52202089D03*
D12*
X61753750Y-54742089D03*
D11*
X64293750Y-49662089D03*
D10*
X66833750Y-54742089D03*
D13*
X54668750Y-52202089D03*
X67595750Y-49662089D03*
%TD*%
D10*
%TO.C,SW20*%
X125193573Y-91605932D03*
D11*
X126961551Y-89383602D03*
D12*
X130163684Y-92656833D03*
D11*
X133699640Y-88212172D03*
D10*
X135133795Y-93707734D03*
D17*
X123757394Y-88706102D03*
X136930213Y-88895257D03*
%TD*%
D18*
%TO.C,mouse-bite-5mm-10mm*%
X77864297Y-21194705D03*
X78614297Y-21194705D03*
X79364297Y-21194705D03*
X80104297Y-21194705D03*
X80864297Y-21194705D03*
X81614297Y-21194705D03*
X82374297Y-21194705D03*
X83104297Y-21194705D03*
X83864297Y-21194705D03*
%TD*%
%TO.C,mouse-bite-5mm-10mm*%
X157040793Y-23575953D03*
X157790793Y-23575953D03*
X158540793Y-23575953D03*
X159280793Y-23575953D03*
X160040793Y-23575953D03*
X160790793Y-23575953D03*
X161550793Y-23575953D03*
X162280793Y-23575953D03*
X163040793Y-23575953D03*
%TD*%
%TO.C,mouse-bite-5mm-10mm*%
X188889985Y-23575953D03*
X189639985Y-23575953D03*
X190389985Y-23575953D03*
X191129985Y-23575953D03*
X191889985Y-23575953D03*
X192639985Y-23575953D03*
X193399985Y-23575953D03*
X194129985Y-23575953D03*
X194889985Y-23575953D03*
%TD*%
%TO.C,mouse-bite-5mm-10mm*%
X268066481Y-21194705D03*
X268816481Y-21194705D03*
X269566481Y-21194705D03*
X270306481Y-21194705D03*
X271066481Y-21194705D03*
X271816481Y-21194705D03*
X272576481Y-21194705D03*
X273306481Y-21194705D03*
X274066481Y-21194705D03*
%TD*%
%TO.C,mouse-bite-5mm-10mm*%
X295748489Y-83527305D03*
X296498489Y-83527305D03*
X297238489Y-83517305D03*
X297998489Y-83527305D03*
X298758489Y-83527305D03*
X299498489Y-83527305D03*
X300248489Y-83517305D03*
X300998489Y-83527305D03*
X301748489Y-83527305D03*
%TD*%
%TO.C,mouse-bite-5mm-10mm*%
X50121686Y-83526929D03*
X50871686Y-83526929D03*
X51611686Y-83516929D03*
X52371686Y-83526929D03*
X53131686Y-83526929D03*
X53871686Y-83526929D03*
X54621686Y-83516929D03*
X55371686Y-83526929D03*
X56121686Y-83526929D03*
%TD*%
D19*
%TO.C,U2*%
X181982633Y-64337830D03*
X184522633Y-64337830D03*
X187062633Y-64337830D03*
X189602633Y-64337830D03*
X187062633Y-79577830D03*
X192142633Y-64337830D03*
X194682633Y-64337830D03*
X181982633Y-79577830D03*
X197222633Y-64337830D03*
X199762633Y-64337830D03*
X202302633Y-64337830D03*
D20*
X202302633Y-66877830D03*
X202302633Y-69417830D03*
X202302633Y-71957830D03*
X202302633Y-74497830D03*
X202302633Y-77037830D03*
D19*
X202302633Y-79577830D03*
X199762633Y-79577830D03*
X197222633Y-79577830D03*
X194682633Y-79577830D03*
X192142633Y-79577830D03*
X189602633Y-79577830D03*
X184522633Y-79577830D03*
%TD*%
%TO.C,U1*%
X169966490Y-79548026D03*
X167426490Y-79548026D03*
X164886490Y-79548026D03*
X162346490Y-79548026D03*
X164886490Y-64308026D03*
X159806490Y-79548026D03*
X157266490Y-79548026D03*
X169966490Y-64308026D03*
X154726490Y-79548026D03*
X152186490Y-79548026D03*
X149646490Y-79548026D03*
D20*
X149646490Y-77008026D03*
X149646490Y-74468026D03*
X149646490Y-71928026D03*
X149646490Y-69388026D03*
X149646490Y-66848026D03*
D19*
X149646490Y-64308026D03*
X152186490Y-64308026D03*
X154726490Y-64308026D03*
X157266490Y-64308026D03*
X159806490Y-64308026D03*
X162346490Y-64308026D03*
X167426490Y-64308026D03*
%TD*%
D21*
%TO.C,D26*%
X225860816Y-53156333D03*
X225860816Y-56456333D03*
%TD*%
D22*
%TO.C,D41*%
X215359970Y-97242613D03*
X216042698Y-100471217D03*
%TD*%
D23*
%TO.C,D84*%
X235454572Y-35892256D03*
X235454572Y-39192256D03*
X230554572Y-39192256D03*
X230554572Y-35892256D03*
%TD*%
D21*
%TO.C,D10*%
X92683839Y-50778340D03*
X92683839Y-54078340D03*
%TD*%
D23*
%TO.C,D85*%
X311654636Y-40654760D03*
X311654636Y-43954760D03*
X306754636Y-43954760D03*
X306754636Y-40654760D03*
%TD*%
D24*
%TO.C,J1*%
X169588734Y-75921823D03*
D25*
X160638734Y-68396823D03*
D24*
X166338734Y-68321823D03*
D25*
X160638734Y-75846823D03*
D24*
X169588734Y-68321823D03*
%TD*%
D26*
%TO.C,D39*%
X142142074Y-99090955D03*
X140806160Y-102108459D03*
%TD*%
D21*
%TO.C,D33*%
X244910832Y-69825097D03*
X244910832Y-73125097D03*
%TD*%
D23*
%TO.C,D76*%
X311585888Y-59704776D03*
X311585888Y-63004776D03*
X306685888Y-63004776D03*
X306685888Y-59704776D03*
%TD*%
D21*
%TO.C,D27*%
X244910832Y-50775081D03*
X244910832Y-54075081D03*
%TD*%
D23*
%TO.C,D55*%
X64177563Y-59708035D03*
X64177563Y-63008035D03*
X59277563Y-63008035D03*
X59277563Y-59708035D03*
%TD*%
D21*
%TO.C,D37*%
X102208847Y-93640876D03*
X102208847Y-96940876D03*
%TD*%
%TO.C,D2*%
X54583807Y-38872080D03*
X54583807Y-42172080D03*
%TD*%
D23*
%TO.C,D73*%
X273554604Y-35892256D03*
X273554604Y-39192256D03*
X268654604Y-39192256D03*
X268654604Y-35892256D03*
%TD*%
D21*
%TO.C,D31*%
X206810800Y-74587601D03*
X206810800Y-77887601D03*
%TD*%
%TO.C,D19*%
X206810800Y-36487569D03*
X206810800Y-39787569D03*
%TD*%
D23*
%TO.C,D48*%
X140377627Y-76376799D03*
X140377627Y-79676799D03*
X135477627Y-79676799D03*
X135477627Y-76376799D03*
%TD*%
%TO.C,D88*%
X273554604Y-54942272D03*
X273554604Y-58242272D03*
X268654604Y-58242272D03*
X268654604Y-54942272D03*
%TD*%
D21*
%TO.C,D1*%
X35533791Y-38872080D03*
X35533791Y-42172080D03*
%TD*%
D23*
%TO.C,D51*%
X83227579Y-73995547D03*
X83227579Y-77295547D03*
X78327579Y-77295547D03*
X78327579Y-73995547D03*
%TD*%
D21*
%TO.C,D45*%
X149833887Y-55540843D03*
X149833887Y-58840843D03*
%TD*%
D23*
%TO.C,D75*%
X254504588Y-71611036D03*
X254504588Y-74911036D03*
X249604588Y-74911036D03*
X249604588Y-71611036D03*
%TD*%
%TO.C,D67*%
X45127547Y-40722401D03*
X45127547Y-44022401D03*
X40227547Y-44022401D03*
X40227547Y-40722401D03*
%TD*%
%TO.C,D80*%
X244979580Y-95423556D03*
X244979580Y-98723556D03*
X240079580Y-98723556D03*
X240079580Y-95423556D03*
%TD*%
%TO.C,D69*%
X235454572Y-73992288D03*
X235454572Y-77292288D03*
X230554572Y-77292288D03*
X230554572Y-73992288D03*
%TD*%
%TO.C,D60*%
X159427643Y-57326782D03*
X159427643Y-60626782D03*
X154527643Y-60626782D03*
X154527643Y-57326782D03*
%TD*%
D27*
%TO.C,D43*%
X150122896Y-104535470D03*
X148786982Y-107552974D03*
X144306444Y-105569344D03*
X145642358Y-102551840D03*
%TD*%
D21*
%TO.C,D23*%
X283010864Y-38868821D03*
X283010864Y-42168821D03*
%TD*%
D23*
%TO.C,D62*%
X140377627Y-38276767D03*
X140377627Y-41576767D03*
X135477627Y-41576767D03*
X135477627Y-38276767D03*
%TD*%
D21*
%TO.C,D44*%
X149833887Y-36490828D03*
X149833887Y-39790828D03*
%TD*%
D28*
%TO.C,D38*%
X122489008Y-94296754D03*
X121806280Y-97525358D03*
%TD*%
D21*
%TO.C,D6*%
X130783871Y-36490828D03*
X130783871Y-39790828D03*
%TD*%
D23*
%TO.C,D81*%
X273554604Y-73992288D03*
X273554604Y-77292288D03*
X268654604Y-77292288D03*
X268654604Y-73992288D03*
%TD*%
%TO.C,D53*%
X45127547Y-78758051D03*
X45127547Y-82058051D03*
X40227547Y-82058051D03*
X40227547Y-78758051D03*
%TD*%
%TO.C,D66*%
X64177563Y-40658019D03*
X64177563Y-43958019D03*
X59277563Y-43958019D03*
X59277563Y-40658019D03*
%TD*%
%TO.C,D89*%
X197354540Y-57187585D03*
X197354540Y-60487585D03*
X192454540Y-60487585D03*
X192454540Y-57187585D03*
%TD*%
%TO.C,D63*%
X121327611Y-35895515D03*
X121327611Y-39195515D03*
X116427611Y-39195515D03*
X116427611Y-35895515D03*
%TD*%
D21*
%TO.C,D15*%
X73633823Y-72209608D03*
X73633823Y-75509608D03*
%TD*%
%TO.C,D20*%
X225860816Y-34106317D03*
X225860816Y-37406317D03*
%TD*%
%TO.C,D16*%
X92683839Y-69964295D03*
X92683839Y-73264295D03*
%TD*%
%TO.C,D25*%
X206810800Y-55537585D03*
X206810800Y-58837585D03*
%TD*%
%TO.C,D5*%
X111733855Y-34109576D03*
X111733855Y-37409576D03*
%TD*%
D23*
%TO.C,D87*%
X292604620Y-78754792D03*
X292604620Y-82054792D03*
X287704620Y-82054792D03*
X287704620Y-78754792D03*
%TD*%
D21*
%TO.C,D3*%
X73633823Y-34109576D03*
X73633823Y-37409576D03*
%TD*%
%TO.C,D22*%
X263960848Y-34106317D03*
X263960848Y-37406317D03*
%TD*%
%TO.C,D9*%
X73633823Y-53159592D03*
X73633823Y-56459592D03*
%TD*%
D23*
%TO.C,D56*%
X83227579Y-54945531D03*
X83227579Y-58245531D03*
X78327579Y-58245531D03*
X78327579Y-54945531D03*
%TD*%
D21*
%TO.C,D24*%
X302060880Y-38868821D03*
X302060880Y-42168821D03*
%TD*%
%TO.C,D18*%
X130783871Y-74590860D03*
X130783871Y-77890860D03*
%TD*%
D23*
%TO.C,D71*%
X254504588Y-52561020D03*
X254504588Y-55861020D03*
X249604588Y-55861020D03*
X249604588Y-52561020D03*
%TD*%
D29*
%TO.C,D68*%
X206281557Y-102528783D03*
X207617471Y-105546289D03*
X203136933Y-107529921D03*
X201801019Y-104512415D03*
%TD*%
D21*
%TO.C,D21*%
X244910832Y-31725065D03*
X244910832Y-35025065D03*
%TD*%
D30*
%TO.C,D74*%
X225371196Y-96927573D03*
X226053924Y-100156177D03*
X221259936Y-101169925D03*
X220577208Y-97941321D03*
%TD*%
D23*
%TO.C,D58*%
X121327611Y-54945531D03*
X121327611Y-58245531D03*
X116427611Y-58245531D03*
X116427611Y-54945531D03*
%TD*%
%TO.C,D49*%
X121327611Y-73995547D03*
X121327611Y-77295547D03*
X116427611Y-77295547D03*
X116427611Y-73995547D03*
%TD*%
%TO.C,D83*%
X216404556Y-57323524D03*
X216404556Y-60623524D03*
X211504556Y-60623524D03*
X211504556Y-57323524D03*
%TD*%
D21*
%TO.C,D13*%
X35533791Y-76972112D03*
X35533791Y-80272112D03*
%TD*%
D23*
%TO.C,D47*%
X111802603Y-95426815D03*
X111802603Y-98726815D03*
X106902603Y-98726815D03*
X106902603Y-95426815D03*
%TD*%
D21*
%TO.C,D91*%
X187760800Y-36487569D03*
X187760800Y-39787569D03*
%TD*%
%TO.C,D42*%
X235385824Y-93637617D03*
X235385824Y-96937617D03*
%TD*%
D23*
%TO.C,D57*%
X102277595Y-52564279D03*
X102277595Y-55864279D03*
X97377595Y-55864279D03*
X97377595Y-52564279D03*
%TD*%
%TO.C,D72*%
X197354540Y-38273508D03*
X197354540Y-41573508D03*
X192454540Y-41573508D03*
X192454540Y-38273508D03*
%TD*%
D21*
%TO.C,D12*%
X130783871Y-55540844D03*
X130783871Y-58840844D03*
%TD*%
%TO.C,D7*%
X35533791Y-57922096D03*
X35533791Y-61222096D03*
%TD*%
D24*
%TO.C,J2*%
X182518710Y-68322298D03*
D25*
X191468710Y-75847298D03*
D24*
X185768710Y-75922298D03*
D25*
X191468710Y-68397298D03*
D24*
X182518710Y-75922298D03*
%TD*%
D23*
%TO.C,D52*%
X64177563Y-78758051D03*
X64177563Y-82058051D03*
X59277563Y-82058051D03*
X59277563Y-78758051D03*
%TD*%
%TO.C,D90*%
X254504588Y-33511004D03*
X254504588Y-36811004D03*
X249604588Y-36811004D03*
X249604588Y-33511004D03*
%TD*%
D21*
%TO.C,D34*%
X263960848Y-72206349D03*
X263960848Y-75506349D03*
%TD*%
%TO.C,D11*%
X111733855Y-53159592D03*
X111733855Y-56459592D03*
%TD*%
D31*
%TO.C,D46*%
X131694168Y-98023349D03*
X131011440Y-101251953D03*
X126217452Y-100238205D03*
X126900180Y-97009601D03*
%TD*%
D23*
%TO.C,D79*%
X292604620Y-40654760D03*
X292604620Y-43954760D03*
X287704620Y-43954760D03*
X287704620Y-40654760D03*
%TD*%
%TO.C,D77*%
X235454572Y-54942272D03*
X235454572Y-58242272D03*
X230554572Y-58242272D03*
X230554572Y-54942272D03*
%TD*%
%TO.C,D50*%
X102277595Y-71614295D03*
X102277595Y-74914295D03*
X97377595Y-74914295D03*
X97377595Y-71614295D03*
%TD*%
%TO.C,D65*%
X83227579Y-35895515D03*
X83227579Y-39195515D03*
X78327579Y-39195515D03*
X78327579Y-35895515D03*
%TD*%
%TO.C,D59*%
X140377627Y-57326783D03*
X140377627Y-60626783D03*
X135477627Y-60626783D03*
X135477627Y-57326783D03*
%TD*%
D21*
%TO.C,D32*%
X225860816Y-72206349D03*
X225860816Y-75506349D03*
%TD*%
%TO.C,D4*%
X92683839Y-31728324D03*
X92683839Y-35028324D03*
%TD*%
D32*
%TO.C,D40*%
X196578345Y-104854168D03*
X197914259Y-107871672D03*
%TD*%
D21*
%TO.C,D29*%
X283010864Y-57918837D03*
X283010864Y-61218837D03*
%TD*%
D23*
%TO.C,D64*%
X102277595Y-33514263D03*
X102277595Y-36814263D03*
X97377595Y-36814263D03*
X97377595Y-33514263D03*
%TD*%
%TO.C,D61*%
X159427643Y-38276767D03*
X159427643Y-41576767D03*
X154527643Y-41576767D03*
X154527643Y-38276767D03*
%TD*%
D21*
%TO.C,D30*%
X302060880Y-57918837D03*
X302060880Y-61218837D03*
%TD*%
%TO.C,D14*%
X54583807Y-76972112D03*
X54583807Y-80272112D03*
%TD*%
D23*
%TO.C,D70*%
X311654636Y-78754792D03*
X311654636Y-82054792D03*
X306754636Y-82054792D03*
X306754636Y-78754792D03*
%TD*%
%TO.C,D54*%
X45127547Y-59708035D03*
X45127547Y-63008035D03*
X40227547Y-63008035D03*
X40227547Y-59708035D03*
%TD*%
D21*
%TO.C,D35*%
X283010864Y-76968853D03*
X283010864Y-80268853D03*
%TD*%
D23*
%TO.C,D86*%
X216404556Y-76373540D03*
X216404556Y-79673540D03*
X211504556Y-79673540D03*
X211504556Y-76373540D03*
%TD*%
%TO.C,D82*%
X292604620Y-59704776D03*
X292604620Y-63004776D03*
X287704620Y-63004776D03*
X287704620Y-59704776D03*
%TD*%
D21*
%TO.C,D8*%
X54583807Y-57922096D03*
X54583807Y-61222096D03*
%TD*%
%TO.C,D36*%
X302060880Y-76968853D03*
X302060880Y-80268853D03*
%TD*%
%TO.C,D92*%
X187760800Y-55537585D03*
X187760800Y-58837585D03*
%TD*%
%TO.C,D28*%
X263960848Y-53156333D03*
X263960848Y-56456333D03*
%TD*%
D23*
%TO.C,D78*%
X216473304Y-38137569D03*
X216473304Y-41437569D03*
X211573304Y-41437569D03*
X211573304Y-38137569D03*
%TD*%
D21*
%TO.C,D17*%
X111733855Y-72345547D03*
X111733855Y-75645547D03*
%TD*%
M02*
