%TF.GenerationSoftware,KiCad,Pcbnew,9.0.0*%
%TF.CreationDate,2025-03-23T14:50:25-06:00*%
%TF.ProjectId,travyboard,74726176-7962-46f6-9172-642e6b696361,rev?*%
%TF.SameCoordinates,Original*%
%TF.FileFunction,Drillmap*%
%TF.FilePolarity,Positive*%
%FSLAX45Y45*%
G04 Gerber Fmt 4.5, Leading zero omitted, Abs format (unit mm)*
G04 Created by KiCad (PCBNEW 9.0.0) date 2025-03-23 14:50:25*
%MOMM*%
%LPD*%
G01*
G04 APERTURE LIST*
%ADD10C,0.050000*%
%ADD11C,0.200000*%
%ADD12C,0.100000*%
%ADD13C,0.190000*%
%ADD14C,0.300000*%
%ADD15C,0.410000*%
G04 APERTURE END LIST*
D10*
X31869144Y-2616711D02*
X31869144Y-8331710D01*
X5812075Y-8831675D02*
X9723538Y-8831675D01*
X9038934Y-7617335D02*
X9991434Y-7617335D01*
X17209934Y-7527185D02*
X17209934Y-8192785D01*
X26606648Y-1640480D02*
G75*
G02*
X26606648Y-2140460I2J-249990D01*
G01*
X9038934Y-7855460D02*
X9038934Y-7617335D01*
X25201644Y-7617335D02*
X25201644Y-9998586D01*
X15503491Y-11160158D02*
X16812259Y-8192785D01*
X19689586Y-11160158D02*
X18380819Y-8192785D01*
X30375558Y-8331706D02*
X31869144Y-8331710D01*
X3323934Y-2616711D02*
X7133934Y-2616711D01*
X26154144Y-2140461D02*
X26154144Y-1902335D01*
X23296644Y-9998586D02*
X21432585Y-10391405D01*
X17983144Y-6897185D02*
X19258144Y-6897185D01*
X9991434Y-9998586D02*
X11896434Y-9998586D01*
X3323934Y-8831675D02*
X3323934Y-11844046D01*
X7133934Y-2616711D02*
X7133934Y-2140461D01*
X17983144Y-6188585D02*
X17983144Y-6897185D01*
X31869144Y-11844046D02*
X3323934Y-11844046D01*
X27606648Y-2140461D02*
X28059144Y-2140461D01*
X16658934Y-2378586D02*
X16658934Y-6188585D01*
X9991434Y-7617335D02*
X9991434Y-9998586D01*
X29374849Y-8331706D02*
G75*
G02*
X29374849Y-8831754I1J-250024D01*
G01*
X17983144Y-7527185D02*
X17983144Y-8192785D01*
X19688999Y-1878614D02*
X23891963Y-1878607D01*
X11301114Y-1878605D02*
X11301114Y-1640480D01*
X16504079Y-2378586D02*
G75*
G02*
X16504079Y-1878604I0J249991D01*
G01*
X18534144Y-2378586D02*
X18688999Y-2378595D01*
X24249144Y-1902335D02*
X24249144Y-2140461D01*
X4812169Y-8331710D02*
X3323934Y-8331710D01*
X15934934Y-6897185D02*
X15934934Y-7527185D01*
X16658934Y-2378586D02*
X16504079Y-2378586D01*
X15504079Y-1878605D02*
X11301114Y-1878605D01*
X25201644Y-9998586D02*
X23296644Y-9998586D01*
X7133934Y-7855460D02*
X9038934Y-7855460D01*
X26154144Y-7855460D02*
X26154144Y-7617335D01*
X7586430Y-1640480D02*
G75*
G02*
X7586430Y-2140460I0J-249990D01*
G01*
X17209934Y-6897185D02*
X15934934Y-6897185D01*
X15504079Y-1878605D02*
G75*
G02*
X15504079Y-2378585I0J-249990D01*
G01*
X19258144Y-7527185D02*
X17983144Y-7527185D01*
X7586430Y-1640480D02*
X3323934Y-1640480D01*
X18688999Y-1878605D02*
X16504627Y-1878605D01*
X26154144Y-7617335D02*
X25201644Y-7617335D01*
X19688999Y-2378586D02*
G75*
G02*
X19688999Y-1878614I2J249986D01*
G01*
X11896434Y-9998586D02*
X13760493Y-10391405D01*
X3323934Y-1217727D02*
X31869144Y-1247493D01*
X17209934Y-6188585D02*
X16658934Y-6188585D01*
X26154144Y-2140461D02*
X26606648Y-2140461D01*
X29374849Y-8331688D02*
X28059144Y-8331706D01*
X10943934Y-1902335D02*
X10943934Y-2140461D01*
X21432585Y-10391405D02*
X19689586Y-11160158D01*
X25469540Y-8831671D02*
X25469540Y-11308266D01*
X30374849Y-8831755D02*
G75*
G02*
X30374849Y-8331705I1J250025D01*
G01*
X9723538Y-8831675D02*
X9723538Y-11308270D01*
X5812075Y-8831675D02*
G75*
G02*
X5812262Y-8331711I94J249982D01*
G01*
X8586430Y-2140461D02*
G75*
G02*
X8586430Y-1640479I0J249991D01*
G01*
X31869144Y-2616711D02*
X28059144Y-2616711D01*
X30374850Y-8831755D02*
X31869144Y-8831671D01*
X10943934Y-2140461D02*
X12848934Y-2140461D01*
X17983144Y-8192785D02*
X18380819Y-8192785D01*
X5812262Y-8331711D02*
X7133934Y-8331710D01*
X9723538Y-11308270D02*
X25469540Y-11308266D01*
X28059144Y-7855460D02*
X26154144Y-7855460D01*
X19689000Y-2378586D02*
X22344144Y-2378586D01*
X17209934Y-8192785D02*
X16812259Y-8192785D01*
X4812214Y-8331710D02*
G75*
G02*
X4812213Y-8831676I-45J-249983D01*
G01*
X27605943Y-1640480D02*
X31869144Y-1640480D01*
X9038934Y-2140461D02*
X8586430Y-2140461D01*
X29374849Y-8831755D02*
X25469540Y-8831671D01*
X9038934Y-1902335D02*
X10943934Y-1902335D01*
X19258144Y-6897185D02*
X19258144Y-7527185D01*
X7133934Y-8331710D02*
X7133934Y-7855460D01*
X22344144Y-2140461D02*
X22344144Y-2378586D01*
X31869144Y-1247493D02*
X31869144Y-1640480D01*
X9038934Y-2140461D02*
X9038934Y-1902335D01*
X24249144Y-2140461D02*
X22344144Y-2140461D01*
X7586430Y-2140461D02*
X7133934Y-2140461D01*
X15934934Y-7527185D02*
X17209934Y-7527185D01*
X27606648Y-2140461D02*
G75*
G02*
X27606648Y-1640479I2J249991D01*
G01*
X4812169Y-8831693D02*
X3323934Y-8831675D01*
X12848934Y-2140461D02*
X12848934Y-2378586D01*
X15504079Y-2378586D02*
X12848926Y-2378586D01*
X17983144Y-6188585D02*
X18534144Y-6188585D01*
X23891963Y-1878607D02*
X23891963Y-1640480D01*
X17209934Y-6188585D02*
X17209934Y-6897185D01*
X18534144Y-2378586D02*
X18534144Y-6188585D01*
X26606648Y-1640480D02*
X23891963Y-1640480D01*
X18688999Y-1878605D02*
G75*
G02*
X18688999Y-2378595I2J-249995D01*
G01*
X28059144Y-8331710D02*
X28059144Y-7855460D01*
X3323934Y-2616711D02*
X3323934Y-8331710D01*
X8585723Y-1640480D02*
X11301114Y-1640480D01*
X28059144Y-2616711D02*
X28059144Y-2140461D01*
X13760493Y-10391405D02*
X15503491Y-11160158D01*
X3323934Y-1640480D02*
X3323934Y-1217727D01*
X26154144Y-1902335D02*
X24249144Y-1902335D01*
X31869144Y-8831671D02*
X31869144Y-11844046D01*
D11*
D12*
X4987169Y-8327693D02*
X5037169Y-8377693D01*
X5037169Y-8327693D02*
X4987169Y-8377693D01*
X5062169Y-8327693D02*
X5112169Y-8377693D01*
X5112169Y-8327693D02*
X5062169Y-8377693D01*
X5136169Y-8326693D02*
X5186169Y-8376693D01*
X5186169Y-8326693D02*
X5136169Y-8376693D01*
X5212169Y-8327693D02*
X5262169Y-8377693D01*
X5262169Y-8327693D02*
X5212169Y-8377693D01*
X5288169Y-8327693D02*
X5338169Y-8377693D01*
X5338169Y-8327693D02*
X5288169Y-8377693D01*
X5362169Y-8327693D02*
X5412169Y-8377693D01*
X5412169Y-8327693D02*
X5362169Y-8377693D01*
X5437169Y-8326693D02*
X5487169Y-8376693D01*
X5487169Y-8326693D02*
X5437169Y-8376693D01*
X5512169Y-8327693D02*
X5562169Y-8377693D01*
X5562169Y-8327693D02*
X5512169Y-8377693D01*
X5587169Y-8327693D02*
X5637169Y-8377693D01*
X5637169Y-8327693D02*
X5587169Y-8377693D01*
X7761430Y-2094470D02*
X7811430Y-2144471D01*
X7811430Y-2094470D02*
X7761430Y-2144471D01*
X7836430Y-2094470D02*
X7886430Y-2144471D01*
X7886430Y-2094470D02*
X7836430Y-2144471D01*
X7911430Y-2094470D02*
X7961430Y-2144471D01*
X7961430Y-2094470D02*
X7911430Y-2144471D01*
X7985430Y-2094470D02*
X8035430Y-2144471D01*
X8035430Y-2094470D02*
X7985430Y-2144471D01*
X8061430Y-2094470D02*
X8111430Y-2144471D01*
X8111430Y-2094470D02*
X8061430Y-2144471D01*
X8136430Y-2094470D02*
X8186430Y-2144471D01*
X8186430Y-2094470D02*
X8136430Y-2144471D01*
X8212430Y-2094470D02*
X8262430Y-2144471D01*
X8262430Y-2094470D02*
X8212430Y-2144471D01*
X8285430Y-2094470D02*
X8335430Y-2144471D01*
X8335430Y-2094470D02*
X8285430Y-2144471D01*
X8361430Y-2094470D02*
X8411430Y-2144471D01*
X8411430Y-2094470D02*
X8361430Y-2144471D01*
X15679079Y-2332595D02*
X15729079Y-2382595D01*
X15729079Y-2332595D02*
X15679079Y-2382595D01*
X15754079Y-2332595D02*
X15804079Y-2382595D01*
X15804079Y-2332595D02*
X15754079Y-2382595D01*
X15829079Y-2332595D02*
X15879079Y-2382595D01*
X15879079Y-2332595D02*
X15829079Y-2382595D01*
X15903079Y-2332595D02*
X15953079Y-2382595D01*
X15953079Y-2332595D02*
X15903079Y-2382595D01*
X15979079Y-2332595D02*
X16029079Y-2382595D01*
X16029079Y-2332595D02*
X15979079Y-2382595D01*
X16054079Y-2332595D02*
X16104079Y-2382595D01*
X16104079Y-2332595D02*
X16054079Y-2382595D01*
X16130079Y-2332595D02*
X16180079Y-2382595D01*
X16180079Y-2332595D02*
X16130079Y-2382595D01*
X16203079Y-2332595D02*
X16253079Y-2382595D01*
X16253079Y-2332595D02*
X16203079Y-2382595D01*
X16279079Y-2332595D02*
X16329079Y-2382595D01*
X16329079Y-2332595D02*
X16279079Y-2382595D01*
X18863999Y-2332595D02*
X18913999Y-2382595D01*
X18913999Y-2332595D02*
X18863999Y-2382595D01*
X18938999Y-2332595D02*
X18988999Y-2382595D01*
X18988999Y-2332595D02*
X18938999Y-2382595D01*
X19013999Y-2332595D02*
X19063999Y-2382595D01*
X19063999Y-2332595D02*
X19013999Y-2382595D01*
X19087999Y-2332595D02*
X19137999Y-2382595D01*
X19137999Y-2332595D02*
X19087999Y-2382595D01*
X19163999Y-2332595D02*
X19213999Y-2382595D01*
X19213999Y-2332595D02*
X19163999Y-2382595D01*
X19238999Y-2332595D02*
X19288999Y-2382595D01*
X19288999Y-2332595D02*
X19238999Y-2382595D01*
X19314999Y-2332595D02*
X19364999Y-2382595D01*
X19364999Y-2332595D02*
X19314999Y-2382595D01*
X19387999Y-2332595D02*
X19437999Y-2382595D01*
X19437999Y-2332595D02*
X19387999Y-2382595D01*
X19463999Y-2332595D02*
X19513999Y-2382595D01*
X19513999Y-2332595D02*
X19463999Y-2382595D01*
X26781648Y-2094470D02*
X26831648Y-2144471D01*
X26831648Y-2094470D02*
X26781648Y-2144471D01*
X26856648Y-2094470D02*
X26906648Y-2144471D01*
X26906648Y-2094470D02*
X26856648Y-2144471D01*
X26931648Y-2094470D02*
X26981648Y-2144471D01*
X26981648Y-2094470D02*
X26931648Y-2144471D01*
X27005648Y-2094470D02*
X27055648Y-2144471D01*
X27055648Y-2094470D02*
X27005648Y-2144471D01*
X27081648Y-2094470D02*
X27131648Y-2144471D01*
X27131648Y-2094470D02*
X27081648Y-2144471D01*
X27156648Y-2094470D02*
X27206648Y-2144471D01*
X27206648Y-2094470D02*
X27156648Y-2144471D01*
X27232648Y-2094470D02*
X27282648Y-2144471D01*
X27282648Y-2094470D02*
X27232648Y-2144471D01*
X27305648Y-2094470D02*
X27355648Y-2144471D01*
X27355648Y-2094470D02*
X27305648Y-2144471D01*
X27381648Y-2094470D02*
X27431648Y-2144471D01*
X27431648Y-2094470D02*
X27381648Y-2144471D01*
X29549849Y-8327730D02*
X29599849Y-8377730D01*
X29599849Y-8327730D02*
X29549849Y-8377730D01*
X29624849Y-8327730D02*
X29674849Y-8377730D01*
X29674849Y-8327730D02*
X29624849Y-8377730D01*
X29698849Y-8326730D02*
X29748849Y-8376730D01*
X29748849Y-8326730D02*
X29698849Y-8376730D01*
X29774849Y-8327730D02*
X29824849Y-8377730D01*
X29824849Y-8327730D02*
X29774849Y-8377730D01*
X29850849Y-8327730D02*
X29900849Y-8377730D01*
X29900849Y-8327730D02*
X29850849Y-8377730D01*
X29924849Y-8327730D02*
X29974849Y-8377730D01*
X29974849Y-8327730D02*
X29924849Y-8377730D01*
X29999849Y-8326730D02*
X30049849Y-8376730D01*
X30049849Y-8326730D02*
X29999849Y-8376730D01*
X30074849Y-8327730D02*
X30124849Y-8377730D01*
X30124849Y-8327730D02*
X30074849Y-8377730D01*
X30149849Y-8327730D02*
X30199849Y-8377730D01*
X30199849Y-8327730D02*
X30149849Y-8377730D01*
D13*
X3857373Y-3569207D02*
G75*
G02*
X3667373Y-3569207I-95000J0D01*
G01*
X3667373Y-3569207D02*
G75*
G02*
X3857373Y-3569207I95000J0D01*
G01*
X3857373Y-5474209D02*
G75*
G02*
X3667373Y-5474209I-95000J0D01*
G01*
X3667373Y-5474209D02*
G75*
G02*
X3857373Y-5474209I95000J0D01*
G01*
X3857373Y-7379210D02*
G75*
G02*
X3667373Y-7379210I-95000J0D01*
G01*
X3667373Y-7379210D02*
G75*
G02*
X3857373Y-7379210I95000J0D01*
G01*
X4873373Y-3569207D02*
G75*
G02*
X4683373Y-3569207I-95000J0D01*
G01*
X4683373Y-3569207D02*
G75*
G02*
X4873373Y-3569207I95000J0D01*
G01*
X4873373Y-5474209D02*
G75*
G02*
X4683373Y-5474209I-95000J0D01*
G01*
X4683373Y-5474209D02*
G75*
G02*
X4873373Y-5474209I95000J0D01*
G01*
X4873373Y-7379210D02*
G75*
G02*
X4683373Y-7379210I-95000J0D01*
G01*
X4683373Y-7379210D02*
G75*
G02*
X4873373Y-7379210I95000J0D01*
G01*
X5762375Y-3569207D02*
G75*
G02*
X5572375Y-3569207I-95000J0D01*
G01*
X5572375Y-3569207D02*
G75*
G02*
X5762375Y-3569207I95000J0D01*
G01*
X5762375Y-5474209D02*
G75*
G02*
X5572375Y-5474209I-95000J0D01*
G01*
X5572375Y-5474209D02*
G75*
G02*
X5762375Y-5474209I95000J0D01*
G01*
X5762375Y-7379210D02*
G75*
G02*
X5572375Y-7379210I-95000J0D01*
G01*
X5572375Y-7379210D02*
G75*
G02*
X5762375Y-7379210I95000J0D01*
G01*
X6778375Y-3569207D02*
G75*
G02*
X6588375Y-3569207I-95000J0D01*
G01*
X6588375Y-3569207D02*
G75*
G02*
X6778375Y-3569207I95000J0D01*
G01*
X6778375Y-5474209D02*
G75*
G02*
X6588375Y-5474209I-95000J0D01*
G01*
X6588375Y-5474209D02*
G75*
G02*
X6778375Y-5474209I95000J0D01*
G01*
X6778375Y-7379210D02*
G75*
G02*
X6588375Y-7379210I-95000J0D01*
G01*
X6588375Y-7379210D02*
G75*
G02*
X6778375Y-7379210I95000J0D01*
G01*
X7667375Y-3092907D02*
G75*
G02*
X7477375Y-3092907I-95000J0D01*
G01*
X7477375Y-3092907D02*
G75*
G02*
X7667375Y-3092907I95000J0D01*
G01*
X7667377Y-4997959D02*
G75*
G02*
X7477377Y-4997959I-95000J0D01*
G01*
X7477377Y-4997959D02*
G75*
G02*
X7667377Y-4997959I95000J0D01*
G01*
X7667377Y-6902960D02*
G75*
G02*
X7477377Y-6902960I-95000J0D01*
G01*
X7477377Y-6902960D02*
G75*
G02*
X7667377Y-6902960I95000J0D01*
G01*
X8683375Y-3092907D02*
G75*
G02*
X8493375Y-3092907I-95000J0D01*
G01*
X8493375Y-3092907D02*
G75*
G02*
X8683375Y-3092907I95000J0D01*
G01*
X8683377Y-4997959D02*
G75*
G02*
X8493377Y-4997959I-95000J0D01*
G01*
X8493377Y-4997959D02*
G75*
G02*
X8683377Y-4997959I95000J0D01*
G01*
X8683377Y-6902960D02*
G75*
G02*
X8493377Y-6902960I-95000J0D01*
G01*
X8493377Y-6902960D02*
G75*
G02*
X8683377Y-6902960I95000J0D01*
G01*
X9572375Y-2854807D02*
G75*
G02*
X9382375Y-2854807I-95000J0D01*
G01*
X9382375Y-2854807D02*
G75*
G02*
X9572375Y-2854807I95000J0D01*
G01*
X9572377Y-4759859D02*
G75*
G02*
X9382377Y-4759859I-95000J0D01*
G01*
X9382377Y-4759859D02*
G75*
G02*
X9572377Y-4759859I95000J0D01*
G01*
X9572377Y-6664860D02*
G75*
G02*
X9382377Y-6664860I-95000J0D01*
G01*
X9382377Y-6664860D02*
G75*
G02*
X9572377Y-6664860I95000J0D01*
G01*
X10524879Y-9046087D02*
G75*
G02*
X10334879Y-9046087I-95000J0D01*
G01*
X10334879Y-9046087D02*
G75*
G02*
X10524879Y-9046087I95000J0D01*
G01*
X10588375Y-2854807D02*
G75*
G02*
X10398375Y-2854807I-95000J0D01*
G01*
X10398375Y-2854807D02*
G75*
G02*
X10588375Y-2854807I95000J0D01*
G01*
X10588377Y-4759859D02*
G75*
G02*
X10398377Y-4759859I-95000J0D01*
G01*
X10398377Y-4759859D02*
G75*
G02*
X10588377Y-4759859I95000J0D01*
G01*
X10588377Y-6664860D02*
G75*
G02*
X10398377Y-6664860I-95000J0D01*
G01*
X10398377Y-6664860D02*
G75*
G02*
X10588377Y-6664860I95000J0D01*
G01*
X11477375Y-3092907D02*
G75*
G02*
X11287375Y-3092907I-95000J0D01*
G01*
X11287375Y-3092907D02*
G75*
G02*
X11477375Y-3092907I95000J0D01*
G01*
X11477377Y-4997959D02*
G75*
G02*
X11287377Y-4997959I-95000J0D01*
G01*
X11287377Y-4997959D02*
G75*
G02*
X11477377Y-4997959I95000J0D01*
G01*
X11477377Y-6902960D02*
G75*
G02*
X11287377Y-6902960I-95000J0D01*
G01*
X11287377Y-6902960D02*
G75*
G02*
X11477377Y-6902960I95000J0D01*
G01*
X11540879Y-9046087D02*
G75*
G02*
X11350879Y-9046087I-95000J0D01*
G01*
X11350879Y-9046087D02*
G75*
G02*
X11540879Y-9046087I95000J0D01*
G01*
X12493375Y-3092907D02*
G75*
G02*
X12303375Y-3092907I-95000J0D01*
G01*
X12303375Y-3092907D02*
G75*
G02*
X12493375Y-3092907I95000J0D01*
G01*
X12493377Y-4997959D02*
G75*
G02*
X12303377Y-4997959I-95000J0D01*
G01*
X12303377Y-4997959D02*
G75*
G02*
X12493377Y-4997959I95000J0D01*
G01*
X12493377Y-6902960D02*
G75*
G02*
X12303377Y-6902960I-95000J0D01*
G01*
X12303377Y-6902960D02*
G75*
G02*
X12493377Y-6902960I95000J0D01*
G01*
X12614357Y-9160593D02*
G75*
G02*
X12424357Y-9160593I-95000J0D01*
G01*
X12424357Y-9160593D02*
G75*
G02*
X12614357Y-9160593I95000J0D01*
G01*
X13382375Y-3331007D02*
G75*
G02*
X13192375Y-3331007I-95000J0D01*
G01*
X13192375Y-3331007D02*
G75*
G02*
X13382375Y-3331007I95000J0D01*
G01*
X13382377Y-5236059D02*
G75*
G02*
X13192377Y-5236059I-95000J0D01*
G01*
X13192377Y-5236059D02*
G75*
G02*
X13382377Y-5236059I95000J0D01*
G01*
X13382377Y-7141060D02*
G75*
G02*
X13192377Y-7141060I-95000J0D01*
G01*
X13192377Y-7141060D02*
G75*
G02*
X13382377Y-7141060I95000J0D01*
G01*
X13608379Y-9370773D02*
G75*
G02*
X13418379Y-9370773I-95000J0D01*
G01*
X13418379Y-9370773D02*
G75*
G02*
X13608379Y-9370773I95000J0D01*
G01*
X14398375Y-3331007D02*
G75*
G02*
X14208375Y-3331007I-95000J0D01*
G01*
X14208375Y-3331007D02*
G75*
G02*
X14398375Y-3331007I95000J0D01*
G01*
X14398377Y-5236059D02*
G75*
G02*
X14208377Y-5236059I-95000J0D01*
G01*
X14208377Y-5236059D02*
G75*
G02*
X14398377Y-5236059I95000J0D01*
G01*
X14398377Y-7141060D02*
G75*
G02*
X14208377Y-7141060I-95000J0D01*
G01*
X14208377Y-7141060D02*
G75*
G02*
X14398377Y-7141060I95000J0D01*
G01*
X14633024Y-9701902D02*
G75*
G02*
X14443024Y-9701902I-95000J0D01*
G01*
X14443024Y-9701902D02*
G75*
G02*
X14633024Y-9701902I95000J0D01*
G01*
X15287375Y-3331007D02*
G75*
G02*
X15097375Y-3331007I-95000J0D01*
G01*
X15097375Y-3331007D02*
G75*
G02*
X15287375Y-3331007I95000J0D01*
G01*
X15287377Y-5236059D02*
G75*
G02*
X15097377Y-5236059I-95000J0D01*
G01*
X15097377Y-5236059D02*
G75*
G02*
X15287377Y-5236059I95000J0D01*
G01*
X15562056Y-10113186D02*
G75*
G02*
X15372056Y-10113186I-95000J0D01*
G01*
X15372056Y-10113186D02*
G75*
G02*
X15562056Y-10113186I95000J0D01*
G01*
X16303375Y-3331007D02*
G75*
G02*
X16113375Y-3331007I-95000J0D01*
G01*
X16113375Y-3331007D02*
G75*
G02*
X16303375Y-3331007I95000J0D01*
G01*
X16303377Y-5236059D02*
G75*
G02*
X16113377Y-5236059I-95000J0D01*
G01*
X16113377Y-5236059D02*
G75*
G02*
X16303377Y-5236059I95000J0D01*
G01*
X19080073Y-3330781D02*
G75*
G02*
X18890073Y-3330781I-95000J0D01*
G01*
X18890073Y-3330781D02*
G75*
G02*
X19080073Y-3330781I95000J0D01*
G01*
X19080073Y-5235783D02*
G75*
G02*
X18890073Y-5235783I-95000J0D01*
G01*
X18890073Y-5235783D02*
G75*
G02*
X19080073Y-5235783I95000J0D01*
G01*
X19819486Y-10115889D02*
G75*
G02*
X19629486Y-10115889I-95000J0D01*
G01*
X19629486Y-10115889D02*
G75*
G02*
X19819486Y-10115889I95000J0D01*
G01*
X20096073Y-3330781D02*
G75*
G02*
X19906073Y-3330781I-95000J0D01*
G01*
X19906073Y-3330781D02*
G75*
G02*
X20096073Y-3330781I95000J0D01*
G01*
X20096073Y-5235783D02*
G75*
G02*
X19906073Y-5235783I-95000J0D01*
G01*
X19906073Y-5235783D02*
G75*
G02*
X20096073Y-5235783I95000J0D01*
G01*
X20748512Y-9704590D02*
G75*
G02*
X20558512Y-9704590I-95000J0D01*
G01*
X20558512Y-9704590D02*
G75*
G02*
X20748512Y-9704590I95000J0D01*
G01*
X20985073Y-3330781D02*
G75*
G02*
X20795073Y-3330781I-95000J0D01*
G01*
X20795073Y-3330781D02*
G75*
G02*
X20985073Y-3330781I95000J0D01*
G01*
X20985073Y-5235783D02*
G75*
G02*
X20795073Y-5235783I-95000J0D01*
G01*
X20795073Y-5235783D02*
G75*
G02*
X20985073Y-5235783I95000J0D01*
G01*
X20985073Y-7140785D02*
G75*
G02*
X20795073Y-7140785I-95000J0D01*
G01*
X20795073Y-7140785D02*
G75*
G02*
X20985073Y-7140785I95000J0D01*
G01*
X21775079Y-9370480D02*
G75*
G02*
X21585079Y-9370480I-95000J0D01*
G01*
X21585079Y-9370480D02*
G75*
G02*
X21775079Y-9370480I95000J0D01*
G01*
X22001073Y-3330781D02*
G75*
G02*
X21811073Y-3330781I-95000J0D01*
G01*
X21811073Y-3330781D02*
G75*
G02*
X22001073Y-3330781I95000J0D01*
G01*
X22001073Y-5235783D02*
G75*
G02*
X21811073Y-5235783I-95000J0D01*
G01*
X21811073Y-5235783D02*
G75*
G02*
X22001073Y-5235783I95000J0D01*
G01*
X22001073Y-7140785D02*
G75*
G02*
X21811073Y-7140785I-95000J0D01*
G01*
X21811073Y-7140785D02*
G75*
G02*
X22001073Y-7140785I95000J0D01*
G01*
X22769098Y-9160282D02*
G75*
G02*
X22579098Y-9160282I-95000J0D01*
G01*
X22579098Y-9160282D02*
G75*
G02*
X22769098Y-9160282I95000J0D01*
G01*
X22890075Y-3092581D02*
G75*
G02*
X22700075Y-3092581I-95000J0D01*
G01*
X22700075Y-3092581D02*
G75*
G02*
X22890075Y-3092581I95000J0D01*
G01*
X22890075Y-6902585D02*
G75*
G02*
X22700075Y-6902585I-95000J0D01*
G01*
X22700075Y-6902585D02*
G75*
G02*
X22890075Y-6902585I95000J0D01*
G01*
X22890076Y-4997583D02*
G75*
G02*
X22700076Y-4997583I-95000J0D01*
G01*
X22700076Y-4997583D02*
G75*
G02*
X22890076Y-4997583I95000J0D01*
G01*
X23842578Y-9045785D02*
G75*
G02*
X23652578Y-9045785I-95000J0D01*
G01*
X23652578Y-9045785D02*
G75*
G02*
X23842578Y-9045785I95000J0D01*
G01*
X23906075Y-3092581D02*
G75*
G02*
X23716075Y-3092581I-95000J0D01*
G01*
X23716075Y-3092581D02*
G75*
G02*
X23906075Y-3092581I95000J0D01*
G01*
X23906075Y-6902585D02*
G75*
G02*
X23716075Y-6902585I-95000J0D01*
G01*
X23716075Y-6902585D02*
G75*
G02*
X23906075Y-6902585I95000J0D01*
G01*
X23906076Y-4997583D02*
G75*
G02*
X23716076Y-4997583I-95000J0D01*
G01*
X23716076Y-4997583D02*
G75*
G02*
X23906076Y-4997583I95000J0D01*
G01*
X24795076Y-2854481D02*
G75*
G02*
X24605076Y-2854481I-95000J0D01*
G01*
X24605076Y-2854481D02*
G75*
G02*
X24795076Y-2854481I95000J0D01*
G01*
X24795076Y-4759483D02*
G75*
G02*
X24605076Y-4759483I-95000J0D01*
G01*
X24605076Y-4759483D02*
G75*
G02*
X24795076Y-4759483I95000J0D01*
G01*
X24795076Y-6664485D02*
G75*
G02*
X24605076Y-6664485I-95000J0D01*
G01*
X24605076Y-6664485D02*
G75*
G02*
X24795076Y-6664485I95000J0D01*
G01*
X24858578Y-9045785D02*
G75*
G02*
X24668578Y-9045785I-95000J0D01*
G01*
X24668578Y-9045785D02*
G75*
G02*
X24858578Y-9045785I95000J0D01*
G01*
X25811076Y-2854481D02*
G75*
G02*
X25621076Y-2854481I-95000J0D01*
G01*
X25621076Y-2854481D02*
G75*
G02*
X25811076Y-2854481I95000J0D01*
G01*
X25811076Y-4759483D02*
G75*
G02*
X25621076Y-4759483I-95000J0D01*
G01*
X25621076Y-4759483D02*
G75*
G02*
X25811076Y-4759483I95000J0D01*
G01*
X25811076Y-6664485D02*
G75*
G02*
X25621076Y-6664485I-95000J0D01*
G01*
X25621076Y-6664485D02*
G75*
G02*
X25811076Y-6664485I95000J0D01*
G01*
X26700078Y-3092581D02*
G75*
G02*
X26510078Y-3092581I-95000J0D01*
G01*
X26510078Y-3092581D02*
G75*
G02*
X26700078Y-3092581I95000J0D01*
G01*
X26700078Y-4997583D02*
G75*
G02*
X26510078Y-4997583I-95000J0D01*
G01*
X26510078Y-4997583D02*
G75*
G02*
X26700078Y-4997583I95000J0D01*
G01*
X26700078Y-6902585D02*
G75*
G02*
X26510078Y-6902585I-95000J0D01*
G01*
X26510078Y-6902585D02*
G75*
G02*
X26700078Y-6902585I95000J0D01*
G01*
X27716078Y-3092581D02*
G75*
G02*
X27526078Y-3092581I-95000J0D01*
G01*
X27526078Y-3092581D02*
G75*
G02*
X27716078Y-3092581I95000J0D01*
G01*
X27716078Y-4997583D02*
G75*
G02*
X27526078Y-4997583I-95000J0D01*
G01*
X27526078Y-4997583D02*
G75*
G02*
X27716078Y-4997583I95000J0D01*
G01*
X27716078Y-6902585D02*
G75*
G02*
X27526078Y-6902585I-95000J0D01*
G01*
X27526078Y-6902585D02*
G75*
G02*
X27716078Y-6902585I95000J0D01*
G01*
X28605079Y-3568881D02*
G75*
G02*
X28415079Y-3568881I-95000J0D01*
G01*
X28415079Y-3568881D02*
G75*
G02*
X28605079Y-3568881I95000J0D01*
G01*
X28605079Y-5473883D02*
G75*
G02*
X28415079Y-5473883I-95000J0D01*
G01*
X28415079Y-5473883D02*
G75*
G02*
X28605079Y-5473883I95000J0D01*
G01*
X28605079Y-7378885D02*
G75*
G02*
X28415079Y-7378885I-95000J0D01*
G01*
X28415079Y-7378885D02*
G75*
G02*
X28605079Y-7378885I95000J0D01*
G01*
X29621079Y-3568881D02*
G75*
G02*
X29431079Y-3568881I-95000J0D01*
G01*
X29431079Y-3568881D02*
G75*
G02*
X29621079Y-3568881I95000J0D01*
G01*
X29621079Y-5473883D02*
G75*
G02*
X29431079Y-5473883I-95000J0D01*
G01*
X29431079Y-5473883D02*
G75*
G02*
X29621079Y-5473883I95000J0D01*
G01*
X29621079Y-7378885D02*
G75*
G02*
X29431079Y-7378885I-95000J0D01*
G01*
X29431079Y-7378885D02*
G75*
G02*
X29621079Y-7378885I95000J0D01*
G01*
X30510081Y-3568881D02*
G75*
G02*
X30320081Y-3568881I-95000J0D01*
G01*
X30320081Y-3568881D02*
G75*
G02*
X30510081Y-3568881I95000J0D01*
G01*
X30510081Y-5473883D02*
G75*
G02*
X30320081Y-5473883I-95000J0D01*
G01*
X30320081Y-5473883D02*
G75*
G02*
X30510081Y-5473883I95000J0D01*
G01*
X30510081Y-7378885D02*
G75*
G02*
X30320081Y-7378885I-95000J0D01*
G01*
X30320081Y-7378885D02*
G75*
G02*
X30510081Y-7378885I95000J0D01*
G01*
X31526081Y-3568881D02*
G75*
G02*
X31336081Y-3568881I-95000J0D01*
G01*
X31336081Y-3568881D02*
G75*
G02*
X31526081Y-3568881I95000J0D01*
G01*
X31526081Y-5473883D02*
G75*
G02*
X31336081Y-5473883I-95000J0D01*
G01*
X31336081Y-5473883D02*
G75*
G02*
X31526081Y-5473883I95000J0D01*
G01*
X31526081Y-7378885D02*
G75*
G02*
X31336081Y-7378885I-95000J0D01*
G01*
X31336081Y-7378885D02*
G75*
G02*
X31526081Y-7378885I95000J0D01*
G01*
D14*
X3889373Y-3165207D02*
X3889373Y-3465207D01*
X3739373Y-3315207D02*
X4039373Y-3315207D01*
X3889373Y-5070209D02*
X3889373Y-5370209D01*
X3739373Y-5220209D02*
X4039373Y-5220209D01*
X3889373Y-6975210D02*
X3889373Y-7275210D01*
X3739373Y-7125210D02*
X4039373Y-7125210D01*
X4524373Y-2911207D02*
X4524373Y-3211207D01*
X4374373Y-3061207D02*
X4674373Y-3061207D01*
X4524373Y-4816209D02*
X4524373Y-5116209D01*
X4374373Y-4966209D02*
X4674373Y-4966209D01*
X4524373Y-6721210D02*
X4524373Y-7021210D01*
X4374373Y-6871210D02*
X4674373Y-6871210D01*
X5794375Y-3165207D02*
X5794375Y-3465207D01*
X5644375Y-3315207D02*
X5944375Y-3315207D01*
X5794375Y-5070209D02*
X5794375Y-5370209D01*
X5644375Y-5220209D02*
X5944375Y-5220209D01*
X5794375Y-6975210D02*
X5794375Y-7275210D01*
X5644375Y-7125210D02*
X5944375Y-7125210D01*
X6429375Y-2911207D02*
X6429375Y-3211207D01*
X6279375Y-3061207D02*
X6579375Y-3061207D01*
X6429375Y-4816209D02*
X6429375Y-5116209D01*
X6279375Y-4966209D02*
X6579375Y-4966209D01*
X6429375Y-6721210D02*
X6429375Y-7021210D01*
X6279375Y-6871210D02*
X6579375Y-6871210D01*
X7699375Y-2688907D02*
X7699375Y-2988907D01*
X7549375Y-2838907D02*
X7849375Y-2838907D01*
X7699377Y-4593959D02*
X7699377Y-4893959D01*
X7549377Y-4743959D02*
X7849377Y-4743959D01*
X7699377Y-6498960D02*
X7699377Y-6798960D01*
X7549377Y-6648960D02*
X7849377Y-6648960D01*
X8334375Y-2434907D02*
X8334375Y-2734907D01*
X8184375Y-2584907D02*
X8484375Y-2584907D01*
X8334377Y-4339959D02*
X8334377Y-4639959D01*
X8184377Y-4489959D02*
X8484377Y-4489959D01*
X8334377Y-6244960D02*
X8334377Y-6544960D01*
X8184377Y-6394960D02*
X8484377Y-6394960D01*
X9604375Y-2450807D02*
X9604375Y-2750807D01*
X9454375Y-2600807D02*
X9754375Y-2600807D01*
X9604377Y-4355859D02*
X9604377Y-4655859D01*
X9454377Y-4505859D02*
X9754377Y-4505859D01*
X9604377Y-6260860D02*
X9604377Y-6560860D01*
X9454377Y-6410860D02*
X9754377Y-6410860D01*
X10239375Y-2196807D02*
X10239375Y-2496807D01*
X10089375Y-2346807D02*
X10389375Y-2346807D01*
X10239377Y-4101858D02*
X10239377Y-4401859D01*
X10089377Y-4251859D02*
X10389377Y-4251859D01*
X10239377Y-6006860D02*
X10239377Y-6306860D01*
X10089377Y-6156860D02*
X10389377Y-6156860D01*
X10556879Y-8642087D02*
X10556879Y-8942087D01*
X10406879Y-8792087D02*
X10706879Y-8792087D01*
X11191879Y-8388087D02*
X11191879Y-8688087D01*
X11041879Y-8538087D02*
X11341879Y-8538087D01*
X11509375Y-2688907D02*
X11509375Y-2988907D01*
X11359375Y-2838907D02*
X11659375Y-2838907D01*
X11509377Y-4593959D02*
X11509377Y-4893959D01*
X11359377Y-4743959D02*
X11659377Y-4743959D01*
X11509377Y-6498960D02*
X11509377Y-6798960D01*
X11359377Y-6648960D02*
X11659377Y-6648960D01*
X12144375Y-2434907D02*
X12144375Y-2734907D01*
X11994375Y-2584907D02*
X12294375Y-2584907D01*
X12144377Y-4339959D02*
X12144377Y-4639959D01*
X11994377Y-4489959D02*
X12294377Y-4489959D01*
X12144377Y-6244960D02*
X12144377Y-6544960D01*
X11994377Y-6394960D02*
X12294377Y-6394960D01*
X12696155Y-8788360D02*
X12696155Y-9088360D01*
X12546155Y-8938360D02*
X12846155Y-8938360D01*
X13369964Y-8671217D02*
X13369964Y-8971217D01*
X13219964Y-8821217D02*
X13519964Y-8821217D01*
X13414375Y-2927007D02*
X13414375Y-3227007D01*
X13264375Y-3077007D02*
X13564375Y-3077007D01*
X13414377Y-4832059D02*
X13414377Y-5132059D01*
X13264377Y-4982059D02*
X13564377Y-4982059D01*
X13414377Y-6737060D02*
X13414377Y-7037060D01*
X13264377Y-6887060D02*
X13564377Y-6887060D01*
X14049375Y-2673007D02*
X14049375Y-2973007D01*
X13899375Y-2823007D02*
X14199375Y-2823007D01*
X14049377Y-4578059D02*
X14049377Y-4878059D01*
X13899377Y-4728059D02*
X14199377Y-4728059D01*
X14049377Y-6483060D02*
X14049377Y-6783060D01*
X13899377Y-6633060D02*
X14199377Y-6633060D01*
X14756974Y-9371054D02*
X14756974Y-9671054D01*
X14606974Y-9521054D02*
X14906974Y-9521054D01*
X15319375Y-2927007D02*
X15319375Y-3227007D01*
X15169375Y-3077007D02*
X15469375Y-3077007D01*
X15319377Y-4832059D02*
X15319377Y-5132059D01*
X15169377Y-4982059D02*
X15469377Y-4982059D01*
X15440440Y-9395848D02*
X15440440Y-9695848D01*
X15290440Y-9545848D02*
X15590440Y-9545848D01*
X15954375Y-2673007D02*
X15954375Y-2973007D01*
X15804375Y-2823007D02*
X16104375Y-2823007D01*
X15954377Y-4578059D02*
X15954377Y-4878059D01*
X15804377Y-4728059D02*
X16104377Y-4728059D01*
X19112073Y-2926781D02*
X19112073Y-3226781D01*
X18962073Y-3076781D02*
X19262073Y-3076781D01*
X19112073Y-4831783D02*
X19112073Y-5131783D01*
X18962073Y-4981783D02*
X19262073Y-4981783D01*
X19737790Y-9682220D02*
X19737790Y-9982220D01*
X19587790Y-9832220D02*
X19887790Y-9832220D01*
X19747073Y-2672782D02*
X19747073Y-2972781D01*
X19597073Y-2822781D02*
X19897073Y-2822781D01*
X19747073Y-4577783D02*
X19747073Y-4877783D01*
X19597073Y-4727783D02*
X19897073Y-4727783D01*
X20215606Y-9192902D02*
X20215606Y-9492902D01*
X20065606Y-9342902D02*
X20365606Y-9342902D01*
X21017073Y-2926781D02*
X21017073Y-3226781D01*
X20867073Y-3076781D02*
X21167073Y-3076781D01*
X21017073Y-4831783D02*
X21017073Y-5131783D01*
X20867073Y-4981783D02*
X21167073Y-4981783D01*
X21017073Y-6736785D02*
X21017073Y-7036785D01*
X20867073Y-6886785D02*
X21167073Y-6886785D01*
X21652073Y-2672782D02*
X21652073Y-2972781D01*
X21502073Y-2822781D02*
X21802073Y-2822781D01*
X21652073Y-4577783D02*
X21652073Y-4877783D01*
X21502073Y-4727783D02*
X21802073Y-4727783D01*
X21652073Y-6482785D02*
X21652073Y-6782785D01*
X21502073Y-6632785D02*
X21802073Y-6632785D01*
X21751782Y-8945701D02*
X21751782Y-9245701D01*
X21601782Y-9095701D02*
X21901782Y-9095701D01*
X22320494Y-8565822D02*
X22320494Y-8865822D01*
X22170494Y-8715822D02*
X22470494Y-8715822D01*
X22922075Y-2688582D02*
X22922075Y-2988581D01*
X22772075Y-2838581D02*
X23072075Y-2838581D01*
X22922075Y-6498585D02*
X22922075Y-6798585D01*
X22772075Y-6648585D02*
X23072075Y-6648585D01*
X22922076Y-4593583D02*
X22922076Y-4893583D01*
X22772076Y-4743583D02*
X23072076Y-4743583D01*
X23557075Y-2434582D02*
X23557075Y-2734582D01*
X23407075Y-2584582D02*
X23707075Y-2584582D01*
X23557075Y-6244585D02*
X23557075Y-6544585D01*
X23407075Y-6394585D02*
X23707075Y-6394585D01*
X23557076Y-4339583D02*
X23557076Y-4639583D01*
X23407076Y-4489583D02*
X23707076Y-4489583D01*
X23874578Y-8641785D02*
X23874578Y-8941785D01*
X23724578Y-8791785D02*
X24024578Y-8791785D01*
X24509578Y-8387785D02*
X24509578Y-8687785D01*
X24359578Y-8537785D02*
X24659578Y-8537785D01*
X24827076Y-2450482D02*
X24827076Y-2750482D01*
X24677076Y-2600482D02*
X24977076Y-2600482D01*
X24827076Y-4355483D02*
X24827076Y-4655483D01*
X24677076Y-4505483D02*
X24977076Y-4505483D01*
X24827076Y-6260485D02*
X24827076Y-6560485D01*
X24677076Y-6410485D02*
X24977076Y-6410485D01*
X25462076Y-2196482D02*
X25462076Y-2496482D01*
X25312076Y-2346482D02*
X25612076Y-2346482D01*
X25462076Y-4101483D02*
X25462076Y-4401483D01*
X25312076Y-4251483D02*
X25612076Y-4251483D01*
X25462076Y-6006485D02*
X25462076Y-6306485D01*
X25312076Y-6156485D02*
X25612076Y-6156485D01*
X26732078Y-2688582D02*
X26732078Y-2988581D01*
X26582078Y-2838581D02*
X26882078Y-2838581D01*
X26732078Y-4593583D02*
X26732078Y-4893583D01*
X26582078Y-4743583D02*
X26882078Y-4743583D01*
X26732078Y-6498585D02*
X26732078Y-6798585D01*
X26582078Y-6648585D02*
X26882078Y-6648585D01*
X27367078Y-2434582D02*
X27367078Y-2734582D01*
X27217078Y-2584582D02*
X27517078Y-2584582D01*
X27367078Y-4339583D02*
X27367078Y-4639583D01*
X27217078Y-4489583D02*
X27517078Y-4489583D01*
X27367078Y-6244585D02*
X27367078Y-6544585D01*
X27217078Y-6394585D02*
X27517078Y-6394585D01*
X28637079Y-3164881D02*
X28637079Y-3464881D01*
X28487079Y-3314881D02*
X28787079Y-3314881D01*
X28637079Y-5069883D02*
X28637079Y-5369883D01*
X28487079Y-5219883D02*
X28787079Y-5219883D01*
X28637079Y-6974885D02*
X28637079Y-7274885D01*
X28487079Y-7124885D02*
X28787079Y-7124885D01*
X29272079Y-2910881D02*
X29272079Y-3210881D01*
X29122079Y-3060881D02*
X29422079Y-3060881D01*
X29272079Y-4815883D02*
X29272079Y-5115883D01*
X29122079Y-4965883D02*
X29422079Y-4965883D01*
X29272079Y-6720885D02*
X29272079Y-7020885D01*
X29122079Y-6870885D02*
X29422079Y-6870885D01*
X30542081Y-3164881D02*
X30542081Y-3464881D01*
X30392081Y-3314881D02*
X30692081Y-3314881D01*
X30542081Y-5069883D02*
X30542081Y-5369883D01*
X30392081Y-5219883D02*
X30692081Y-5219883D01*
X30542081Y-6974885D02*
X30542081Y-7274885D01*
X30392081Y-7124885D02*
X30692081Y-7124885D01*
X31177081Y-2910881D02*
X31177081Y-3210881D01*
X31027081Y-3060881D02*
X31327081Y-3060881D01*
X31177081Y-4815883D02*
X31177081Y-5115883D01*
X31027081Y-4965883D02*
X31327081Y-4965883D01*
X31177081Y-6720885D02*
X31177081Y-7020885D01*
X31027081Y-6870885D02*
X31327081Y-6870885D01*
D15*
X4415332Y-3714166D02*
X4415332Y-3424249D01*
X4125415Y-3424249D01*
X4125415Y-3714166D01*
X4415332Y-3714166D01*
X4415332Y-5619167D02*
X4415332Y-5329251D01*
X4125415Y-5329251D01*
X4125415Y-5619167D01*
X4415332Y-5619167D01*
X4415332Y-7524169D02*
X4415332Y-7234252D01*
X4125415Y-7234252D01*
X4125415Y-7524169D01*
X4415332Y-7524169D01*
X6320333Y-3714166D02*
X6320333Y-3424249D01*
X6030417Y-3424249D01*
X6030417Y-3714166D01*
X6320333Y-3714166D01*
X6320333Y-5619167D02*
X6320333Y-5329251D01*
X6030417Y-5329251D01*
X6030417Y-5619167D01*
X6320333Y-5619167D01*
X6320333Y-7524169D02*
X6320333Y-7234252D01*
X6030417Y-7234252D01*
X6030417Y-7524169D01*
X6320333Y-7524169D01*
X8225333Y-3237866D02*
X8225333Y-2947949D01*
X7935417Y-2947949D01*
X7935417Y-3237866D01*
X8225333Y-3237866D01*
X8225335Y-5142917D02*
X8225335Y-4853000D01*
X7935418Y-4853000D01*
X7935418Y-5142917D01*
X8225335Y-5142917D01*
X8225335Y-7047918D02*
X8225335Y-6758002D01*
X7935418Y-6758002D01*
X7935418Y-7047918D01*
X8225335Y-7047918D01*
X10130333Y-2999766D02*
X10130333Y-2709849D01*
X9840417Y-2709849D01*
X9840417Y-2999766D01*
X10130333Y-2999766D01*
X10130335Y-4904817D02*
X10130335Y-4614900D01*
X9840418Y-4614900D01*
X9840418Y-4904817D01*
X10130335Y-4904817D01*
X10130335Y-6809818D02*
X10130335Y-6519902D01*
X9840418Y-6519902D01*
X9840418Y-6809818D01*
X10130335Y-6809818D01*
X11082837Y-9191045D02*
X11082837Y-8901129D01*
X10792921Y-8901129D01*
X10792921Y-9191045D01*
X11082837Y-9191045D01*
X12035333Y-3237866D02*
X12035333Y-2947949D01*
X11745417Y-2947949D01*
X11745417Y-3237866D01*
X12035333Y-3237866D01*
X12035335Y-5142917D02*
X12035335Y-4853000D01*
X11745418Y-4853000D01*
X11745418Y-5142917D01*
X12035335Y-5142917D01*
X12035335Y-7047918D02*
X12035335Y-6758002D01*
X11745418Y-6758002D01*
X11745418Y-7047918D01*
X12035335Y-7047918D01*
X13161327Y-9410642D02*
X13161327Y-9120725D01*
X12871410Y-9120725D01*
X12871410Y-9410642D01*
X13161327Y-9410642D01*
X13940333Y-3475966D02*
X13940333Y-3186049D01*
X13650417Y-3186049D01*
X13650417Y-3475966D01*
X13940333Y-3475966D01*
X13940335Y-5381017D02*
X13940335Y-5091100D01*
X13650418Y-5091100D01*
X13650418Y-5381017D01*
X13940335Y-5381017D01*
X13940335Y-7286018D02*
X13940335Y-6996102D01*
X13650418Y-6996102D01*
X13650418Y-7286018D01*
X13940335Y-7286018D01*
X15147498Y-10052502D02*
X15147498Y-9762586D01*
X14857582Y-9762586D01*
X14857582Y-10052502D01*
X15147498Y-10052502D01*
X15845333Y-3475966D02*
X15845333Y-3186049D01*
X15555417Y-3186049D01*
X15555417Y-3475966D01*
X15845333Y-3475966D01*
X15845335Y-5381017D02*
X15845335Y-5091100D01*
X15555418Y-5091100D01*
X15555418Y-5381017D01*
X15845335Y-5381017D01*
X19638031Y-3475740D02*
X19638031Y-3185823D01*
X19348115Y-3185823D01*
X19348115Y-3475740D01*
X19638031Y-3475740D01*
X19638031Y-5380741D02*
X19638031Y-5090825D01*
X19348115Y-5090825D01*
X19348115Y-5380741D01*
X19638031Y-5380741D01*
X20333958Y-10055198D02*
X20333958Y-9765281D01*
X20044041Y-9765281D01*
X20044041Y-10055198D01*
X20333958Y-10055198D01*
X21543031Y-3475740D02*
X21543031Y-3185823D01*
X21253115Y-3185823D01*
X21253115Y-3475740D01*
X21543031Y-3475740D01*
X21543031Y-5380741D02*
X21543031Y-5090825D01*
X21253115Y-5090825D01*
X21253115Y-5380741D01*
X21543031Y-5380741D01*
X21543031Y-7285743D02*
X21543031Y-6995826D01*
X21253115Y-6995826D01*
X21253115Y-7285743D01*
X21543031Y-7285743D01*
X22322047Y-9410339D02*
X22322047Y-9120423D01*
X22032130Y-9120423D01*
X22032130Y-9410339D01*
X22322047Y-9410339D01*
X23448033Y-3237540D02*
X23448033Y-2947623D01*
X23158116Y-2947623D01*
X23158116Y-3237540D01*
X23448033Y-3237540D01*
X23448033Y-7047543D02*
X23448033Y-6757626D01*
X23158116Y-6757626D01*
X23158116Y-7047543D01*
X23448033Y-7047543D01*
X23448034Y-5142541D02*
X23448034Y-4852625D01*
X23158118Y-4852625D01*
X23158118Y-5142541D01*
X23448034Y-5142541D01*
X24400536Y-9190743D02*
X24400536Y-8900826D01*
X24110619Y-8900826D01*
X24110619Y-9190743D01*
X24400536Y-9190743D01*
X25353034Y-2999440D02*
X25353034Y-2709523D01*
X25063118Y-2709523D01*
X25063118Y-2999440D01*
X25353034Y-2999440D01*
X25353034Y-4904441D02*
X25353034Y-4614525D01*
X25063118Y-4614525D01*
X25063118Y-4904441D01*
X25353034Y-4904441D01*
X25353034Y-6809443D02*
X25353034Y-6519526D01*
X25063118Y-6519526D01*
X25063118Y-6809443D01*
X25353034Y-6809443D01*
X27258036Y-3237540D02*
X27258036Y-2947623D01*
X26968119Y-2947623D01*
X26968119Y-3237540D01*
X27258036Y-3237540D01*
X27258036Y-5142541D02*
X27258036Y-4852625D01*
X26968119Y-4852625D01*
X26968119Y-5142541D01*
X27258036Y-5142541D01*
X27258036Y-7047543D02*
X27258036Y-6757626D01*
X26968119Y-6757626D01*
X26968119Y-7047543D01*
X27258036Y-7047543D01*
X29163038Y-3713840D02*
X29163038Y-3423923D01*
X28873121Y-3423923D01*
X28873121Y-3713840D01*
X29163038Y-3713840D01*
X29163038Y-5618841D02*
X29163038Y-5328925D01*
X28873121Y-5328925D01*
X28873121Y-5618841D01*
X29163038Y-5618841D01*
X29163038Y-7523843D02*
X29163038Y-7233926D01*
X28873121Y-7233926D01*
X28873121Y-7523843D01*
X29163038Y-7523843D01*
X31068039Y-3713840D02*
X31068039Y-3423923D01*
X30778123Y-3423923D01*
X30778123Y-3713840D01*
X31068039Y-3713840D01*
X31068039Y-5618841D02*
X31068039Y-5328925D01*
X30778123Y-5328925D01*
X30778123Y-5618841D01*
X31068039Y-5618841D01*
X31068039Y-7523843D02*
X31068039Y-7233926D01*
X30778123Y-7233926D01*
X30778123Y-7523843D01*
X31068039Y-7523843D01*
D11*
X3582210Y-12158030D02*
X3582210Y-11958030D01*
X3582210Y-11958030D02*
X3629829Y-11958030D01*
X3629829Y-11958030D02*
X3658401Y-11967554D01*
X3658401Y-11967554D02*
X3677449Y-11986602D01*
X3677449Y-11986602D02*
X3686972Y-12005649D01*
X3686972Y-12005649D02*
X3696496Y-12043744D01*
X3696496Y-12043744D02*
X3696496Y-12072316D01*
X3696496Y-12072316D02*
X3686972Y-12110411D01*
X3686972Y-12110411D02*
X3677449Y-12129459D01*
X3677449Y-12129459D02*
X3658401Y-12148506D01*
X3658401Y-12148506D02*
X3629829Y-12158030D01*
X3629829Y-12158030D02*
X3582210Y-12158030D01*
X3782210Y-12158030D02*
X3782210Y-12024697D01*
X3782210Y-12062792D02*
X3791734Y-12043744D01*
X3791734Y-12043744D02*
X3801258Y-12034221D01*
X3801258Y-12034221D02*
X3820306Y-12024697D01*
X3820306Y-12024697D02*
X3839353Y-12024697D01*
X3906020Y-12158030D02*
X3906020Y-12024697D01*
X3906020Y-11958030D02*
X3896496Y-11967554D01*
X3896496Y-11967554D02*
X3906020Y-11977078D01*
X3906020Y-11977078D02*
X3915544Y-11967554D01*
X3915544Y-11967554D02*
X3906020Y-11958030D01*
X3906020Y-11958030D02*
X3906020Y-11977078D01*
X4029829Y-12158030D02*
X4010782Y-12148506D01*
X4010782Y-12148506D02*
X4001258Y-12129459D01*
X4001258Y-12129459D02*
X4001258Y-11958030D01*
X4134591Y-12158030D02*
X4115544Y-12148506D01*
X4115544Y-12148506D02*
X4106020Y-12129459D01*
X4106020Y-12129459D02*
X4106020Y-11958030D01*
X4363163Y-12158030D02*
X4363163Y-11958030D01*
X4363163Y-11958030D02*
X4429830Y-12100887D01*
X4429830Y-12100887D02*
X4496496Y-11958030D01*
X4496496Y-11958030D02*
X4496496Y-12158030D01*
X4677449Y-12158030D02*
X4677449Y-12053268D01*
X4677449Y-12053268D02*
X4667925Y-12034221D01*
X4667925Y-12034221D02*
X4648877Y-12024697D01*
X4648877Y-12024697D02*
X4610782Y-12024697D01*
X4610782Y-12024697D02*
X4591734Y-12034221D01*
X4677449Y-12148506D02*
X4658401Y-12158030D01*
X4658401Y-12158030D02*
X4610782Y-12158030D01*
X4610782Y-12158030D02*
X4591734Y-12148506D01*
X4591734Y-12148506D02*
X4582211Y-12129459D01*
X4582211Y-12129459D02*
X4582211Y-12110411D01*
X4582211Y-12110411D02*
X4591734Y-12091364D01*
X4591734Y-12091364D02*
X4610782Y-12081840D01*
X4610782Y-12081840D02*
X4658401Y-12081840D01*
X4658401Y-12081840D02*
X4677449Y-12072316D01*
X4772687Y-12024697D02*
X4772687Y-12224697D01*
X4772687Y-12034221D02*
X4791734Y-12024697D01*
X4791734Y-12024697D02*
X4829830Y-12024697D01*
X4829830Y-12024697D02*
X4848877Y-12034221D01*
X4848877Y-12034221D02*
X4858401Y-12043744D01*
X4858401Y-12043744D02*
X4867925Y-12062792D01*
X4867925Y-12062792D02*
X4867925Y-12119935D01*
X4867925Y-12119935D02*
X4858401Y-12138983D01*
X4858401Y-12138983D02*
X4848877Y-12148506D01*
X4848877Y-12148506D02*
X4829830Y-12158030D01*
X4829830Y-12158030D02*
X4791734Y-12158030D01*
X4791734Y-12158030D02*
X4772687Y-12148506D01*
X4953639Y-12138983D02*
X4963163Y-12148506D01*
X4963163Y-12148506D02*
X4953639Y-12158030D01*
X4953639Y-12158030D02*
X4944115Y-12148506D01*
X4944115Y-12148506D02*
X4953639Y-12138983D01*
X4953639Y-12138983D02*
X4953639Y-12158030D01*
X4953639Y-12034221D02*
X4963163Y-12043744D01*
X4963163Y-12043744D02*
X4953639Y-12053268D01*
X4953639Y-12053268D02*
X4944115Y-12043744D01*
X4944115Y-12043744D02*
X4953639Y-12034221D01*
X4953639Y-12034221D02*
X4953639Y-12053268D01*
D12*
X3271434Y-12461546D02*
X3321434Y-12511546D01*
X3321434Y-12461546D02*
X3271434Y-12511546D01*
D11*
X3620306Y-12378030D02*
X3639353Y-12378030D01*
X3639353Y-12378030D02*
X3658401Y-12387554D01*
X3658401Y-12387554D02*
X3667925Y-12397078D01*
X3667925Y-12397078D02*
X3677449Y-12416125D01*
X3677449Y-12416125D02*
X3686972Y-12454221D01*
X3686972Y-12454221D02*
X3686972Y-12501840D01*
X3686972Y-12501840D02*
X3677449Y-12539935D01*
X3677449Y-12539935D02*
X3667925Y-12558983D01*
X3667925Y-12558983D02*
X3658401Y-12568506D01*
X3658401Y-12568506D02*
X3639353Y-12578030D01*
X3639353Y-12578030D02*
X3620306Y-12578030D01*
X3620306Y-12578030D02*
X3601258Y-12568506D01*
X3601258Y-12568506D02*
X3591734Y-12558983D01*
X3591734Y-12558983D02*
X3582210Y-12539935D01*
X3582210Y-12539935D02*
X3572687Y-12501840D01*
X3572687Y-12501840D02*
X3572687Y-12454221D01*
X3572687Y-12454221D02*
X3582210Y-12416125D01*
X3582210Y-12416125D02*
X3591734Y-12397078D01*
X3591734Y-12397078D02*
X3601258Y-12387554D01*
X3601258Y-12387554D02*
X3620306Y-12378030D01*
X3772687Y-12558983D02*
X3782210Y-12568506D01*
X3782210Y-12568506D02*
X3772687Y-12578030D01*
X3772687Y-12578030D02*
X3763163Y-12568506D01*
X3763163Y-12568506D02*
X3772687Y-12558983D01*
X3772687Y-12558983D02*
X3772687Y-12578030D01*
X3963163Y-12378030D02*
X3867925Y-12378030D01*
X3867925Y-12378030D02*
X3858401Y-12473268D01*
X3858401Y-12473268D02*
X3867925Y-12463744D01*
X3867925Y-12463744D02*
X3886972Y-12454221D01*
X3886972Y-12454221D02*
X3934591Y-12454221D01*
X3934591Y-12454221D02*
X3953639Y-12463744D01*
X3953639Y-12463744D02*
X3963163Y-12473268D01*
X3963163Y-12473268D02*
X3972687Y-12492316D01*
X3972687Y-12492316D02*
X3972687Y-12539935D01*
X3972687Y-12539935D02*
X3963163Y-12558983D01*
X3963163Y-12558983D02*
X3953639Y-12568506D01*
X3953639Y-12568506D02*
X3934591Y-12578030D01*
X3934591Y-12578030D02*
X3886972Y-12578030D01*
X3886972Y-12578030D02*
X3867925Y-12568506D01*
X3867925Y-12568506D02*
X3858401Y-12558983D01*
X4096496Y-12378030D02*
X4115544Y-12378030D01*
X4115544Y-12378030D02*
X4134591Y-12387554D01*
X4134591Y-12387554D02*
X4144115Y-12397078D01*
X4144115Y-12397078D02*
X4153639Y-12416125D01*
X4153639Y-12416125D02*
X4163163Y-12454221D01*
X4163163Y-12454221D02*
X4163163Y-12501840D01*
X4163163Y-12501840D02*
X4153639Y-12539935D01*
X4153639Y-12539935D02*
X4144115Y-12558983D01*
X4144115Y-12558983D02*
X4134591Y-12568506D01*
X4134591Y-12568506D02*
X4115544Y-12578030D01*
X4115544Y-12578030D02*
X4096496Y-12578030D01*
X4096496Y-12578030D02*
X4077449Y-12568506D01*
X4077449Y-12568506D02*
X4067925Y-12558983D01*
X4067925Y-12558983D02*
X4058401Y-12539935D01*
X4058401Y-12539935D02*
X4048877Y-12501840D01*
X4048877Y-12501840D02*
X4048877Y-12454221D01*
X4048877Y-12454221D02*
X4058401Y-12416125D01*
X4058401Y-12416125D02*
X4067925Y-12397078D01*
X4067925Y-12397078D02*
X4077449Y-12387554D01*
X4077449Y-12387554D02*
X4096496Y-12378030D01*
X4286972Y-12378030D02*
X4306020Y-12378030D01*
X4306020Y-12378030D02*
X4325068Y-12387554D01*
X4325068Y-12387554D02*
X4334592Y-12397078D01*
X4334592Y-12397078D02*
X4344115Y-12416125D01*
X4344115Y-12416125D02*
X4353639Y-12454221D01*
X4353639Y-12454221D02*
X4353639Y-12501840D01*
X4353639Y-12501840D02*
X4344115Y-12539935D01*
X4344115Y-12539935D02*
X4334592Y-12558983D01*
X4334592Y-12558983D02*
X4325068Y-12568506D01*
X4325068Y-12568506D02*
X4306020Y-12578030D01*
X4306020Y-12578030D02*
X4286972Y-12578030D01*
X4286972Y-12578030D02*
X4267925Y-12568506D01*
X4267925Y-12568506D02*
X4258401Y-12558983D01*
X4258401Y-12558983D02*
X4248877Y-12539935D01*
X4248877Y-12539935D02*
X4239353Y-12501840D01*
X4239353Y-12501840D02*
X4239353Y-12454221D01*
X4239353Y-12454221D02*
X4248877Y-12416125D01*
X4248877Y-12416125D02*
X4258401Y-12397078D01*
X4258401Y-12397078D02*
X4267925Y-12387554D01*
X4267925Y-12387554D02*
X4286972Y-12378030D01*
X4439353Y-12578030D02*
X4439353Y-12444697D01*
X4439353Y-12463744D02*
X4448877Y-12454221D01*
X4448877Y-12454221D02*
X4467925Y-12444697D01*
X4467925Y-12444697D02*
X4496496Y-12444697D01*
X4496496Y-12444697D02*
X4515544Y-12454221D01*
X4515544Y-12454221D02*
X4525068Y-12473268D01*
X4525068Y-12473268D02*
X4525068Y-12578030D01*
X4525068Y-12473268D02*
X4534592Y-12454221D01*
X4534592Y-12454221D02*
X4553639Y-12444697D01*
X4553639Y-12444697D02*
X4582211Y-12444697D01*
X4582211Y-12444697D02*
X4601258Y-12454221D01*
X4601258Y-12454221D02*
X4610782Y-12473268D01*
X4610782Y-12473268D02*
X4610782Y-12578030D01*
X4706020Y-12578030D02*
X4706020Y-12444697D01*
X4706020Y-12463744D02*
X4715544Y-12454221D01*
X4715544Y-12454221D02*
X4734592Y-12444697D01*
X4734592Y-12444697D02*
X4763163Y-12444697D01*
X4763163Y-12444697D02*
X4782211Y-12454221D01*
X4782211Y-12454221D02*
X4791734Y-12473268D01*
X4791734Y-12473268D02*
X4791734Y-12578030D01*
X4791734Y-12473268D02*
X4801258Y-12454221D01*
X4801258Y-12454221D02*
X4820306Y-12444697D01*
X4820306Y-12444697D02*
X4848877Y-12444697D01*
X4848877Y-12444697D02*
X4867925Y-12454221D01*
X4867925Y-12454221D02*
X4877449Y-12473268D01*
X4877449Y-12473268D02*
X4877449Y-12578030D01*
X5267925Y-12368506D02*
X5096496Y-12625649D01*
X5525068Y-12378030D02*
X5544116Y-12378030D01*
X5544116Y-12378030D02*
X5563163Y-12387554D01*
X5563163Y-12387554D02*
X5572687Y-12397078D01*
X5572687Y-12397078D02*
X5582211Y-12416125D01*
X5582211Y-12416125D02*
X5591735Y-12454221D01*
X5591735Y-12454221D02*
X5591735Y-12501840D01*
X5591735Y-12501840D02*
X5582211Y-12539935D01*
X5582211Y-12539935D02*
X5572687Y-12558983D01*
X5572687Y-12558983D02*
X5563163Y-12568506D01*
X5563163Y-12568506D02*
X5544116Y-12578030D01*
X5544116Y-12578030D02*
X5525068Y-12578030D01*
X5525068Y-12578030D02*
X5506020Y-12568506D01*
X5506020Y-12568506D02*
X5496496Y-12558983D01*
X5496496Y-12558983D02*
X5486973Y-12539935D01*
X5486973Y-12539935D02*
X5477449Y-12501840D01*
X5477449Y-12501840D02*
X5477449Y-12454221D01*
X5477449Y-12454221D02*
X5486973Y-12416125D01*
X5486973Y-12416125D02*
X5496496Y-12397078D01*
X5496496Y-12397078D02*
X5506020Y-12387554D01*
X5506020Y-12387554D02*
X5525068Y-12378030D01*
X5677449Y-12558983D02*
X5686973Y-12568506D01*
X5686973Y-12568506D02*
X5677449Y-12578030D01*
X5677449Y-12578030D02*
X5667925Y-12568506D01*
X5667925Y-12568506D02*
X5677449Y-12558983D01*
X5677449Y-12558983D02*
X5677449Y-12578030D01*
X5810782Y-12378030D02*
X5829830Y-12378030D01*
X5829830Y-12378030D02*
X5848877Y-12387554D01*
X5848877Y-12387554D02*
X5858401Y-12397078D01*
X5858401Y-12397078D02*
X5867925Y-12416125D01*
X5867925Y-12416125D02*
X5877449Y-12454221D01*
X5877449Y-12454221D02*
X5877449Y-12501840D01*
X5877449Y-12501840D02*
X5867925Y-12539935D01*
X5867925Y-12539935D02*
X5858401Y-12558983D01*
X5858401Y-12558983D02*
X5848877Y-12568506D01*
X5848877Y-12568506D02*
X5829830Y-12578030D01*
X5829830Y-12578030D02*
X5810782Y-12578030D01*
X5810782Y-12578030D02*
X5791734Y-12568506D01*
X5791734Y-12568506D02*
X5782211Y-12558983D01*
X5782211Y-12558983D02*
X5772687Y-12539935D01*
X5772687Y-12539935D02*
X5763163Y-12501840D01*
X5763163Y-12501840D02*
X5763163Y-12454221D01*
X5763163Y-12454221D02*
X5772687Y-12416125D01*
X5772687Y-12416125D02*
X5782211Y-12397078D01*
X5782211Y-12397078D02*
X5791734Y-12387554D01*
X5791734Y-12387554D02*
X5810782Y-12378030D01*
X6067925Y-12578030D02*
X5953639Y-12578030D01*
X6010782Y-12578030D02*
X6010782Y-12378030D01*
X6010782Y-12378030D02*
X5991734Y-12406602D01*
X5991734Y-12406602D02*
X5972687Y-12425649D01*
X5972687Y-12425649D02*
X5953639Y-12435173D01*
X6163163Y-12578030D02*
X6201258Y-12578030D01*
X6201258Y-12578030D02*
X6220306Y-12568506D01*
X6220306Y-12568506D02*
X6229830Y-12558983D01*
X6229830Y-12558983D02*
X6248877Y-12530411D01*
X6248877Y-12530411D02*
X6258401Y-12492316D01*
X6258401Y-12492316D02*
X6258401Y-12416125D01*
X6258401Y-12416125D02*
X6248877Y-12397078D01*
X6248877Y-12397078D02*
X6239354Y-12387554D01*
X6239354Y-12387554D02*
X6220306Y-12378030D01*
X6220306Y-12378030D02*
X6182211Y-12378030D01*
X6182211Y-12378030D02*
X6163163Y-12387554D01*
X6163163Y-12387554D02*
X6153639Y-12397078D01*
X6153639Y-12397078D02*
X6144115Y-12416125D01*
X6144115Y-12416125D02*
X6144115Y-12463744D01*
X6144115Y-12463744D02*
X6153639Y-12482792D01*
X6153639Y-12482792D02*
X6163163Y-12492316D01*
X6163163Y-12492316D02*
X6182211Y-12501840D01*
X6182211Y-12501840D02*
X6220306Y-12501840D01*
X6220306Y-12501840D02*
X6239354Y-12492316D01*
X6239354Y-12492316D02*
X6248877Y-12482792D01*
X6248877Y-12482792D02*
X6258401Y-12463744D01*
X6325068Y-12378030D02*
X6458401Y-12378030D01*
X6458401Y-12378030D02*
X6372687Y-12578030D01*
X6525068Y-12378030D02*
X6525068Y-12416125D01*
X6601258Y-12378030D02*
X6601258Y-12416125D01*
X6896497Y-12654221D02*
X6886973Y-12644697D01*
X6886973Y-12644697D02*
X6867925Y-12616125D01*
X6867925Y-12616125D02*
X6858401Y-12597078D01*
X6858401Y-12597078D02*
X6848877Y-12568506D01*
X6848877Y-12568506D02*
X6839354Y-12520887D01*
X6839354Y-12520887D02*
X6839354Y-12482792D01*
X6839354Y-12482792D02*
X6848877Y-12435173D01*
X6848877Y-12435173D02*
X6858401Y-12406602D01*
X6858401Y-12406602D02*
X6867925Y-12387554D01*
X6867925Y-12387554D02*
X6886973Y-12358983D01*
X6886973Y-12358983D02*
X6896497Y-12349459D01*
X7067925Y-12378030D02*
X6972687Y-12378030D01*
X6972687Y-12378030D02*
X6963163Y-12473268D01*
X6963163Y-12473268D02*
X6972687Y-12463744D01*
X6972687Y-12463744D02*
X6991735Y-12454221D01*
X6991735Y-12454221D02*
X7039354Y-12454221D01*
X7039354Y-12454221D02*
X7058401Y-12463744D01*
X7058401Y-12463744D02*
X7067925Y-12473268D01*
X7067925Y-12473268D02*
X7077449Y-12492316D01*
X7077449Y-12492316D02*
X7077449Y-12539935D01*
X7077449Y-12539935D02*
X7067925Y-12558983D01*
X7067925Y-12558983D02*
X7058401Y-12568506D01*
X7058401Y-12568506D02*
X7039354Y-12578030D01*
X7039354Y-12578030D02*
X6991735Y-12578030D01*
X6991735Y-12578030D02*
X6972687Y-12568506D01*
X6972687Y-12568506D02*
X6963163Y-12558983D01*
X7248877Y-12444697D02*
X7248877Y-12578030D01*
X7201258Y-12368506D02*
X7153639Y-12511364D01*
X7153639Y-12511364D02*
X7277449Y-12511364D01*
X7506020Y-12578030D02*
X7506020Y-12378030D01*
X7591735Y-12578030D02*
X7591735Y-12473268D01*
X7591735Y-12473268D02*
X7582211Y-12454221D01*
X7582211Y-12454221D02*
X7563163Y-12444697D01*
X7563163Y-12444697D02*
X7534592Y-12444697D01*
X7534592Y-12444697D02*
X7515544Y-12454221D01*
X7515544Y-12454221D02*
X7506020Y-12463744D01*
X7715544Y-12578030D02*
X7696497Y-12568506D01*
X7696497Y-12568506D02*
X7686973Y-12558983D01*
X7686973Y-12558983D02*
X7677449Y-12539935D01*
X7677449Y-12539935D02*
X7677449Y-12482792D01*
X7677449Y-12482792D02*
X7686973Y-12463744D01*
X7686973Y-12463744D02*
X7696497Y-12454221D01*
X7696497Y-12454221D02*
X7715544Y-12444697D01*
X7715544Y-12444697D02*
X7744116Y-12444697D01*
X7744116Y-12444697D02*
X7763163Y-12454221D01*
X7763163Y-12454221D02*
X7772687Y-12463744D01*
X7772687Y-12463744D02*
X7782211Y-12482792D01*
X7782211Y-12482792D02*
X7782211Y-12539935D01*
X7782211Y-12539935D02*
X7772687Y-12558983D01*
X7772687Y-12558983D02*
X7763163Y-12568506D01*
X7763163Y-12568506D02*
X7744116Y-12578030D01*
X7744116Y-12578030D02*
X7715544Y-12578030D01*
X7896497Y-12578030D02*
X7877449Y-12568506D01*
X7877449Y-12568506D02*
X7867925Y-12549459D01*
X7867925Y-12549459D02*
X7867925Y-12378030D01*
X8048878Y-12568506D02*
X8029830Y-12578030D01*
X8029830Y-12578030D02*
X7991735Y-12578030D01*
X7991735Y-12578030D02*
X7972687Y-12568506D01*
X7972687Y-12568506D02*
X7963163Y-12549459D01*
X7963163Y-12549459D02*
X7963163Y-12473268D01*
X7963163Y-12473268D02*
X7972687Y-12454221D01*
X7972687Y-12454221D02*
X7991735Y-12444697D01*
X7991735Y-12444697D02*
X8029830Y-12444697D01*
X8029830Y-12444697D02*
X8048878Y-12454221D01*
X8048878Y-12454221D02*
X8058401Y-12473268D01*
X8058401Y-12473268D02*
X8058401Y-12492316D01*
X8058401Y-12492316D02*
X7963163Y-12511364D01*
X8134592Y-12568506D02*
X8153639Y-12578030D01*
X8153639Y-12578030D02*
X8191735Y-12578030D01*
X8191735Y-12578030D02*
X8210782Y-12568506D01*
X8210782Y-12568506D02*
X8220306Y-12549459D01*
X8220306Y-12549459D02*
X8220306Y-12539935D01*
X8220306Y-12539935D02*
X8210782Y-12520887D01*
X8210782Y-12520887D02*
X8191735Y-12511364D01*
X8191735Y-12511364D02*
X8163163Y-12511364D01*
X8163163Y-12511364D02*
X8144116Y-12501840D01*
X8144116Y-12501840D02*
X8134592Y-12482792D01*
X8134592Y-12482792D02*
X8134592Y-12473268D01*
X8134592Y-12473268D02*
X8144116Y-12454221D01*
X8144116Y-12454221D02*
X8163163Y-12444697D01*
X8163163Y-12444697D02*
X8191735Y-12444697D01*
X8191735Y-12444697D02*
X8210782Y-12454221D01*
X8286973Y-12654221D02*
X8296497Y-12644697D01*
X8296497Y-12644697D02*
X8315544Y-12616125D01*
X8315544Y-12616125D02*
X8325068Y-12597078D01*
X8325068Y-12597078D02*
X8334592Y-12568506D01*
X8334592Y-12568506D02*
X8344116Y-12520887D01*
X8344116Y-12520887D02*
X8344116Y-12482792D01*
X8344116Y-12482792D02*
X8334592Y-12435173D01*
X8334592Y-12435173D02*
X8325068Y-12406602D01*
X8325068Y-12406602D02*
X8315544Y-12387554D01*
X8315544Y-12387554D02*
X8296497Y-12358983D01*
X8296497Y-12358983D02*
X8286973Y-12349459D01*
X8648878Y-12654221D02*
X8639354Y-12644697D01*
X8639354Y-12644697D02*
X8620306Y-12616125D01*
X8620306Y-12616125D02*
X8610782Y-12597078D01*
X8610782Y-12597078D02*
X8601259Y-12568506D01*
X8601259Y-12568506D02*
X8591735Y-12520887D01*
X8591735Y-12520887D02*
X8591735Y-12482792D01*
X8591735Y-12482792D02*
X8601259Y-12435173D01*
X8601259Y-12435173D02*
X8610782Y-12406602D01*
X8610782Y-12406602D02*
X8620306Y-12387554D01*
X8620306Y-12387554D02*
X8639354Y-12358983D01*
X8639354Y-12358983D02*
X8648878Y-12349459D01*
X8725068Y-12444697D02*
X8725068Y-12578030D01*
X8725068Y-12463744D02*
X8734592Y-12454221D01*
X8734592Y-12454221D02*
X8753640Y-12444697D01*
X8753640Y-12444697D02*
X8782211Y-12444697D01*
X8782211Y-12444697D02*
X8801259Y-12454221D01*
X8801259Y-12454221D02*
X8810782Y-12473268D01*
X8810782Y-12473268D02*
X8810782Y-12578030D01*
X8934592Y-12578030D02*
X8915544Y-12568506D01*
X8915544Y-12568506D02*
X8906021Y-12558983D01*
X8906021Y-12558983D02*
X8896497Y-12539935D01*
X8896497Y-12539935D02*
X8896497Y-12482792D01*
X8896497Y-12482792D02*
X8906021Y-12463744D01*
X8906021Y-12463744D02*
X8915544Y-12454221D01*
X8915544Y-12454221D02*
X8934592Y-12444697D01*
X8934592Y-12444697D02*
X8963163Y-12444697D01*
X8963163Y-12444697D02*
X8982211Y-12454221D01*
X8982211Y-12454221D02*
X8991735Y-12463744D01*
X8991735Y-12463744D02*
X9001259Y-12482792D01*
X9001259Y-12482792D02*
X9001259Y-12539935D01*
X9001259Y-12539935D02*
X8991735Y-12558983D01*
X8991735Y-12558983D02*
X8982211Y-12568506D01*
X8982211Y-12568506D02*
X8963163Y-12578030D01*
X8963163Y-12578030D02*
X8934592Y-12578030D01*
X9058402Y-12444697D02*
X9134592Y-12444697D01*
X9086973Y-12378030D02*
X9086973Y-12549459D01*
X9086973Y-12549459D02*
X9096497Y-12568506D01*
X9096497Y-12568506D02*
X9115544Y-12578030D01*
X9115544Y-12578030D02*
X9134592Y-12578030D01*
X9353640Y-12444697D02*
X9353640Y-12644697D01*
X9353640Y-12454221D02*
X9372687Y-12444697D01*
X9372687Y-12444697D02*
X9410783Y-12444697D01*
X9410783Y-12444697D02*
X9429830Y-12454221D01*
X9429830Y-12454221D02*
X9439354Y-12463744D01*
X9439354Y-12463744D02*
X9448878Y-12482792D01*
X9448878Y-12482792D02*
X9448878Y-12539935D01*
X9448878Y-12539935D02*
X9439354Y-12558983D01*
X9439354Y-12558983D02*
X9429830Y-12568506D01*
X9429830Y-12568506D02*
X9410783Y-12578030D01*
X9410783Y-12578030D02*
X9372687Y-12578030D01*
X9372687Y-12578030D02*
X9353640Y-12568506D01*
X9563163Y-12578030D02*
X9544116Y-12568506D01*
X9544116Y-12568506D02*
X9534592Y-12549459D01*
X9534592Y-12549459D02*
X9534592Y-12378030D01*
X9725068Y-12578030D02*
X9725068Y-12473268D01*
X9725068Y-12473268D02*
X9715544Y-12454221D01*
X9715544Y-12454221D02*
X9696497Y-12444697D01*
X9696497Y-12444697D02*
X9658402Y-12444697D01*
X9658402Y-12444697D02*
X9639354Y-12454221D01*
X9725068Y-12568506D02*
X9706021Y-12578030D01*
X9706021Y-12578030D02*
X9658402Y-12578030D01*
X9658402Y-12578030D02*
X9639354Y-12568506D01*
X9639354Y-12568506D02*
X9629830Y-12549459D01*
X9629830Y-12549459D02*
X9629830Y-12530411D01*
X9629830Y-12530411D02*
X9639354Y-12511364D01*
X9639354Y-12511364D02*
X9658402Y-12501840D01*
X9658402Y-12501840D02*
X9706021Y-12501840D01*
X9706021Y-12501840D02*
X9725068Y-12492316D01*
X9791735Y-12444697D02*
X9867925Y-12444697D01*
X9820306Y-12378030D02*
X9820306Y-12549459D01*
X9820306Y-12549459D02*
X9829830Y-12568506D01*
X9829830Y-12568506D02*
X9848878Y-12578030D01*
X9848878Y-12578030D02*
X9867925Y-12578030D01*
X10010783Y-12568506D02*
X9991735Y-12578030D01*
X9991735Y-12578030D02*
X9953640Y-12578030D01*
X9953640Y-12578030D02*
X9934592Y-12568506D01*
X9934592Y-12568506D02*
X9925068Y-12549459D01*
X9925068Y-12549459D02*
X9925068Y-12473268D01*
X9925068Y-12473268D02*
X9934592Y-12454221D01*
X9934592Y-12454221D02*
X9953640Y-12444697D01*
X9953640Y-12444697D02*
X9991735Y-12444697D01*
X9991735Y-12444697D02*
X10010783Y-12454221D01*
X10010783Y-12454221D02*
X10020306Y-12473268D01*
X10020306Y-12473268D02*
X10020306Y-12492316D01*
X10020306Y-12492316D02*
X9925068Y-12511364D01*
X10191735Y-12578030D02*
X10191735Y-12378030D01*
X10191735Y-12568506D02*
X10172687Y-12578030D01*
X10172687Y-12578030D02*
X10134592Y-12578030D01*
X10134592Y-12578030D02*
X10115544Y-12568506D01*
X10115544Y-12568506D02*
X10106021Y-12558983D01*
X10106021Y-12558983D02*
X10096497Y-12539935D01*
X10096497Y-12539935D02*
X10096497Y-12482792D01*
X10096497Y-12482792D02*
X10106021Y-12463744D01*
X10106021Y-12463744D02*
X10115544Y-12454221D01*
X10115544Y-12454221D02*
X10134592Y-12444697D01*
X10134592Y-12444697D02*
X10172687Y-12444697D01*
X10172687Y-12444697D02*
X10191735Y-12454221D01*
X10267925Y-12654221D02*
X10277449Y-12644697D01*
X10277449Y-12644697D02*
X10296497Y-12616125D01*
X10296497Y-12616125D02*
X10306021Y-12597078D01*
X10306021Y-12597078D02*
X10315544Y-12568506D01*
X10315544Y-12568506D02*
X10325068Y-12520887D01*
X10325068Y-12520887D02*
X10325068Y-12482792D01*
X10325068Y-12482792D02*
X10315544Y-12435173D01*
X10315544Y-12435173D02*
X10306021Y-12406602D01*
X10306021Y-12406602D02*
X10296497Y-12387554D01*
X10296497Y-12387554D02*
X10277449Y-12358983D01*
X10277449Y-12358983D02*
X10267925Y-12349459D01*
D13*
X3321434Y-12750546D02*
G75*
G02*
X3131434Y-12750546I-95000J0D01*
G01*
X3131434Y-12750546D02*
G75*
G02*
X3321434Y-12750546I95000J0D01*
G01*
D11*
X3686972Y-12842030D02*
X3572687Y-12842030D01*
X3629829Y-12842030D02*
X3629829Y-12642030D01*
X3629829Y-12642030D02*
X3610782Y-12670602D01*
X3610782Y-12670602D02*
X3591734Y-12689649D01*
X3591734Y-12689649D02*
X3572687Y-12699173D01*
X3772687Y-12822983D02*
X3782210Y-12832506D01*
X3782210Y-12832506D02*
X3772687Y-12842030D01*
X3772687Y-12842030D02*
X3763163Y-12832506D01*
X3763163Y-12832506D02*
X3772687Y-12822983D01*
X3772687Y-12822983D02*
X3772687Y-12842030D01*
X3877449Y-12842030D02*
X3915544Y-12842030D01*
X3915544Y-12842030D02*
X3934591Y-12832506D01*
X3934591Y-12832506D02*
X3944115Y-12822983D01*
X3944115Y-12822983D02*
X3963163Y-12794411D01*
X3963163Y-12794411D02*
X3972687Y-12756316D01*
X3972687Y-12756316D02*
X3972687Y-12680125D01*
X3972687Y-12680125D02*
X3963163Y-12661078D01*
X3963163Y-12661078D02*
X3953639Y-12651554D01*
X3953639Y-12651554D02*
X3934591Y-12642030D01*
X3934591Y-12642030D02*
X3896496Y-12642030D01*
X3896496Y-12642030D02*
X3877449Y-12651554D01*
X3877449Y-12651554D02*
X3867925Y-12661078D01*
X3867925Y-12661078D02*
X3858401Y-12680125D01*
X3858401Y-12680125D02*
X3858401Y-12727744D01*
X3858401Y-12727744D02*
X3867925Y-12746792D01*
X3867925Y-12746792D02*
X3877449Y-12756316D01*
X3877449Y-12756316D02*
X3896496Y-12765840D01*
X3896496Y-12765840D02*
X3934591Y-12765840D01*
X3934591Y-12765840D02*
X3953639Y-12756316D01*
X3953639Y-12756316D02*
X3963163Y-12746792D01*
X3963163Y-12746792D02*
X3972687Y-12727744D01*
X4096496Y-12642030D02*
X4115544Y-12642030D01*
X4115544Y-12642030D02*
X4134591Y-12651554D01*
X4134591Y-12651554D02*
X4144115Y-12661078D01*
X4144115Y-12661078D02*
X4153639Y-12680125D01*
X4153639Y-12680125D02*
X4163163Y-12718221D01*
X4163163Y-12718221D02*
X4163163Y-12765840D01*
X4163163Y-12765840D02*
X4153639Y-12803935D01*
X4153639Y-12803935D02*
X4144115Y-12822983D01*
X4144115Y-12822983D02*
X4134591Y-12832506D01*
X4134591Y-12832506D02*
X4115544Y-12842030D01*
X4115544Y-12842030D02*
X4096496Y-12842030D01*
X4096496Y-12842030D02*
X4077449Y-12832506D01*
X4077449Y-12832506D02*
X4067925Y-12822983D01*
X4067925Y-12822983D02*
X4058401Y-12803935D01*
X4058401Y-12803935D02*
X4048877Y-12765840D01*
X4048877Y-12765840D02*
X4048877Y-12718221D01*
X4048877Y-12718221D02*
X4058401Y-12680125D01*
X4058401Y-12680125D02*
X4067925Y-12661078D01*
X4067925Y-12661078D02*
X4077449Y-12651554D01*
X4077449Y-12651554D02*
X4096496Y-12642030D01*
X4286972Y-12642030D02*
X4306020Y-12642030D01*
X4306020Y-12642030D02*
X4325068Y-12651554D01*
X4325068Y-12651554D02*
X4334592Y-12661078D01*
X4334592Y-12661078D02*
X4344115Y-12680125D01*
X4344115Y-12680125D02*
X4353639Y-12718221D01*
X4353639Y-12718221D02*
X4353639Y-12765840D01*
X4353639Y-12765840D02*
X4344115Y-12803935D01*
X4344115Y-12803935D02*
X4334592Y-12822983D01*
X4334592Y-12822983D02*
X4325068Y-12832506D01*
X4325068Y-12832506D02*
X4306020Y-12842030D01*
X4306020Y-12842030D02*
X4286972Y-12842030D01*
X4286972Y-12842030D02*
X4267925Y-12832506D01*
X4267925Y-12832506D02*
X4258401Y-12822983D01*
X4258401Y-12822983D02*
X4248877Y-12803935D01*
X4248877Y-12803935D02*
X4239353Y-12765840D01*
X4239353Y-12765840D02*
X4239353Y-12718221D01*
X4239353Y-12718221D02*
X4248877Y-12680125D01*
X4248877Y-12680125D02*
X4258401Y-12661078D01*
X4258401Y-12661078D02*
X4267925Y-12651554D01*
X4267925Y-12651554D02*
X4286972Y-12642030D01*
X4439353Y-12842030D02*
X4439353Y-12708697D01*
X4439353Y-12727744D02*
X4448877Y-12718221D01*
X4448877Y-12718221D02*
X4467925Y-12708697D01*
X4467925Y-12708697D02*
X4496496Y-12708697D01*
X4496496Y-12708697D02*
X4515544Y-12718221D01*
X4515544Y-12718221D02*
X4525068Y-12737268D01*
X4525068Y-12737268D02*
X4525068Y-12842030D01*
X4525068Y-12737268D02*
X4534592Y-12718221D01*
X4534592Y-12718221D02*
X4553639Y-12708697D01*
X4553639Y-12708697D02*
X4582211Y-12708697D01*
X4582211Y-12708697D02*
X4601258Y-12718221D01*
X4601258Y-12718221D02*
X4610782Y-12737268D01*
X4610782Y-12737268D02*
X4610782Y-12842030D01*
X4706020Y-12842030D02*
X4706020Y-12708697D01*
X4706020Y-12727744D02*
X4715544Y-12718221D01*
X4715544Y-12718221D02*
X4734592Y-12708697D01*
X4734592Y-12708697D02*
X4763163Y-12708697D01*
X4763163Y-12708697D02*
X4782211Y-12718221D01*
X4782211Y-12718221D02*
X4791734Y-12737268D01*
X4791734Y-12737268D02*
X4791734Y-12842030D01*
X4791734Y-12737268D02*
X4801258Y-12718221D01*
X4801258Y-12718221D02*
X4820306Y-12708697D01*
X4820306Y-12708697D02*
X4848877Y-12708697D01*
X4848877Y-12708697D02*
X4867925Y-12718221D01*
X4867925Y-12718221D02*
X4877449Y-12737268D01*
X4877449Y-12737268D02*
X4877449Y-12842030D01*
X5267925Y-12632506D02*
X5096496Y-12889649D01*
X5525068Y-12642030D02*
X5544116Y-12642030D01*
X5544116Y-12642030D02*
X5563163Y-12651554D01*
X5563163Y-12651554D02*
X5572687Y-12661078D01*
X5572687Y-12661078D02*
X5582211Y-12680125D01*
X5582211Y-12680125D02*
X5591735Y-12718221D01*
X5591735Y-12718221D02*
X5591735Y-12765840D01*
X5591735Y-12765840D02*
X5582211Y-12803935D01*
X5582211Y-12803935D02*
X5572687Y-12822983D01*
X5572687Y-12822983D02*
X5563163Y-12832506D01*
X5563163Y-12832506D02*
X5544116Y-12842030D01*
X5544116Y-12842030D02*
X5525068Y-12842030D01*
X5525068Y-12842030D02*
X5506020Y-12832506D01*
X5506020Y-12832506D02*
X5496496Y-12822983D01*
X5496496Y-12822983D02*
X5486973Y-12803935D01*
X5486973Y-12803935D02*
X5477449Y-12765840D01*
X5477449Y-12765840D02*
X5477449Y-12718221D01*
X5477449Y-12718221D02*
X5486973Y-12680125D01*
X5486973Y-12680125D02*
X5496496Y-12661078D01*
X5496496Y-12661078D02*
X5506020Y-12651554D01*
X5506020Y-12651554D02*
X5525068Y-12642030D01*
X5677449Y-12822983D02*
X5686973Y-12832506D01*
X5686973Y-12832506D02*
X5677449Y-12842030D01*
X5677449Y-12842030D02*
X5667925Y-12832506D01*
X5667925Y-12832506D02*
X5677449Y-12822983D01*
X5677449Y-12822983D02*
X5677449Y-12842030D01*
X5810782Y-12642030D02*
X5829830Y-12642030D01*
X5829830Y-12642030D02*
X5848877Y-12651554D01*
X5848877Y-12651554D02*
X5858401Y-12661078D01*
X5858401Y-12661078D02*
X5867925Y-12680125D01*
X5867925Y-12680125D02*
X5877449Y-12718221D01*
X5877449Y-12718221D02*
X5877449Y-12765840D01*
X5877449Y-12765840D02*
X5867925Y-12803935D01*
X5867925Y-12803935D02*
X5858401Y-12822983D01*
X5858401Y-12822983D02*
X5848877Y-12832506D01*
X5848877Y-12832506D02*
X5829830Y-12842030D01*
X5829830Y-12842030D02*
X5810782Y-12842030D01*
X5810782Y-12842030D02*
X5791734Y-12832506D01*
X5791734Y-12832506D02*
X5782211Y-12822983D01*
X5782211Y-12822983D02*
X5772687Y-12803935D01*
X5772687Y-12803935D02*
X5763163Y-12765840D01*
X5763163Y-12765840D02*
X5763163Y-12718221D01*
X5763163Y-12718221D02*
X5772687Y-12680125D01*
X5772687Y-12680125D02*
X5782211Y-12661078D01*
X5782211Y-12661078D02*
X5791734Y-12651554D01*
X5791734Y-12651554D02*
X5810782Y-12642030D01*
X5944115Y-12642030D02*
X6077449Y-12642030D01*
X6077449Y-12642030D02*
X5991734Y-12842030D01*
X6239354Y-12708697D02*
X6239354Y-12842030D01*
X6191734Y-12632506D02*
X6144115Y-12775364D01*
X6144115Y-12775364D02*
X6267925Y-12775364D01*
X6372687Y-12727744D02*
X6353639Y-12718221D01*
X6353639Y-12718221D02*
X6344115Y-12708697D01*
X6344115Y-12708697D02*
X6334592Y-12689649D01*
X6334592Y-12689649D02*
X6334592Y-12680125D01*
X6334592Y-12680125D02*
X6344115Y-12661078D01*
X6344115Y-12661078D02*
X6353639Y-12651554D01*
X6353639Y-12651554D02*
X6372687Y-12642030D01*
X6372687Y-12642030D02*
X6410782Y-12642030D01*
X6410782Y-12642030D02*
X6429830Y-12651554D01*
X6429830Y-12651554D02*
X6439354Y-12661078D01*
X6439354Y-12661078D02*
X6448877Y-12680125D01*
X6448877Y-12680125D02*
X6448877Y-12689649D01*
X6448877Y-12689649D02*
X6439354Y-12708697D01*
X6439354Y-12708697D02*
X6429830Y-12718221D01*
X6429830Y-12718221D02*
X6410782Y-12727744D01*
X6410782Y-12727744D02*
X6372687Y-12727744D01*
X6372687Y-12727744D02*
X6353639Y-12737268D01*
X6353639Y-12737268D02*
X6344115Y-12746792D01*
X6344115Y-12746792D02*
X6334592Y-12765840D01*
X6334592Y-12765840D02*
X6334592Y-12803935D01*
X6334592Y-12803935D02*
X6344115Y-12822983D01*
X6344115Y-12822983D02*
X6353639Y-12832506D01*
X6353639Y-12832506D02*
X6372687Y-12842030D01*
X6372687Y-12842030D02*
X6410782Y-12842030D01*
X6410782Y-12842030D02*
X6429830Y-12832506D01*
X6429830Y-12832506D02*
X6439354Y-12822983D01*
X6439354Y-12822983D02*
X6448877Y-12803935D01*
X6448877Y-12803935D02*
X6448877Y-12765840D01*
X6448877Y-12765840D02*
X6439354Y-12746792D01*
X6439354Y-12746792D02*
X6429830Y-12737268D01*
X6429830Y-12737268D02*
X6410782Y-12727744D01*
X6525068Y-12642030D02*
X6525068Y-12680125D01*
X6601258Y-12642030D02*
X6601258Y-12680125D01*
X6896497Y-12918221D02*
X6886973Y-12908697D01*
X6886973Y-12908697D02*
X6867925Y-12880125D01*
X6867925Y-12880125D02*
X6858401Y-12861078D01*
X6858401Y-12861078D02*
X6848877Y-12832506D01*
X6848877Y-12832506D02*
X6839354Y-12784887D01*
X6839354Y-12784887D02*
X6839354Y-12746792D01*
X6839354Y-12746792D02*
X6848877Y-12699173D01*
X6848877Y-12699173D02*
X6858401Y-12670602D01*
X6858401Y-12670602D02*
X6867925Y-12651554D01*
X6867925Y-12651554D02*
X6886973Y-12622983D01*
X6886973Y-12622983D02*
X6896497Y-12613459D01*
X6982211Y-12842030D02*
X7020306Y-12842030D01*
X7020306Y-12842030D02*
X7039354Y-12832506D01*
X7039354Y-12832506D02*
X7048877Y-12822983D01*
X7048877Y-12822983D02*
X7067925Y-12794411D01*
X7067925Y-12794411D02*
X7077449Y-12756316D01*
X7077449Y-12756316D02*
X7077449Y-12680125D01*
X7077449Y-12680125D02*
X7067925Y-12661078D01*
X7067925Y-12661078D02*
X7058401Y-12651554D01*
X7058401Y-12651554D02*
X7039354Y-12642030D01*
X7039354Y-12642030D02*
X7001258Y-12642030D01*
X7001258Y-12642030D02*
X6982211Y-12651554D01*
X6982211Y-12651554D02*
X6972687Y-12661078D01*
X6972687Y-12661078D02*
X6963163Y-12680125D01*
X6963163Y-12680125D02*
X6963163Y-12727744D01*
X6963163Y-12727744D02*
X6972687Y-12746792D01*
X6972687Y-12746792D02*
X6982211Y-12756316D01*
X6982211Y-12756316D02*
X7001258Y-12765840D01*
X7001258Y-12765840D02*
X7039354Y-12765840D01*
X7039354Y-12765840D02*
X7058401Y-12756316D01*
X7058401Y-12756316D02*
X7067925Y-12746792D01*
X7067925Y-12746792D02*
X7077449Y-12727744D01*
X7153639Y-12661078D02*
X7163163Y-12651554D01*
X7163163Y-12651554D02*
X7182211Y-12642030D01*
X7182211Y-12642030D02*
X7229830Y-12642030D01*
X7229830Y-12642030D02*
X7248877Y-12651554D01*
X7248877Y-12651554D02*
X7258401Y-12661078D01*
X7258401Y-12661078D02*
X7267925Y-12680125D01*
X7267925Y-12680125D02*
X7267925Y-12699173D01*
X7267925Y-12699173D02*
X7258401Y-12727744D01*
X7258401Y-12727744D02*
X7144116Y-12842030D01*
X7144116Y-12842030D02*
X7267925Y-12842030D01*
X7506020Y-12842030D02*
X7506020Y-12642030D01*
X7591735Y-12842030D02*
X7591735Y-12737268D01*
X7591735Y-12737268D02*
X7582211Y-12718221D01*
X7582211Y-12718221D02*
X7563163Y-12708697D01*
X7563163Y-12708697D02*
X7534592Y-12708697D01*
X7534592Y-12708697D02*
X7515544Y-12718221D01*
X7515544Y-12718221D02*
X7506020Y-12727744D01*
X7715544Y-12842030D02*
X7696497Y-12832506D01*
X7696497Y-12832506D02*
X7686973Y-12822983D01*
X7686973Y-12822983D02*
X7677449Y-12803935D01*
X7677449Y-12803935D02*
X7677449Y-12746792D01*
X7677449Y-12746792D02*
X7686973Y-12727744D01*
X7686973Y-12727744D02*
X7696497Y-12718221D01*
X7696497Y-12718221D02*
X7715544Y-12708697D01*
X7715544Y-12708697D02*
X7744116Y-12708697D01*
X7744116Y-12708697D02*
X7763163Y-12718221D01*
X7763163Y-12718221D02*
X7772687Y-12727744D01*
X7772687Y-12727744D02*
X7782211Y-12746792D01*
X7782211Y-12746792D02*
X7782211Y-12803935D01*
X7782211Y-12803935D02*
X7772687Y-12822983D01*
X7772687Y-12822983D02*
X7763163Y-12832506D01*
X7763163Y-12832506D02*
X7744116Y-12842030D01*
X7744116Y-12842030D02*
X7715544Y-12842030D01*
X7896497Y-12842030D02*
X7877449Y-12832506D01*
X7877449Y-12832506D02*
X7867925Y-12813459D01*
X7867925Y-12813459D02*
X7867925Y-12642030D01*
X8048878Y-12832506D02*
X8029830Y-12842030D01*
X8029830Y-12842030D02*
X7991735Y-12842030D01*
X7991735Y-12842030D02*
X7972687Y-12832506D01*
X7972687Y-12832506D02*
X7963163Y-12813459D01*
X7963163Y-12813459D02*
X7963163Y-12737268D01*
X7963163Y-12737268D02*
X7972687Y-12718221D01*
X7972687Y-12718221D02*
X7991735Y-12708697D01*
X7991735Y-12708697D02*
X8029830Y-12708697D01*
X8029830Y-12708697D02*
X8048878Y-12718221D01*
X8048878Y-12718221D02*
X8058401Y-12737268D01*
X8058401Y-12737268D02*
X8058401Y-12756316D01*
X8058401Y-12756316D02*
X7963163Y-12775364D01*
X8134592Y-12832506D02*
X8153639Y-12842030D01*
X8153639Y-12842030D02*
X8191735Y-12842030D01*
X8191735Y-12842030D02*
X8210782Y-12832506D01*
X8210782Y-12832506D02*
X8220306Y-12813459D01*
X8220306Y-12813459D02*
X8220306Y-12803935D01*
X8220306Y-12803935D02*
X8210782Y-12784887D01*
X8210782Y-12784887D02*
X8191735Y-12775364D01*
X8191735Y-12775364D02*
X8163163Y-12775364D01*
X8163163Y-12775364D02*
X8144116Y-12765840D01*
X8144116Y-12765840D02*
X8134592Y-12746792D01*
X8134592Y-12746792D02*
X8134592Y-12737268D01*
X8134592Y-12737268D02*
X8144116Y-12718221D01*
X8144116Y-12718221D02*
X8163163Y-12708697D01*
X8163163Y-12708697D02*
X8191735Y-12708697D01*
X8191735Y-12708697D02*
X8210782Y-12718221D01*
X8286973Y-12918221D02*
X8296497Y-12908697D01*
X8296497Y-12908697D02*
X8315544Y-12880125D01*
X8315544Y-12880125D02*
X8325068Y-12861078D01*
X8325068Y-12861078D02*
X8334592Y-12832506D01*
X8334592Y-12832506D02*
X8344116Y-12784887D01*
X8344116Y-12784887D02*
X8344116Y-12746792D01*
X8344116Y-12746792D02*
X8334592Y-12699173D01*
X8334592Y-12699173D02*
X8325068Y-12670602D01*
X8325068Y-12670602D02*
X8315544Y-12651554D01*
X8315544Y-12651554D02*
X8296497Y-12622983D01*
X8296497Y-12622983D02*
X8286973Y-12613459D01*
X8648878Y-12918221D02*
X8639354Y-12908697D01*
X8639354Y-12908697D02*
X8620306Y-12880125D01*
X8620306Y-12880125D02*
X8610782Y-12861078D01*
X8610782Y-12861078D02*
X8601259Y-12832506D01*
X8601259Y-12832506D02*
X8591735Y-12784887D01*
X8591735Y-12784887D02*
X8591735Y-12746792D01*
X8591735Y-12746792D02*
X8601259Y-12699173D01*
X8601259Y-12699173D02*
X8610782Y-12670602D01*
X8610782Y-12670602D02*
X8620306Y-12651554D01*
X8620306Y-12651554D02*
X8639354Y-12622983D01*
X8639354Y-12622983D02*
X8648878Y-12613459D01*
X8725068Y-12708697D02*
X8725068Y-12842030D01*
X8725068Y-12727744D02*
X8734592Y-12718221D01*
X8734592Y-12718221D02*
X8753640Y-12708697D01*
X8753640Y-12708697D02*
X8782211Y-12708697D01*
X8782211Y-12708697D02*
X8801259Y-12718221D01*
X8801259Y-12718221D02*
X8810782Y-12737268D01*
X8810782Y-12737268D02*
X8810782Y-12842030D01*
X8934592Y-12842030D02*
X8915544Y-12832506D01*
X8915544Y-12832506D02*
X8906021Y-12822983D01*
X8906021Y-12822983D02*
X8896497Y-12803935D01*
X8896497Y-12803935D02*
X8896497Y-12746792D01*
X8896497Y-12746792D02*
X8906021Y-12727744D01*
X8906021Y-12727744D02*
X8915544Y-12718221D01*
X8915544Y-12718221D02*
X8934592Y-12708697D01*
X8934592Y-12708697D02*
X8963163Y-12708697D01*
X8963163Y-12708697D02*
X8982211Y-12718221D01*
X8982211Y-12718221D02*
X8991735Y-12727744D01*
X8991735Y-12727744D02*
X9001259Y-12746792D01*
X9001259Y-12746792D02*
X9001259Y-12803935D01*
X9001259Y-12803935D02*
X8991735Y-12822983D01*
X8991735Y-12822983D02*
X8982211Y-12832506D01*
X8982211Y-12832506D02*
X8963163Y-12842030D01*
X8963163Y-12842030D02*
X8934592Y-12842030D01*
X9058402Y-12708697D02*
X9134592Y-12708697D01*
X9086973Y-12642030D02*
X9086973Y-12813459D01*
X9086973Y-12813459D02*
X9096497Y-12832506D01*
X9096497Y-12832506D02*
X9115544Y-12842030D01*
X9115544Y-12842030D02*
X9134592Y-12842030D01*
X9353640Y-12708697D02*
X9353640Y-12908697D01*
X9353640Y-12718221D02*
X9372687Y-12708697D01*
X9372687Y-12708697D02*
X9410783Y-12708697D01*
X9410783Y-12708697D02*
X9429830Y-12718221D01*
X9429830Y-12718221D02*
X9439354Y-12727744D01*
X9439354Y-12727744D02*
X9448878Y-12746792D01*
X9448878Y-12746792D02*
X9448878Y-12803935D01*
X9448878Y-12803935D02*
X9439354Y-12822983D01*
X9439354Y-12822983D02*
X9429830Y-12832506D01*
X9429830Y-12832506D02*
X9410783Y-12842030D01*
X9410783Y-12842030D02*
X9372687Y-12842030D01*
X9372687Y-12842030D02*
X9353640Y-12832506D01*
X9563163Y-12842030D02*
X9544116Y-12832506D01*
X9544116Y-12832506D02*
X9534592Y-12813459D01*
X9534592Y-12813459D02*
X9534592Y-12642030D01*
X9725068Y-12842030D02*
X9725068Y-12737268D01*
X9725068Y-12737268D02*
X9715544Y-12718221D01*
X9715544Y-12718221D02*
X9696497Y-12708697D01*
X9696497Y-12708697D02*
X9658402Y-12708697D01*
X9658402Y-12708697D02*
X9639354Y-12718221D01*
X9725068Y-12832506D02*
X9706021Y-12842030D01*
X9706021Y-12842030D02*
X9658402Y-12842030D01*
X9658402Y-12842030D02*
X9639354Y-12832506D01*
X9639354Y-12832506D02*
X9629830Y-12813459D01*
X9629830Y-12813459D02*
X9629830Y-12794411D01*
X9629830Y-12794411D02*
X9639354Y-12775364D01*
X9639354Y-12775364D02*
X9658402Y-12765840D01*
X9658402Y-12765840D02*
X9706021Y-12765840D01*
X9706021Y-12765840D02*
X9725068Y-12756316D01*
X9791735Y-12708697D02*
X9867925Y-12708697D01*
X9820306Y-12642030D02*
X9820306Y-12813459D01*
X9820306Y-12813459D02*
X9829830Y-12832506D01*
X9829830Y-12832506D02*
X9848878Y-12842030D01*
X9848878Y-12842030D02*
X9867925Y-12842030D01*
X10010783Y-12832506D02*
X9991735Y-12842030D01*
X9991735Y-12842030D02*
X9953640Y-12842030D01*
X9953640Y-12842030D02*
X9934592Y-12832506D01*
X9934592Y-12832506D02*
X9925068Y-12813459D01*
X9925068Y-12813459D02*
X9925068Y-12737268D01*
X9925068Y-12737268D02*
X9934592Y-12718221D01*
X9934592Y-12718221D02*
X9953640Y-12708697D01*
X9953640Y-12708697D02*
X9991735Y-12708697D01*
X9991735Y-12708697D02*
X10010783Y-12718221D01*
X10010783Y-12718221D02*
X10020306Y-12737268D01*
X10020306Y-12737268D02*
X10020306Y-12756316D01*
X10020306Y-12756316D02*
X9925068Y-12775364D01*
X10191735Y-12842030D02*
X10191735Y-12642030D01*
X10191735Y-12832506D02*
X10172687Y-12842030D01*
X10172687Y-12842030D02*
X10134592Y-12842030D01*
X10134592Y-12842030D02*
X10115544Y-12832506D01*
X10115544Y-12832506D02*
X10106021Y-12822983D01*
X10106021Y-12822983D02*
X10096497Y-12803935D01*
X10096497Y-12803935D02*
X10096497Y-12746792D01*
X10096497Y-12746792D02*
X10106021Y-12727744D01*
X10106021Y-12727744D02*
X10115544Y-12718221D01*
X10115544Y-12718221D02*
X10134592Y-12708697D01*
X10134592Y-12708697D02*
X10172687Y-12708697D01*
X10172687Y-12708697D02*
X10191735Y-12718221D01*
X10267925Y-12918221D02*
X10277449Y-12908697D01*
X10277449Y-12908697D02*
X10296497Y-12880125D01*
X10296497Y-12880125D02*
X10306021Y-12861078D01*
X10306021Y-12861078D02*
X10315544Y-12832506D01*
X10315544Y-12832506D02*
X10325068Y-12784887D01*
X10325068Y-12784887D02*
X10325068Y-12746792D01*
X10325068Y-12746792D02*
X10315544Y-12699173D01*
X10315544Y-12699173D02*
X10306021Y-12670602D01*
X10306021Y-12670602D02*
X10296497Y-12651554D01*
X10296497Y-12651554D02*
X10277449Y-12622983D01*
X10277449Y-12622983D02*
X10267925Y-12613459D01*
X3221434Y-12960546D02*
X3221434Y-13160546D01*
X3121434Y-13060546D02*
X3321434Y-13060546D01*
X3563163Y-12952030D02*
X3686972Y-12952030D01*
X3686972Y-12952030D02*
X3620306Y-13028221D01*
X3620306Y-13028221D02*
X3648877Y-13028221D01*
X3648877Y-13028221D02*
X3667925Y-13037744D01*
X3667925Y-13037744D02*
X3677449Y-13047268D01*
X3677449Y-13047268D02*
X3686972Y-13066316D01*
X3686972Y-13066316D02*
X3686972Y-13113935D01*
X3686972Y-13113935D02*
X3677449Y-13132983D01*
X3677449Y-13132983D02*
X3667925Y-13142506D01*
X3667925Y-13142506D02*
X3648877Y-13152030D01*
X3648877Y-13152030D02*
X3591734Y-13152030D01*
X3591734Y-13152030D02*
X3572687Y-13142506D01*
X3572687Y-13142506D02*
X3563163Y-13132983D01*
X3772687Y-13132983D02*
X3782210Y-13142506D01*
X3782210Y-13142506D02*
X3772687Y-13152030D01*
X3772687Y-13152030D02*
X3763163Y-13142506D01*
X3763163Y-13142506D02*
X3772687Y-13132983D01*
X3772687Y-13132983D02*
X3772687Y-13152030D01*
X3906020Y-12952030D02*
X3925068Y-12952030D01*
X3925068Y-12952030D02*
X3944115Y-12961554D01*
X3944115Y-12961554D02*
X3953639Y-12971078D01*
X3953639Y-12971078D02*
X3963163Y-12990125D01*
X3963163Y-12990125D02*
X3972687Y-13028221D01*
X3972687Y-13028221D02*
X3972687Y-13075840D01*
X3972687Y-13075840D02*
X3963163Y-13113935D01*
X3963163Y-13113935D02*
X3953639Y-13132983D01*
X3953639Y-13132983D02*
X3944115Y-13142506D01*
X3944115Y-13142506D02*
X3925068Y-13152030D01*
X3925068Y-13152030D02*
X3906020Y-13152030D01*
X3906020Y-13152030D02*
X3886972Y-13142506D01*
X3886972Y-13142506D02*
X3877449Y-13132983D01*
X3877449Y-13132983D02*
X3867925Y-13113935D01*
X3867925Y-13113935D02*
X3858401Y-13075840D01*
X3858401Y-13075840D02*
X3858401Y-13028221D01*
X3858401Y-13028221D02*
X3867925Y-12990125D01*
X3867925Y-12990125D02*
X3877449Y-12971078D01*
X3877449Y-12971078D02*
X3886972Y-12961554D01*
X3886972Y-12961554D02*
X3906020Y-12952030D01*
X4096496Y-12952030D02*
X4115544Y-12952030D01*
X4115544Y-12952030D02*
X4134591Y-12961554D01*
X4134591Y-12961554D02*
X4144115Y-12971078D01*
X4144115Y-12971078D02*
X4153639Y-12990125D01*
X4153639Y-12990125D02*
X4163163Y-13028221D01*
X4163163Y-13028221D02*
X4163163Y-13075840D01*
X4163163Y-13075840D02*
X4153639Y-13113935D01*
X4153639Y-13113935D02*
X4144115Y-13132983D01*
X4144115Y-13132983D02*
X4134591Y-13142506D01*
X4134591Y-13142506D02*
X4115544Y-13152030D01*
X4115544Y-13152030D02*
X4096496Y-13152030D01*
X4096496Y-13152030D02*
X4077449Y-13142506D01*
X4077449Y-13142506D02*
X4067925Y-13132983D01*
X4067925Y-13132983D02*
X4058401Y-13113935D01*
X4058401Y-13113935D02*
X4048877Y-13075840D01*
X4048877Y-13075840D02*
X4048877Y-13028221D01*
X4048877Y-13028221D02*
X4058401Y-12990125D01*
X4058401Y-12990125D02*
X4067925Y-12971078D01*
X4067925Y-12971078D02*
X4077449Y-12961554D01*
X4077449Y-12961554D02*
X4096496Y-12952030D01*
X4286972Y-12952030D02*
X4306020Y-12952030D01*
X4306020Y-12952030D02*
X4325068Y-12961554D01*
X4325068Y-12961554D02*
X4334592Y-12971078D01*
X4334592Y-12971078D02*
X4344115Y-12990125D01*
X4344115Y-12990125D02*
X4353639Y-13028221D01*
X4353639Y-13028221D02*
X4353639Y-13075840D01*
X4353639Y-13075840D02*
X4344115Y-13113935D01*
X4344115Y-13113935D02*
X4334592Y-13132983D01*
X4334592Y-13132983D02*
X4325068Y-13142506D01*
X4325068Y-13142506D02*
X4306020Y-13152030D01*
X4306020Y-13152030D02*
X4286972Y-13152030D01*
X4286972Y-13152030D02*
X4267925Y-13142506D01*
X4267925Y-13142506D02*
X4258401Y-13132983D01*
X4258401Y-13132983D02*
X4248877Y-13113935D01*
X4248877Y-13113935D02*
X4239353Y-13075840D01*
X4239353Y-13075840D02*
X4239353Y-13028221D01*
X4239353Y-13028221D02*
X4248877Y-12990125D01*
X4248877Y-12990125D02*
X4258401Y-12971078D01*
X4258401Y-12971078D02*
X4267925Y-12961554D01*
X4267925Y-12961554D02*
X4286972Y-12952030D01*
X4439353Y-13152030D02*
X4439353Y-13018697D01*
X4439353Y-13037744D02*
X4448877Y-13028221D01*
X4448877Y-13028221D02*
X4467925Y-13018697D01*
X4467925Y-13018697D02*
X4496496Y-13018697D01*
X4496496Y-13018697D02*
X4515544Y-13028221D01*
X4515544Y-13028221D02*
X4525068Y-13047268D01*
X4525068Y-13047268D02*
X4525068Y-13152030D01*
X4525068Y-13047268D02*
X4534592Y-13028221D01*
X4534592Y-13028221D02*
X4553639Y-13018697D01*
X4553639Y-13018697D02*
X4582211Y-13018697D01*
X4582211Y-13018697D02*
X4601258Y-13028221D01*
X4601258Y-13028221D02*
X4610782Y-13047268D01*
X4610782Y-13047268D02*
X4610782Y-13152030D01*
X4706020Y-13152030D02*
X4706020Y-13018697D01*
X4706020Y-13037744D02*
X4715544Y-13028221D01*
X4715544Y-13028221D02*
X4734592Y-13018697D01*
X4734592Y-13018697D02*
X4763163Y-13018697D01*
X4763163Y-13018697D02*
X4782211Y-13028221D01*
X4782211Y-13028221D02*
X4791734Y-13047268D01*
X4791734Y-13047268D02*
X4791734Y-13152030D01*
X4791734Y-13047268D02*
X4801258Y-13028221D01*
X4801258Y-13028221D02*
X4820306Y-13018697D01*
X4820306Y-13018697D02*
X4848877Y-13018697D01*
X4848877Y-13018697D02*
X4867925Y-13028221D01*
X4867925Y-13028221D02*
X4877449Y-13047268D01*
X4877449Y-13047268D02*
X4877449Y-13152030D01*
X5267925Y-12942506D02*
X5096496Y-13199649D01*
X5525068Y-12952030D02*
X5544116Y-12952030D01*
X5544116Y-12952030D02*
X5563163Y-12961554D01*
X5563163Y-12961554D02*
X5572687Y-12971078D01*
X5572687Y-12971078D02*
X5582211Y-12990125D01*
X5582211Y-12990125D02*
X5591735Y-13028221D01*
X5591735Y-13028221D02*
X5591735Y-13075840D01*
X5591735Y-13075840D02*
X5582211Y-13113935D01*
X5582211Y-13113935D02*
X5572687Y-13132983D01*
X5572687Y-13132983D02*
X5563163Y-13142506D01*
X5563163Y-13142506D02*
X5544116Y-13152030D01*
X5544116Y-13152030D02*
X5525068Y-13152030D01*
X5525068Y-13152030D02*
X5506020Y-13142506D01*
X5506020Y-13142506D02*
X5496496Y-13132983D01*
X5496496Y-13132983D02*
X5486973Y-13113935D01*
X5486973Y-13113935D02*
X5477449Y-13075840D01*
X5477449Y-13075840D02*
X5477449Y-13028221D01*
X5477449Y-13028221D02*
X5486973Y-12990125D01*
X5486973Y-12990125D02*
X5496496Y-12971078D01*
X5496496Y-12971078D02*
X5506020Y-12961554D01*
X5506020Y-12961554D02*
X5525068Y-12952030D01*
X5677449Y-13132983D02*
X5686973Y-13142506D01*
X5686973Y-13142506D02*
X5677449Y-13152030D01*
X5677449Y-13152030D02*
X5667925Y-13142506D01*
X5667925Y-13142506D02*
X5677449Y-13132983D01*
X5677449Y-13132983D02*
X5677449Y-13152030D01*
X5877449Y-13152030D02*
X5763163Y-13152030D01*
X5820306Y-13152030D02*
X5820306Y-12952030D01*
X5820306Y-12952030D02*
X5801258Y-12980602D01*
X5801258Y-12980602D02*
X5782211Y-12999649D01*
X5782211Y-12999649D02*
X5763163Y-13009173D01*
X6067925Y-13152030D02*
X5953639Y-13152030D01*
X6010782Y-13152030D02*
X6010782Y-12952030D01*
X6010782Y-12952030D02*
X5991734Y-12980602D01*
X5991734Y-12980602D02*
X5972687Y-12999649D01*
X5972687Y-12999649D02*
X5953639Y-13009173D01*
X6182211Y-13037744D02*
X6163163Y-13028221D01*
X6163163Y-13028221D02*
X6153639Y-13018697D01*
X6153639Y-13018697D02*
X6144115Y-12999649D01*
X6144115Y-12999649D02*
X6144115Y-12990125D01*
X6144115Y-12990125D02*
X6153639Y-12971078D01*
X6153639Y-12971078D02*
X6163163Y-12961554D01*
X6163163Y-12961554D02*
X6182211Y-12952030D01*
X6182211Y-12952030D02*
X6220306Y-12952030D01*
X6220306Y-12952030D02*
X6239354Y-12961554D01*
X6239354Y-12961554D02*
X6248877Y-12971078D01*
X6248877Y-12971078D02*
X6258401Y-12990125D01*
X6258401Y-12990125D02*
X6258401Y-12999649D01*
X6258401Y-12999649D02*
X6248877Y-13018697D01*
X6248877Y-13018697D02*
X6239354Y-13028221D01*
X6239354Y-13028221D02*
X6220306Y-13037744D01*
X6220306Y-13037744D02*
X6182211Y-13037744D01*
X6182211Y-13037744D02*
X6163163Y-13047268D01*
X6163163Y-13047268D02*
X6153639Y-13056792D01*
X6153639Y-13056792D02*
X6144115Y-13075840D01*
X6144115Y-13075840D02*
X6144115Y-13113935D01*
X6144115Y-13113935D02*
X6153639Y-13132983D01*
X6153639Y-13132983D02*
X6163163Y-13142506D01*
X6163163Y-13142506D02*
X6182211Y-13152030D01*
X6182211Y-13152030D02*
X6220306Y-13152030D01*
X6220306Y-13152030D02*
X6239354Y-13142506D01*
X6239354Y-13142506D02*
X6248877Y-13132983D01*
X6248877Y-13132983D02*
X6258401Y-13113935D01*
X6258401Y-13113935D02*
X6258401Y-13075840D01*
X6258401Y-13075840D02*
X6248877Y-13056792D01*
X6248877Y-13056792D02*
X6239354Y-13047268D01*
X6239354Y-13047268D02*
X6220306Y-13037744D01*
X6448877Y-13152030D02*
X6334592Y-13152030D01*
X6391734Y-13152030D02*
X6391734Y-12952030D01*
X6391734Y-12952030D02*
X6372687Y-12980602D01*
X6372687Y-12980602D02*
X6353639Y-12999649D01*
X6353639Y-12999649D02*
X6334592Y-13009173D01*
X6525068Y-12952030D02*
X6525068Y-12990125D01*
X6601258Y-12952030D02*
X6601258Y-12990125D01*
X6896497Y-13228221D02*
X6886973Y-13218697D01*
X6886973Y-13218697D02*
X6867925Y-13190125D01*
X6867925Y-13190125D02*
X6858401Y-13171078D01*
X6858401Y-13171078D02*
X6848877Y-13142506D01*
X6848877Y-13142506D02*
X6839354Y-13094887D01*
X6839354Y-13094887D02*
X6839354Y-13056792D01*
X6839354Y-13056792D02*
X6848877Y-13009173D01*
X6848877Y-13009173D02*
X6858401Y-12980602D01*
X6858401Y-12980602D02*
X6867925Y-12961554D01*
X6867925Y-12961554D02*
X6886973Y-12932983D01*
X6886973Y-12932983D02*
X6896497Y-12923459D01*
X6982211Y-13152030D02*
X7020306Y-13152030D01*
X7020306Y-13152030D02*
X7039354Y-13142506D01*
X7039354Y-13142506D02*
X7048877Y-13132983D01*
X7048877Y-13132983D02*
X7067925Y-13104411D01*
X7067925Y-13104411D02*
X7077449Y-13066316D01*
X7077449Y-13066316D02*
X7077449Y-12990125D01*
X7077449Y-12990125D02*
X7067925Y-12971078D01*
X7067925Y-12971078D02*
X7058401Y-12961554D01*
X7058401Y-12961554D02*
X7039354Y-12952030D01*
X7039354Y-12952030D02*
X7001258Y-12952030D01*
X7001258Y-12952030D02*
X6982211Y-12961554D01*
X6982211Y-12961554D02*
X6972687Y-12971078D01*
X6972687Y-12971078D02*
X6963163Y-12990125D01*
X6963163Y-12990125D02*
X6963163Y-13037744D01*
X6963163Y-13037744D02*
X6972687Y-13056792D01*
X6972687Y-13056792D02*
X6982211Y-13066316D01*
X6982211Y-13066316D02*
X7001258Y-13075840D01*
X7001258Y-13075840D02*
X7039354Y-13075840D01*
X7039354Y-13075840D02*
X7058401Y-13066316D01*
X7058401Y-13066316D02*
X7067925Y-13056792D01*
X7067925Y-13056792D02*
X7077449Y-13037744D01*
X7153639Y-12971078D02*
X7163163Y-12961554D01*
X7163163Y-12961554D02*
X7182211Y-12952030D01*
X7182211Y-12952030D02*
X7229830Y-12952030D01*
X7229830Y-12952030D02*
X7248877Y-12961554D01*
X7248877Y-12961554D02*
X7258401Y-12971078D01*
X7258401Y-12971078D02*
X7267925Y-12990125D01*
X7267925Y-12990125D02*
X7267925Y-13009173D01*
X7267925Y-13009173D02*
X7258401Y-13037744D01*
X7258401Y-13037744D02*
X7144116Y-13152030D01*
X7144116Y-13152030D02*
X7267925Y-13152030D01*
X7506020Y-13152030D02*
X7506020Y-12952030D01*
X7591735Y-13152030D02*
X7591735Y-13047268D01*
X7591735Y-13047268D02*
X7582211Y-13028221D01*
X7582211Y-13028221D02*
X7563163Y-13018697D01*
X7563163Y-13018697D02*
X7534592Y-13018697D01*
X7534592Y-13018697D02*
X7515544Y-13028221D01*
X7515544Y-13028221D02*
X7506020Y-13037744D01*
X7715544Y-13152030D02*
X7696497Y-13142506D01*
X7696497Y-13142506D02*
X7686973Y-13132983D01*
X7686973Y-13132983D02*
X7677449Y-13113935D01*
X7677449Y-13113935D02*
X7677449Y-13056792D01*
X7677449Y-13056792D02*
X7686973Y-13037744D01*
X7686973Y-13037744D02*
X7696497Y-13028221D01*
X7696497Y-13028221D02*
X7715544Y-13018697D01*
X7715544Y-13018697D02*
X7744116Y-13018697D01*
X7744116Y-13018697D02*
X7763163Y-13028221D01*
X7763163Y-13028221D02*
X7772687Y-13037744D01*
X7772687Y-13037744D02*
X7782211Y-13056792D01*
X7782211Y-13056792D02*
X7782211Y-13113935D01*
X7782211Y-13113935D02*
X7772687Y-13132983D01*
X7772687Y-13132983D02*
X7763163Y-13142506D01*
X7763163Y-13142506D02*
X7744116Y-13152030D01*
X7744116Y-13152030D02*
X7715544Y-13152030D01*
X7896497Y-13152030D02*
X7877449Y-13142506D01*
X7877449Y-13142506D02*
X7867925Y-13123459D01*
X7867925Y-13123459D02*
X7867925Y-12952030D01*
X8048878Y-13142506D02*
X8029830Y-13152030D01*
X8029830Y-13152030D02*
X7991735Y-13152030D01*
X7991735Y-13152030D02*
X7972687Y-13142506D01*
X7972687Y-13142506D02*
X7963163Y-13123459D01*
X7963163Y-13123459D02*
X7963163Y-13047268D01*
X7963163Y-13047268D02*
X7972687Y-13028221D01*
X7972687Y-13028221D02*
X7991735Y-13018697D01*
X7991735Y-13018697D02*
X8029830Y-13018697D01*
X8029830Y-13018697D02*
X8048878Y-13028221D01*
X8048878Y-13028221D02*
X8058401Y-13047268D01*
X8058401Y-13047268D02*
X8058401Y-13066316D01*
X8058401Y-13066316D02*
X7963163Y-13085364D01*
X8134592Y-13142506D02*
X8153639Y-13152030D01*
X8153639Y-13152030D02*
X8191735Y-13152030D01*
X8191735Y-13152030D02*
X8210782Y-13142506D01*
X8210782Y-13142506D02*
X8220306Y-13123459D01*
X8220306Y-13123459D02*
X8220306Y-13113935D01*
X8220306Y-13113935D02*
X8210782Y-13094887D01*
X8210782Y-13094887D02*
X8191735Y-13085364D01*
X8191735Y-13085364D02*
X8163163Y-13085364D01*
X8163163Y-13085364D02*
X8144116Y-13075840D01*
X8144116Y-13075840D02*
X8134592Y-13056792D01*
X8134592Y-13056792D02*
X8134592Y-13047268D01*
X8134592Y-13047268D02*
X8144116Y-13028221D01*
X8144116Y-13028221D02*
X8163163Y-13018697D01*
X8163163Y-13018697D02*
X8191735Y-13018697D01*
X8191735Y-13018697D02*
X8210782Y-13028221D01*
X8286973Y-13228221D02*
X8296497Y-13218697D01*
X8296497Y-13218697D02*
X8315544Y-13190125D01*
X8315544Y-13190125D02*
X8325068Y-13171078D01*
X8325068Y-13171078D02*
X8334592Y-13142506D01*
X8334592Y-13142506D02*
X8344116Y-13094887D01*
X8344116Y-13094887D02*
X8344116Y-13056792D01*
X8344116Y-13056792D02*
X8334592Y-13009173D01*
X8334592Y-13009173D02*
X8325068Y-12980602D01*
X8325068Y-12980602D02*
X8315544Y-12961554D01*
X8315544Y-12961554D02*
X8296497Y-12932983D01*
X8296497Y-12932983D02*
X8286973Y-12923459D01*
X8648878Y-13228221D02*
X8639354Y-13218697D01*
X8639354Y-13218697D02*
X8620306Y-13190125D01*
X8620306Y-13190125D02*
X8610782Y-13171078D01*
X8610782Y-13171078D02*
X8601259Y-13142506D01*
X8601259Y-13142506D02*
X8591735Y-13094887D01*
X8591735Y-13094887D02*
X8591735Y-13056792D01*
X8591735Y-13056792D02*
X8601259Y-13009173D01*
X8601259Y-13009173D02*
X8610782Y-12980602D01*
X8610782Y-12980602D02*
X8620306Y-12961554D01*
X8620306Y-12961554D02*
X8639354Y-12932983D01*
X8639354Y-12932983D02*
X8648878Y-12923459D01*
X8725068Y-13018697D02*
X8725068Y-13152030D01*
X8725068Y-13037744D02*
X8734592Y-13028221D01*
X8734592Y-13028221D02*
X8753640Y-13018697D01*
X8753640Y-13018697D02*
X8782211Y-13018697D01*
X8782211Y-13018697D02*
X8801259Y-13028221D01*
X8801259Y-13028221D02*
X8810782Y-13047268D01*
X8810782Y-13047268D02*
X8810782Y-13152030D01*
X8934592Y-13152030D02*
X8915544Y-13142506D01*
X8915544Y-13142506D02*
X8906021Y-13132983D01*
X8906021Y-13132983D02*
X8896497Y-13113935D01*
X8896497Y-13113935D02*
X8896497Y-13056792D01*
X8896497Y-13056792D02*
X8906021Y-13037744D01*
X8906021Y-13037744D02*
X8915544Y-13028221D01*
X8915544Y-13028221D02*
X8934592Y-13018697D01*
X8934592Y-13018697D02*
X8963163Y-13018697D01*
X8963163Y-13018697D02*
X8982211Y-13028221D01*
X8982211Y-13028221D02*
X8991735Y-13037744D01*
X8991735Y-13037744D02*
X9001259Y-13056792D01*
X9001259Y-13056792D02*
X9001259Y-13113935D01*
X9001259Y-13113935D02*
X8991735Y-13132983D01*
X8991735Y-13132983D02*
X8982211Y-13142506D01*
X8982211Y-13142506D02*
X8963163Y-13152030D01*
X8963163Y-13152030D02*
X8934592Y-13152030D01*
X9058402Y-13018697D02*
X9134592Y-13018697D01*
X9086973Y-12952030D02*
X9086973Y-13123459D01*
X9086973Y-13123459D02*
X9096497Y-13142506D01*
X9096497Y-13142506D02*
X9115544Y-13152030D01*
X9115544Y-13152030D02*
X9134592Y-13152030D01*
X9353640Y-13018697D02*
X9353640Y-13218697D01*
X9353640Y-13028221D02*
X9372687Y-13018697D01*
X9372687Y-13018697D02*
X9410783Y-13018697D01*
X9410783Y-13018697D02*
X9429830Y-13028221D01*
X9429830Y-13028221D02*
X9439354Y-13037744D01*
X9439354Y-13037744D02*
X9448878Y-13056792D01*
X9448878Y-13056792D02*
X9448878Y-13113935D01*
X9448878Y-13113935D02*
X9439354Y-13132983D01*
X9439354Y-13132983D02*
X9429830Y-13142506D01*
X9429830Y-13142506D02*
X9410783Y-13152030D01*
X9410783Y-13152030D02*
X9372687Y-13152030D01*
X9372687Y-13152030D02*
X9353640Y-13142506D01*
X9563163Y-13152030D02*
X9544116Y-13142506D01*
X9544116Y-13142506D02*
X9534592Y-13123459D01*
X9534592Y-13123459D02*
X9534592Y-12952030D01*
X9725068Y-13152030D02*
X9725068Y-13047268D01*
X9725068Y-13047268D02*
X9715544Y-13028221D01*
X9715544Y-13028221D02*
X9696497Y-13018697D01*
X9696497Y-13018697D02*
X9658402Y-13018697D01*
X9658402Y-13018697D02*
X9639354Y-13028221D01*
X9725068Y-13142506D02*
X9706021Y-13152030D01*
X9706021Y-13152030D02*
X9658402Y-13152030D01*
X9658402Y-13152030D02*
X9639354Y-13142506D01*
X9639354Y-13142506D02*
X9629830Y-13123459D01*
X9629830Y-13123459D02*
X9629830Y-13104411D01*
X9629830Y-13104411D02*
X9639354Y-13085364D01*
X9639354Y-13085364D02*
X9658402Y-13075840D01*
X9658402Y-13075840D02*
X9706021Y-13075840D01*
X9706021Y-13075840D02*
X9725068Y-13066316D01*
X9791735Y-13018697D02*
X9867925Y-13018697D01*
X9820306Y-12952030D02*
X9820306Y-13123459D01*
X9820306Y-13123459D02*
X9829830Y-13142506D01*
X9829830Y-13142506D02*
X9848878Y-13152030D01*
X9848878Y-13152030D02*
X9867925Y-13152030D01*
X10010783Y-13142506D02*
X9991735Y-13152030D01*
X9991735Y-13152030D02*
X9953640Y-13152030D01*
X9953640Y-13152030D02*
X9934592Y-13142506D01*
X9934592Y-13142506D02*
X9925068Y-13123459D01*
X9925068Y-13123459D02*
X9925068Y-13047268D01*
X9925068Y-13047268D02*
X9934592Y-13028221D01*
X9934592Y-13028221D02*
X9953640Y-13018697D01*
X9953640Y-13018697D02*
X9991735Y-13018697D01*
X9991735Y-13018697D02*
X10010783Y-13028221D01*
X10010783Y-13028221D02*
X10020306Y-13047268D01*
X10020306Y-13047268D02*
X10020306Y-13066316D01*
X10020306Y-13066316D02*
X9925068Y-13085364D01*
X10191735Y-13152030D02*
X10191735Y-12952030D01*
X10191735Y-13142506D02*
X10172687Y-13152030D01*
X10172687Y-13152030D02*
X10134592Y-13152030D01*
X10134592Y-13152030D02*
X10115544Y-13142506D01*
X10115544Y-13142506D02*
X10106021Y-13132983D01*
X10106021Y-13132983D02*
X10096497Y-13113935D01*
X10096497Y-13113935D02*
X10096497Y-13056792D01*
X10096497Y-13056792D02*
X10106021Y-13037744D01*
X10106021Y-13037744D02*
X10115544Y-13028221D01*
X10115544Y-13028221D02*
X10134592Y-13018697D01*
X10134592Y-13018697D02*
X10172687Y-13018697D01*
X10172687Y-13018697D02*
X10191735Y-13028221D01*
X10267925Y-13228221D02*
X10277449Y-13218697D01*
X10277449Y-13218697D02*
X10296497Y-13190125D01*
X10296497Y-13190125D02*
X10306021Y-13171078D01*
X10306021Y-13171078D02*
X10315544Y-13142506D01*
X10315544Y-13142506D02*
X10325068Y-13094887D01*
X10325068Y-13094887D02*
X10325068Y-13056792D01*
X10325068Y-13056792D02*
X10315544Y-13009173D01*
X10315544Y-13009173D02*
X10306021Y-12980602D01*
X10306021Y-12980602D02*
X10296497Y-12961554D01*
X10296497Y-12961554D02*
X10277449Y-12932983D01*
X10277449Y-12932983D02*
X10267925Y-12923459D01*
X3292145Y-13451258D02*
X3292145Y-13309835D01*
X3150722Y-13309835D01*
X3150722Y-13451258D01*
X3292145Y-13451258D01*
X3667925Y-13338697D02*
X3667925Y-13472030D01*
X3620306Y-13262506D02*
X3572687Y-13405364D01*
X3572687Y-13405364D02*
X3696496Y-13405364D01*
X3772687Y-13452983D02*
X3782210Y-13462506D01*
X3782210Y-13462506D02*
X3772687Y-13472030D01*
X3772687Y-13472030D02*
X3763163Y-13462506D01*
X3763163Y-13462506D02*
X3772687Y-13452983D01*
X3772687Y-13452983D02*
X3772687Y-13472030D01*
X3972687Y-13472030D02*
X3858401Y-13472030D01*
X3915544Y-13472030D02*
X3915544Y-13272030D01*
X3915544Y-13272030D02*
X3896496Y-13300602D01*
X3896496Y-13300602D02*
X3877449Y-13319649D01*
X3877449Y-13319649D02*
X3858401Y-13329173D01*
X4096496Y-13272030D02*
X4115544Y-13272030D01*
X4115544Y-13272030D02*
X4134591Y-13281554D01*
X4134591Y-13281554D02*
X4144115Y-13291078D01*
X4144115Y-13291078D02*
X4153639Y-13310125D01*
X4153639Y-13310125D02*
X4163163Y-13348221D01*
X4163163Y-13348221D02*
X4163163Y-13395840D01*
X4163163Y-13395840D02*
X4153639Y-13433935D01*
X4153639Y-13433935D02*
X4144115Y-13452983D01*
X4144115Y-13452983D02*
X4134591Y-13462506D01*
X4134591Y-13462506D02*
X4115544Y-13472030D01*
X4115544Y-13472030D02*
X4096496Y-13472030D01*
X4096496Y-13472030D02*
X4077449Y-13462506D01*
X4077449Y-13462506D02*
X4067925Y-13452983D01*
X4067925Y-13452983D02*
X4058401Y-13433935D01*
X4058401Y-13433935D02*
X4048877Y-13395840D01*
X4048877Y-13395840D02*
X4048877Y-13348221D01*
X4048877Y-13348221D02*
X4058401Y-13310125D01*
X4058401Y-13310125D02*
X4067925Y-13291078D01*
X4067925Y-13291078D02*
X4077449Y-13281554D01*
X4077449Y-13281554D02*
X4096496Y-13272030D01*
X4286972Y-13272030D02*
X4306020Y-13272030D01*
X4306020Y-13272030D02*
X4325068Y-13281554D01*
X4325068Y-13281554D02*
X4334592Y-13291078D01*
X4334592Y-13291078D02*
X4344115Y-13310125D01*
X4344115Y-13310125D02*
X4353639Y-13348221D01*
X4353639Y-13348221D02*
X4353639Y-13395840D01*
X4353639Y-13395840D02*
X4344115Y-13433935D01*
X4344115Y-13433935D02*
X4334592Y-13452983D01*
X4334592Y-13452983D02*
X4325068Y-13462506D01*
X4325068Y-13462506D02*
X4306020Y-13472030D01*
X4306020Y-13472030D02*
X4286972Y-13472030D01*
X4286972Y-13472030D02*
X4267925Y-13462506D01*
X4267925Y-13462506D02*
X4258401Y-13452983D01*
X4258401Y-13452983D02*
X4248877Y-13433935D01*
X4248877Y-13433935D02*
X4239353Y-13395840D01*
X4239353Y-13395840D02*
X4239353Y-13348221D01*
X4239353Y-13348221D02*
X4248877Y-13310125D01*
X4248877Y-13310125D02*
X4258401Y-13291078D01*
X4258401Y-13291078D02*
X4267925Y-13281554D01*
X4267925Y-13281554D02*
X4286972Y-13272030D01*
X4439353Y-13472030D02*
X4439353Y-13338697D01*
X4439353Y-13357744D02*
X4448877Y-13348221D01*
X4448877Y-13348221D02*
X4467925Y-13338697D01*
X4467925Y-13338697D02*
X4496496Y-13338697D01*
X4496496Y-13338697D02*
X4515544Y-13348221D01*
X4515544Y-13348221D02*
X4525068Y-13367268D01*
X4525068Y-13367268D02*
X4525068Y-13472030D01*
X4525068Y-13367268D02*
X4534592Y-13348221D01*
X4534592Y-13348221D02*
X4553639Y-13338697D01*
X4553639Y-13338697D02*
X4582211Y-13338697D01*
X4582211Y-13338697D02*
X4601258Y-13348221D01*
X4601258Y-13348221D02*
X4610782Y-13367268D01*
X4610782Y-13367268D02*
X4610782Y-13472030D01*
X4706020Y-13472030D02*
X4706020Y-13338697D01*
X4706020Y-13357744D02*
X4715544Y-13348221D01*
X4715544Y-13348221D02*
X4734592Y-13338697D01*
X4734592Y-13338697D02*
X4763163Y-13338697D01*
X4763163Y-13338697D02*
X4782211Y-13348221D01*
X4782211Y-13348221D02*
X4791734Y-13367268D01*
X4791734Y-13367268D02*
X4791734Y-13472030D01*
X4791734Y-13367268D02*
X4801258Y-13348221D01*
X4801258Y-13348221D02*
X4820306Y-13338697D01*
X4820306Y-13338697D02*
X4848877Y-13338697D01*
X4848877Y-13338697D02*
X4867925Y-13348221D01*
X4867925Y-13348221D02*
X4877449Y-13367268D01*
X4877449Y-13367268D02*
X4877449Y-13472030D01*
X5267925Y-13262506D02*
X5096496Y-13519649D01*
X5525068Y-13272030D02*
X5544116Y-13272030D01*
X5544116Y-13272030D02*
X5563163Y-13281554D01*
X5563163Y-13281554D02*
X5572687Y-13291078D01*
X5572687Y-13291078D02*
X5582211Y-13310125D01*
X5582211Y-13310125D02*
X5591735Y-13348221D01*
X5591735Y-13348221D02*
X5591735Y-13395840D01*
X5591735Y-13395840D02*
X5582211Y-13433935D01*
X5582211Y-13433935D02*
X5572687Y-13452983D01*
X5572687Y-13452983D02*
X5563163Y-13462506D01*
X5563163Y-13462506D02*
X5544116Y-13472030D01*
X5544116Y-13472030D02*
X5525068Y-13472030D01*
X5525068Y-13472030D02*
X5506020Y-13462506D01*
X5506020Y-13462506D02*
X5496496Y-13452983D01*
X5496496Y-13452983D02*
X5486973Y-13433935D01*
X5486973Y-13433935D02*
X5477449Y-13395840D01*
X5477449Y-13395840D02*
X5477449Y-13348221D01*
X5477449Y-13348221D02*
X5486973Y-13310125D01*
X5486973Y-13310125D02*
X5496496Y-13291078D01*
X5496496Y-13291078D02*
X5506020Y-13281554D01*
X5506020Y-13281554D02*
X5525068Y-13272030D01*
X5677449Y-13452983D02*
X5686973Y-13462506D01*
X5686973Y-13462506D02*
X5677449Y-13472030D01*
X5677449Y-13472030D02*
X5667925Y-13462506D01*
X5667925Y-13462506D02*
X5677449Y-13452983D01*
X5677449Y-13452983D02*
X5677449Y-13472030D01*
X5877449Y-13472030D02*
X5763163Y-13472030D01*
X5820306Y-13472030D02*
X5820306Y-13272030D01*
X5820306Y-13272030D02*
X5801258Y-13300602D01*
X5801258Y-13300602D02*
X5782211Y-13319649D01*
X5782211Y-13319649D02*
X5763163Y-13329173D01*
X6048877Y-13272030D02*
X6010782Y-13272030D01*
X6010782Y-13272030D02*
X5991734Y-13281554D01*
X5991734Y-13281554D02*
X5982211Y-13291078D01*
X5982211Y-13291078D02*
X5963163Y-13319649D01*
X5963163Y-13319649D02*
X5953639Y-13357744D01*
X5953639Y-13357744D02*
X5953639Y-13433935D01*
X5953639Y-13433935D02*
X5963163Y-13452983D01*
X5963163Y-13452983D02*
X5972687Y-13462506D01*
X5972687Y-13462506D02*
X5991734Y-13472030D01*
X5991734Y-13472030D02*
X6029830Y-13472030D01*
X6029830Y-13472030D02*
X6048877Y-13462506D01*
X6048877Y-13462506D02*
X6058401Y-13452983D01*
X6058401Y-13452983D02*
X6067925Y-13433935D01*
X6067925Y-13433935D02*
X6067925Y-13386316D01*
X6067925Y-13386316D02*
X6058401Y-13367268D01*
X6058401Y-13367268D02*
X6048877Y-13357744D01*
X6048877Y-13357744D02*
X6029830Y-13348221D01*
X6029830Y-13348221D02*
X5991734Y-13348221D01*
X5991734Y-13348221D02*
X5972687Y-13357744D01*
X5972687Y-13357744D02*
X5963163Y-13367268D01*
X5963163Y-13367268D02*
X5953639Y-13386316D01*
X6258401Y-13472030D02*
X6144115Y-13472030D01*
X6201258Y-13472030D02*
X6201258Y-13272030D01*
X6201258Y-13272030D02*
X6182211Y-13300602D01*
X6182211Y-13300602D02*
X6163163Y-13319649D01*
X6163163Y-13319649D02*
X6144115Y-13329173D01*
X6429830Y-13338697D02*
X6429830Y-13472030D01*
X6382211Y-13262506D02*
X6334592Y-13405364D01*
X6334592Y-13405364D02*
X6458401Y-13405364D01*
X6525068Y-13272030D02*
X6525068Y-13310125D01*
X6601258Y-13272030D02*
X6601258Y-13310125D01*
X6896497Y-13548221D02*
X6886973Y-13538697D01*
X6886973Y-13538697D02*
X6867925Y-13510125D01*
X6867925Y-13510125D02*
X6858401Y-13491078D01*
X6858401Y-13491078D02*
X6848877Y-13462506D01*
X6848877Y-13462506D02*
X6839354Y-13414887D01*
X6839354Y-13414887D02*
X6839354Y-13376792D01*
X6839354Y-13376792D02*
X6848877Y-13329173D01*
X6848877Y-13329173D02*
X6858401Y-13300602D01*
X6858401Y-13300602D02*
X6867925Y-13281554D01*
X6867925Y-13281554D02*
X6886973Y-13252983D01*
X6886973Y-13252983D02*
X6896497Y-13243459D01*
X7058401Y-13338697D02*
X7058401Y-13472030D01*
X7010782Y-13262506D02*
X6963163Y-13405364D01*
X6963163Y-13405364D02*
X7086973Y-13405364D01*
X7248877Y-13272030D02*
X7210782Y-13272030D01*
X7210782Y-13272030D02*
X7191735Y-13281554D01*
X7191735Y-13281554D02*
X7182211Y-13291078D01*
X7182211Y-13291078D02*
X7163163Y-13319649D01*
X7163163Y-13319649D02*
X7153639Y-13357744D01*
X7153639Y-13357744D02*
X7153639Y-13433935D01*
X7153639Y-13433935D02*
X7163163Y-13452983D01*
X7163163Y-13452983D02*
X7172687Y-13462506D01*
X7172687Y-13462506D02*
X7191735Y-13472030D01*
X7191735Y-13472030D02*
X7229830Y-13472030D01*
X7229830Y-13472030D02*
X7248877Y-13462506D01*
X7248877Y-13462506D02*
X7258401Y-13452983D01*
X7258401Y-13452983D02*
X7267925Y-13433935D01*
X7267925Y-13433935D02*
X7267925Y-13386316D01*
X7267925Y-13386316D02*
X7258401Y-13367268D01*
X7258401Y-13367268D02*
X7248877Y-13357744D01*
X7248877Y-13357744D02*
X7229830Y-13348221D01*
X7229830Y-13348221D02*
X7191735Y-13348221D01*
X7191735Y-13348221D02*
X7172687Y-13357744D01*
X7172687Y-13357744D02*
X7163163Y-13367268D01*
X7163163Y-13367268D02*
X7153639Y-13386316D01*
X7506020Y-13472030D02*
X7506020Y-13272030D01*
X7591735Y-13472030D02*
X7591735Y-13367268D01*
X7591735Y-13367268D02*
X7582211Y-13348221D01*
X7582211Y-13348221D02*
X7563163Y-13338697D01*
X7563163Y-13338697D02*
X7534592Y-13338697D01*
X7534592Y-13338697D02*
X7515544Y-13348221D01*
X7515544Y-13348221D02*
X7506020Y-13357744D01*
X7715544Y-13472030D02*
X7696497Y-13462506D01*
X7696497Y-13462506D02*
X7686973Y-13452983D01*
X7686973Y-13452983D02*
X7677449Y-13433935D01*
X7677449Y-13433935D02*
X7677449Y-13376792D01*
X7677449Y-13376792D02*
X7686973Y-13357744D01*
X7686973Y-13357744D02*
X7696497Y-13348221D01*
X7696497Y-13348221D02*
X7715544Y-13338697D01*
X7715544Y-13338697D02*
X7744116Y-13338697D01*
X7744116Y-13338697D02*
X7763163Y-13348221D01*
X7763163Y-13348221D02*
X7772687Y-13357744D01*
X7772687Y-13357744D02*
X7782211Y-13376792D01*
X7782211Y-13376792D02*
X7782211Y-13433935D01*
X7782211Y-13433935D02*
X7772687Y-13452983D01*
X7772687Y-13452983D02*
X7763163Y-13462506D01*
X7763163Y-13462506D02*
X7744116Y-13472030D01*
X7744116Y-13472030D02*
X7715544Y-13472030D01*
X7896497Y-13472030D02*
X7877449Y-13462506D01*
X7877449Y-13462506D02*
X7867925Y-13443459D01*
X7867925Y-13443459D02*
X7867925Y-13272030D01*
X8048878Y-13462506D02*
X8029830Y-13472030D01*
X8029830Y-13472030D02*
X7991735Y-13472030D01*
X7991735Y-13472030D02*
X7972687Y-13462506D01*
X7972687Y-13462506D02*
X7963163Y-13443459D01*
X7963163Y-13443459D02*
X7963163Y-13367268D01*
X7963163Y-13367268D02*
X7972687Y-13348221D01*
X7972687Y-13348221D02*
X7991735Y-13338697D01*
X7991735Y-13338697D02*
X8029830Y-13338697D01*
X8029830Y-13338697D02*
X8048878Y-13348221D01*
X8048878Y-13348221D02*
X8058401Y-13367268D01*
X8058401Y-13367268D02*
X8058401Y-13386316D01*
X8058401Y-13386316D02*
X7963163Y-13405364D01*
X8134592Y-13462506D02*
X8153639Y-13472030D01*
X8153639Y-13472030D02*
X8191735Y-13472030D01*
X8191735Y-13472030D02*
X8210782Y-13462506D01*
X8210782Y-13462506D02*
X8220306Y-13443459D01*
X8220306Y-13443459D02*
X8220306Y-13433935D01*
X8220306Y-13433935D02*
X8210782Y-13414887D01*
X8210782Y-13414887D02*
X8191735Y-13405364D01*
X8191735Y-13405364D02*
X8163163Y-13405364D01*
X8163163Y-13405364D02*
X8144116Y-13395840D01*
X8144116Y-13395840D02*
X8134592Y-13376792D01*
X8134592Y-13376792D02*
X8134592Y-13367268D01*
X8134592Y-13367268D02*
X8144116Y-13348221D01*
X8144116Y-13348221D02*
X8163163Y-13338697D01*
X8163163Y-13338697D02*
X8191735Y-13338697D01*
X8191735Y-13338697D02*
X8210782Y-13348221D01*
X8286973Y-13548221D02*
X8296497Y-13538697D01*
X8296497Y-13538697D02*
X8315544Y-13510125D01*
X8315544Y-13510125D02*
X8325068Y-13491078D01*
X8325068Y-13491078D02*
X8334592Y-13462506D01*
X8334592Y-13462506D02*
X8344116Y-13414887D01*
X8344116Y-13414887D02*
X8344116Y-13376792D01*
X8344116Y-13376792D02*
X8334592Y-13329173D01*
X8334592Y-13329173D02*
X8325068Y-13300602D01*
X8325068Y-13300602D02*
X8315544Y-13281554D01*
X8315544Y-13281554D02*
X8296497Y-13252983D01*
X8296497Y-13252983D02*
X8286973Y-13243459D01*
X8648878Y-13548221D02*
X8639354Y-13538697D01*
X8639354Y-13538697D02*
X8620306Y-13510125D01*
X8620306Y-13510125D02*
X8610782Y-13491078D01*
X8610782Y-13491078D02*
X8601259Y-13462506D01*
X8601259Y-13462506D02*
X8591735Y-13414887D01*
X8591735Y-13414887D02*
X8591735Y-13376792D01*
X8591735Y-13376792D02*
X8601259Y-13329173D01*
X8601259Y-13329173D02*
X8610782Y-13300602D01*
X8610782Y-13300602D02*
X8620306Y-13281554D01*
X8620306Y-13281554D02*
X8639354Y-13252983D01*
X8639354Y-13252983D02*
X8648878Y-13243459D01*
X8725068Y-13338697D02*
X8725068Y-13472030D01*
X8725068Y-13357744D02*
X8734592Y-13348221D01*
X8734592Y-13348221D02*
X8753640Y-13338697D01*
X8753640Y-13338697D02*
X8782211Y-13338697D01*
X8782211Y-13338697D02*
X8801259Y-13348221D01*
X8801259Y-13348221D02*
X8810782Y-13367268D01*
X8810782Y-13367268D02*
X8810782Y-13472030D01*
X8934592Y-13472030D02*
X8915544Y-13462506D01*
X8915544Y-13462506D02*
X8906021Y-13452983D01*
X8906021Y-13452983D02*
X8896497Y-13433935D01*
X8896497Y-13433935D02*
X8896497Y-13376792D01*
X8896497Y-13376792D02*
X8906021Y-13357744D01*
X8906021Y-13357744D02*
X8915544Y-13348221D01*
X8915544Y-13348221D02*
X8934592Y-13338697D01*
X8934592Y-13338697D02*
X8963163Y-13338697D01*
X8963163Y-13338697D02*
X8982211Y-13348221D01*
X8982211Y-13348221D02*
X8991735Y-13357744D01*
X8991735Y-13357744D02*
X9001259Y-13376792D01*
X9001259Y-13376792D02*
X9001259Y-13433935D01*
X9001259Y-13433935D02*
X8991735Y-13452983D01*
X8991735Y-13452983D02*
X8982211Y-13462506D01*
X8982211Y-13462506D02*
X8963163Y-13472030D01*
X8963163Y-13472030D02*
X8934592Y-13472030D01*
X9058402Y-13338697D02*
X9134592Y-13338697D01*
X9086973Y-13272030D02*
X9086973Y-13443459D01*
X9086973Y-13443459D02*
X9096497Y-13462506D01*
X9096497Y-13462506D02*
X9115544Y-13472030D01*
X9115544Y-13472030D02*
X9134592Y-13472030D01*
X9353640Y-13338697D02*
X9353640Y-13538697D01*
X9353640Y-13348221D02*
X9372687Y-13338697D01*
X9372687Y-13338697D02*
X9410783Y-13338697D01*
X9410783Y-13338697D02*
X9429830Y-13348221D01*
X9429830Y-13348221D02*
X9439354Y-13357744D01*
X9439354Y-13357744D02*
X9448878Y-13376792D01*
X9448878Y-13376792D02*
X9448878Y-13433935D01*
X9448878Y-13433935D02*
X9439354Y-13452983D01*
X9439354Y-13452983D02*
X9429830Y-13462506D01*
X9429830Y-13462506D02*
X9410783Y-13472030D01*
X9410783Y-13472030D02*
X9372687Y-13472030D01*
X9372687Y-13472030D02*
X9353640Y-13462506D01*
X9563163Y-13472030D02*
X9544116Y-13462506D01*
X9544116Y-13462506D02*
X9534592Y-13443459D01*
X9534592Y-13443459D02*
X9534592Y-13272030D01*
X9725068Y-13472030D02*
X9725068Y-13367268D01*
X9725068Y-13367268D02*
X9715544Y-13348221D01*
X9715544Y-13348221D02*
X9696497Y-13338697D01*
X9696497Y-13338697D02*
X9658402Y-13338697D01*
X9658402Y-13338697D02*
X9639354Y-13348221D01*
X9725068Y-13462506D02*
X9706021Y-13472030D01*
X9706021Y-13472030D02*
X9658402Y-13472030D01*
X9658402Y-13472030D02*
X9639354Y-13462506D01*
X9639354Y-13462506D02*
X9629830Y-13443459D01*
X9629830Y-13443459D02*
X9629830Y-13424411D01*
X9629830Y-13424411D02*
X9639354Y-13405364D01*
X9639354Y-13405364D02*
X9658402Y-13395840D01*
X9658402Y-13395840D02*
X9706021Y-13395840D01*
X9706021Y-13395840D02*
X9725068Y-13386316D01*
X9791735Y-13338697D02*
X9867925Y-13338697D01*
X9820306Y-13272030D02*
X9820306Y-13443459D01*
X9820306Y-13443459D02*
X9829830Y-13462506D01*
X9829830Y-13462506D02*
X9848878Y-13472030D01*
X9848878Y-13472030D02*
X9867925Y-13472030D01*
X10010783Y-13462506D02*
X9991735Y-13472030D01*
X9991735Y-13472030D02*
X9953640Y-13472030D01*
X9953640Y-13472030D02*
X9934592Y-13462506D01*
X9934592Y-13462506D02*
X9925068Y-13443459D01*
X9925068Y-13443459D02*
X9925068Y-13367268D01*
X9925068Y-13367268D02*
X9934592Y-13348221D01*
X9934592Y-13348221D02*
X9953640Y-13338697D01*
X9953640Y-13338697D02*
X9991735Y-13338697D01*
X9991735Y-13338697D02*
X10010783Y-13348221D01*
X10010783Y-13348221D02*
X10020306Y-13367268D01*
X10020306Y-13367268D02*
X10020306Y-13386316D01*
X10020306Y-13386316D02*
X9925068Y-13405364D01*
X10191735Y-13472030D02*
X10191735Y-13272030D01*
X10191735Y-13462506D02*
X10172687Y-13472030D01*
X10172687Y-13472030D02*
X10134592Y-13472030D01*
X10134592Y-13472030D02*
X10115544Y-13462506D01*
X10115544Y-13462506D02*
X10106021Y-13452983D01*
X10106021Y-13452983D02*
X10096497Y-13433935D01*
X10096497Y-13433935D02*
X10096497Y-13376792D01*
X10096497Y-13376792D02*
X10106021Y-13357744D01*
X10106021Y-13357744D02*
X10115544Y-13348221D01*
X10115544Y-13348221D02*
X10134592Y-13338697D01*
X10134592Y-13338697D02*
X10172687Y-13338697D01*
X10172687Y-13338697D02*
X10191735Y-13348221D01*
X10267925Y-13548221D02*
X10277449Y-13538697D01*
X10277449Y-13538697D02*
X10296497Y-13510125D01*
X10296497Y-13510125D02*
X10306021Y-13491078D01*
X10306021Y-13491078D02*
X10315544Y-13462506D01*
X10315544Y-13462506D02*
X10325068Y-13414887D01*
X10325068Y-13414887D02*
X10325068Y-13376792D01*
X10325068Y-13376792D02*
X10315544Y-13329173D01*
X10315544Y-13329173D02*
X10306021Y-13300602D01*
X10306021Y-13300602D02*
X10296497Y-13281554D01*
X10296497Y-13281554D02*
X10277449Y-13252983D01*
X10277449Y-13252983D02*
X10267925Y-13243459D01*
M02*
